{"glyphs":{"0":{"ha":697,"x_min":null,"x_max":null,"o":"m 349 640 b 58 308 185 640 58 506 b 350 -17 57 110 181 -17 b 640 313 503 -17 640 103 b 350 640 640 504 519 640 z m 350 579 b 524 310 443 579 524 483 b 350 43 524 143 449 43 b 175 310 258 43 175 138 b 349 579 175 478 253 579 z "},"1":{"ha":697,"x_min":null,"x_max":null,"o":"m 578 0 l 578 39 l 493 49 b 417 139 425 56 417 69 l 417 640 b 153 579 332 614 254 593 l 153 542 l 239 538 b 299 449 293 533 299 522 l 299 139 b 226 50 299 69 292 56 l 136 39 l 136 0 z "},"2":{"ha":697,"x_min":null,"x_max":null,"o":"m 638 169 l 600 174 b 488 99 568 111 557 99 l 263 99 l 263 101 b 440 256 343 171 401 218 b 546 440 500 306 546 358 b 338 640 546 551 468 640 b 165 565 274 640 215 615 l 93 461 l 122 435 b 285 549 154 475 208 549 b 417 411 379 549 417 482 b 85 29 417 257 208 119 l 85 0 l 597 0 z "},"3":{"ha":697,"x_min":null,"x_max":null,"o":"m 388 300 b 479 372 426 326 458 353 b 521 463 504 394 521 426 b 335 640 521 568 447 640 l 333 640 b 178 572 268 640 213 610 l 118 490 l 146 465 b 285 558 175 506 221 558 b 400 438 350 558 400 519 b 199 240 400 350 326 292 l 208 203 b 292 218 233 213 263 218 b 451 40 361 218 451 169 b 300 -160 451 -96 376 -160 b 154 -96 236 -160 188 -124 b 118 -94 143 -85 129 -85 b 89 -132 103 -104 93 -119 b 106 -186 82 -154 86 -169 b 226 -231 128 -207 175 -231 b 576 93 306 -231 576 -135 b 388 297 576 189 506 278 z "},"4":{"ha":697,"x_min":null,"x_max":null,"o":"m 660 128 l 526 128 l 526 640 l 463 640 b 43 100 328 476 172 271 l 43 49 l 408 49 l 408 -221 l 526 -221 l 526 49 l 646 49 z m 408 128 l 138 128 b 404 492 225 253 313 374 l 408 492 z "},"5":{"ha":697,"x_min":null,"x_max":null,"o":"m 236 506 l 542 533 l 563 640 l 194 608 l 140 258 b 442 75 282 258 442 225 b 114 -187 442 -132 169 -178 l 119 -231 b 438 -128 208 -229 344 -197 b 564 97 521 -68 564 10 b 207 360 564 297 371 358 z "},"6":{"ha":697,"x_min":null,"x_max":null,"o":"m 613 854 b 429 807 557 847 493 832 b 65 317 238 729 65 557 b 347 -17 65 89 204 -17 b 639 282 511 -17 639 113 b 393 536 639 439 529 536 b 307 511 376 536 347 528 l 222 476 b 446 729 253 564 328 665 b 622 810 496 768 560 796 z m 319 456 b 511 219 469 456 511 326 b 374 33 511 88 446 33 b 200 324 278 33 200 140 b 210 426 200 358 201 386 b 318 456 249 444 286 456 z "},"7":{"ha":697,"x_min":null,"x_max":null,"o":"m 626 624 l 85 624 l 85 514 l 528 514 b 72 -212 406 299 242 21 l 82 -231 l 192 -210 b 639 606 381 144 572 488 z "},"8":{"ha":697,"x_min":null,"x_max":null,"o":"m 358 854 b 115 632 214 854 115 747 b 263 422 115 531 183 465 b 140 339 215 394 163 360 b 82 210 111 311 82 272 b 344 -17 82 65 196 -17 b 617 229 464 -17 617 68 b 439 463 617 351 528 408 b 543 551 494 503 528 535 b 581 653 568 579 581 615 b 360 854 581 768 490 854 z m 350 810 b 474 653 404 810 474 765 b 401 482 474 561 436 511 b 225 675 307 532 225 576 b 349 810 225 743 268 810 z m 358 28 b 197 218 279 28 197 93 b 299 401 197 288 232 354 b 497 190 403 349 496 292 b 360 28 497 82 438 28 z "},"9":{"ha":697,"x_min":null,"x_max":null,"o":"m 351 640 b 69 344 211 640 69 525 b 308 99 69 193 188 99 b 417 126 332 99 368 104 l 472 151 b 39 -190 397 -62 201 -162 l 46 -231 b 261 -186 111 -228 210 -206 b 625 310 447 -115 625 36 b 353 640 625 476 540 640 z m 325 592 b 493 306 468 592 493 403 b 481 199 493 253 489 226 b 385 175 460 188 428 175 b 194 397 288 175 194 250 b 324 592 194 499 243 592 z "}," ":{"ha":328,"x_min":null,"x_max":null,"o":""},"א":{"ha":706,"x_min":null,"x_max":null,"o":"m 621 -11 l 640 115 b 458 307 581 182 521 244 b 644 504 533 468 558 503 l 661 621 l 542 621 b 478 660 496 621 478 631 l 438 663 l 425 551 b 492 500 421 508 443 500 l 494 500 l 418 344 b 226 529 354 408 292 468 b 149 660 157 594 149 628 l 107 663 l 89 513 b 185 396 86 486 99 475 b 125 247 138 301 125 265 b 171 115 125 231 125 222 l 139 115 b 49 89 61 115 54 115 l 28 -4 l 64 -11 b 108 0 75 0 79 0 l 244 0 l 260 111 b 194 276 196 247 194 260 b 221 361 194 288 201 315 b 592 -14 347 239 472 115 z "},"ﬡ":{"ha":1019,"x_min":null,"x_max":null,"o":"m 935 -11 l 953 106 b 740 243 882 151 811 199 b 958 504 847 472 867 503 l 975 621 l 853 621 b 789 660 807 621 789 631 l 749 663 l 736 551 b 803 500 732 508 754 500 l 804 500 l 694 269 b 224 549 539 365 381 458 b 149 660 164 582 149 621 l 107 663 l 89 515 b 196 424 86 490 92 482 b 125 247 139 308 125 264 b 171 115 125 231 125 222 l 139 115 b 49 89 61 115 54 115 l 28 -4 l 64 -11 b 108 0 75 0 79 0 l 244 0 l 260 111 b 194 276 196 247 194 260 b 238 399 194 288 199 308 b 908 -14 464 265 689 129 z "},"ב":{"ha":617,"x_min":null,"x_max":null,"o":"m 81 663 l 68 547 b 135 500 64 508 83 500 l 315 500 b 435 390 397 500 432 478 b 457 115 438 307 442 211 l 147 115 b 57 89 69 115 63 115 l 36 -4 l 72 -11 b 117 0 83 0 88 0 l 565 0 l 581 111 b 506 229 517 113 506 118 l 506 444 b 333 621 506 564 471 621 l 185 621 b 121 660 139 621 121 631 z "},"ג":{"ha":440,"x_min":null,"x_max":null,"o":"m 158 660 l 118 663 l 106 547 b 185 500 101 508 121 500 b 288 372 258 500 288 490 b 289 274 288 340 288 307 b 189 115 258 197 204 125 l 125 115 b 51 89 61 115 57 113 l 31 -4 l 67 -11 b 111 0 78 0 82 0 l 201 0 b 293 178 228 60 257 121 b 319 -14 297 117 304 51 l 407 1 b 344 476 344 174 344 353 b 215 621 344 578 322 621 b 158 660 174 621 158 631 z "},"ד":{"ha":563,"x_min":null,"x_max":null,"o":"m 360 500 l 350 -14 l 440 1 b 417 447 428 197 417 385 b 497 504 417 483 431 503 l 514 621 l 125 621 b 61 660 79 621 61 631 l 21 663 l 8 547 b 75 500 4 508 24 500 z "},"ﬢ":{"ha":965,"x_min":null,"x_max":null,"o":"m 763 500 l 753 -14 l 843 1 b 819 447 831 197 819 385 b 900 504 819 483 833 503 l 917 621 l 125 621 b 61 660 79 621 61 631 l 21 663 l 8 547 b 75 500 4 508 24 500 z "},"ה":{"ha":656,"x_min":null,"x_max":null,"o":"m 68 663 l 56 547 b 122 500 51 508 71 500 l 415 500 b 494 410 483 500 496 488 l 485 -14 l 574 1 l 550 454 l 563 572 b 497 621 568 621 547 621 l 172 621 b 108 660 126 621 108 631 z m 146 340 l 94 317 b 60 -17 86 207 75 96 l 153 1 l 160 336 z "},"ﬣ":{"ha":1038,"x_min":null,"x_max":null,"o":"m 69 663 l 57 547 b 124 500 53 508 72 500 l 797 500 b 876 410 865 500 878 488 l 867 -14 l 956 1 l 932 454 l 944 572 b 879 621 950 621 929 621 l 174 621 b 110 660 128 621 110 631 z m 140 340 l 89 317 b 54 -17 81 207 69 96 l 147 1 l 154 336 z "},"ו":{"ha":333,"x_min":null,"x_max":null,"o":"m 68 660 l 28 663 l 15 547 b 93 500 11 508 31 500 b 188 372 158 500 190 490 l 176 -14 l 267 1 b 244 465 253 181 244 310 b 118 621 244 578 222 621 b 68 660 86 621 68 631 z "},"ז":{"ha":340,"x_min":null,"x_max":null,"o":"m 124 500 l 114 -14 l 204 1 b 181 447 192 197 181 385 b 275 504 181 488 197 503 l 292 621 l 132 621 b 68 660 86 621 68 631 l 28 663 l 15 547 b 82 500 11 508 31 500 z "},"ח":{"ha":688,"x_min":null,"x_max":null,"o":"m 68 663 l 56 547 b 119 500 51 508 72 500 l 83 -14 l 175 1 l 174 500 l 447 500 b 526 410 515 500 528 488 l 517 -14 l 606 1 l 582 454 l 594 572 b 529 621 600 621 579 621 l 172 621 b 108 660 126 621 108 631 z "},"ט":{"ha":693,"x_min":null,"x_max":null,"o":"m 339 415 b 438 526 360 489 374 526 b 568 361 496 526 568 483 b 503 183 568 299 542 222 b 258 110 465 160 324 119 b 172 350 213 192 172 296 b 243 504 172 399 190 481 l 260 621 l 165 621 b 101 660 119 621 101 631 l 61 663 l 49 547 b 115 500 44 508 64 500 l 164 500 b 99 328 131 436 99 354 b 217 -17 99 299 121 183 b 504 69 307 -1 429 31 b 631 403 579 108 631 283 b 454 644 631 522 583 644 b 332 589 408 644 358 626 l 304 421 z "},"י":{"ha":299,"x_min":null,"x_max":null,"o":"m 68 660 l 28 663 l 15 547 b 82 500 11 508 31 500 l 100 500 b 185 443 161 500 185 482 b 114 239 185 400 156 332 l 204 254 b 257 517 231 364 257 453 b 136 621 257 583 228 621 b 68 660 96 621 68 622 z "},"ך":{"ha":528,"x_min":null,"x_max":null,"o":"m 25 663 l 13 547 b 79 500 8 508 28 500 l 289 500 b 368 410 357 500 369 488 l 361 -222 l 454 -207 l 424 454 l 436 572 b 371 621 442 621 421 621 l 129 621 b 65 660 83 621 65 631 z "},"כ":{"ha":581,"x_min":null,"x_max":null,"o":"m 69 663 l 57 547 b 124 500 53 508 72 500 l 272 500 b 454 303 415 500 454 414 b 415 115 454 238 439 168 l 143 115 b 53 89 65 115 58 115 l 32 -4 l 68 -11 b 113 0 79 0 83 0 l 439 0 b 522 338 492 133 522 215 b 304 621 522 489 483 621 l 174 621 b 110 660 128 621 110 631 z "},"ﬤ":{"ha":967,"x_min":null,"x_max":null,"o":"m 71 663 l 58 547 b 125 500 54 508 74 500 l 658 500 b 840 303 801 500 840 414 b 801 115 840 238 825 168 l 144 115 b 54 89 67 115 60 115 l 32 -7 l 68 -14 b 114 0 79 -3 85 0 l 825 0 b 908 338 878 133 908 215 b 690 621 908 489 869 621 l 175 621 b 111 660 129 621 111 631 z "},"ל":{"ha":550,"x_min":null,"x_max":null,"o":"m 47 840 l 24 550 b 88 500 21 511 36 500 l 307 500 b 418 401 369 500 418 478 b 381 243 418 328 399 271 b 192 133 338 208 296 189 b 171 101 178 126 174 113 l 147 -4 l 181 -11 b 224 29 190 1 197 13 b 404 143 307 82 371 110 b 482 478 454 193 482 365 b 332 621 482 575 433 621 l 131 621 b 89 660 90 621 89 631 b 96 792 89 694 92 751 b 140 846 100 824 104 844 l 157 961 l 108 961 b 44 1000 63 961 44 971 l 4 1003 l -8 888 b 47 840 -12 849 8 840 z "},"ﬥ":{"ha":949,"x_min":null,"x_max":null,"o":"m 47 840 l 24 550 b 88 500 21 511 36 500 l 704 500 b 815 401 767 500 815 478 b 778 243 815 328 796 271 b 589 133 735 208 693 189 b 568 101 575 126 571 113 l 544 -4 l 578 -11 b 621 29 588 1 594 13 b 801 143 704 82 768 110 b 879 478 851 193 879 365 b 729 621 879 575 831 621 l 131 621 b 89 660 90 621 89 631 b 96 792 89 694 92 751 b 140 846 100 824 104 844 l 157 961 l 108 961 b 44 1000 63 961 44 971 l 4 1003 l -8 888 b 47 840 -12 849 8 840 z "},"ם":{"ha":657,"x_min":null,"x_max":null,"o":"m 542 0 b 581 389 581 151 581 322 b 389 621 581 536 574 621 l 167 621 b 103 660 121 621 103 631 l 63 663 l 50 547 b 114 500 46 508 64 500 b 67 206 83 396 67 301 b 93 0 67 139 75 71 z m 168 500 l 378 500 b 514 278 514 500 514 446 b 453 115 514 154 503 115 l 192 115 b 136 249 143 115 136 175 b 168 500 136 347 158 469 z "},"ﬦ":{"ha":1060,"x_min":null,"x_max":null,"o":"m 944 0 b 983 389 983 151 983 322 b 792 621 983 536 976 621 l 167 621 b 103 660 121 621 103 631 l 63 663 l 50 547 b 114 500 46 508 64 500 b 67 206 83 396 67 301 b 93 0 67 139 75 71 z m 168 500 l 781 500 b 917 278 917 500 917 446 b 856 115 917 154 906 115 l 192 115 b 136 249 143 115 136 175 b 168 500 136 347 158 469 z "},"מ":{"ha":714,"x_min":null,"x_max":null,"o":"m 79 660 l 39 663 l 26 547 b 104 500 22 508 42 500 b 151 442 135 500 151 490 b 54 -14 151 365 92 113 l 144 1 b 197 322 156 125 176 233 b 421 500 225 439 322 500 b 574 269 549 500 574 390 b 560 115 574 218 568 164 l 353 115 b 263 89 275 115 268 115 l 242 -4 l 278 -11 b 322 0 289 0 293 0 l 608 0 b 642 313 622 69 642 194 b 476 621 642 471 613 621 l 344 621 b 221 461 310 567 268 514 b 226 521 224 483 226 503 b 129 621 226 585 203 621 b 79 660 97 621 79 631 z "},"ן":{"ha":318,"x_min":null,"x_max":null,"o":"m 25 663 l 13 547 b 79 500 8 508 28 500 b 158 410 147 500 160 488 l 151 -222 l 244 -207 l 214 454 l 226 572 b 161 621 232 621 211 621 l 129 621 b 65 660 83 621 65 631 z "},"נ":{"ha":389,"x_min":null,"x_max":null,"o":"m 129 660 l 89 663 l 76 547 b 153 500 72 508 92 500 b 244 372 213 500 244 490 l 244 115 l 125 115 b 35 89 47 115 40 115 l 14 -4 l 50 -11 b 94 0 61 0 65 0 l 308 0 l 322 106 b 301 476 306 226 301 353 b 183 621 301 578 275 621 b 129 660 144 621 129 631 z "},"ס":{"ha":671,"x_min":null,"x_max":null,"o":"m 111 660 l 71 663 l 58 547 b 125 500 54 508 74 500 l 161 500 b 89 307 121 417 89 333 b 203 -17 89 278 110 186 b 483 67 293 -1 408 28 b 610 389 558 104 610 275 b 433 621 610 504 563 621 l 175 621 b 111 660 129 621 111 631 z m 214 500 l 417 500 b 547 347 475 500 547 460 b 482 181 547 290 521 217 b 244 110 444 157 310 119 b 167 332 199 192 167 278 b 214 500 167 381 186 436 z "},"ע":{"ha":603,"x_min":null,"x_max":null,"o":"m 418 660 l 378 663 l 365 547 b 432 500 361 508 381 500 b 485 451 469 500 485 488 b 389 186 485 381 447 243 b 283 118 372 171 326 143 b 178 358 238 199 178 304 b 249 504 178 407 199 488 l 265 621 l 172 621 b 108 660 126 621 108 631 l 68 663 l 56 547 b 122 500 51 508 71 500 l 165 500 b 106 333 132 436 106 360 b 203 74 106 308 133 225 b 67 0 156 47 107 21 b 46 -32 53 -7 49 -21 l 22 -137 l 56 -144 b 99 -101 65 -132 72 -118 b 422 89 182 -49 394 61 b 560 581 476 143 560 443 b 490 621 560 618 540 621 l 482 621 b 418 660 436 621 418 631 z "},"ﬠ":{"ha":617,"x_min":null,"x_max":null,"o":"m 392 663 l 379 547 b 446 500 375 508 394 500 b 499 451 483 500 499 488 b 396 153 499 381 454 221 b 288 135 382 149 361 143 b 192 358 243 213 192 308 b 263 504 192 407 213 488 l 279 621 l 186 621 b 122 660 140 621 122 631 l 82 663 l 69 547 b 136 500 65 508 85 500 l 179 500 b 119 333 146 436 119 360 b 192 126 119 311 140 243 b 67 115 157 122 115 119 b 35 79 46 114 40 103 l 15 -4 l 51 -11 b 140 11 58 1 64 6 b 426 54 244 19 407 35 b 574 581 472 100 574 414 b 504 621 574 618 554 621 l 496 621 b 432 660 450 621 432 631 z "},"ף":{"ha":550,"x_min":null,"x_max":null,"o":"m 56 672 l 43 564 b 97 508 39 526 54 517 b 58 344 72 433 58 371 b 221 258 58 283 106 271 l 236 372 b 133 428 151 383 133 389 b 147 501 133 446 136 468 b 331 475 211 492 261 485 b 407 342 397 465 407 415 l 407 301 l 401 -222 l 494 -207 l 469 350 b 390 589 464 464 468 579 b 158 624 286 601 231 610 b 96 669 113 632 97 643 z "},"פ":{"ha":618,"x_min":null,"x_max":null,"o":"m 97 672 l 85 564 b 139 508 81 526 96 517 b 100 344 114 433 100 371 b 263 258 100 283 147 271 l 278 372 b 175 428 193 383 175 389 b 189 501 175 446 178 468 b 385 474 253 492 315 483 b 489 285 463 463 489 375 b 457 115 489 217 474 149 l 147 115 b 57 89 69 115 63 115 l 36 -4 l 72 -11 b 117 0 83 0 88 0 l 503 0 b 551 306 531 65 551 189 b 447 588 551 447 522 578 b 200 624 340 600 272 610 b 138 669 154 632 139 643 z "},"ץ":{"ha":571,"x_min":null,"x_max":null,"o":"m 19 663 l 7 547 b 74 500 3 508 22 500 b 153 410 142 500 151 488 l 160 -222 l 253 -207 l 226 167 b 540 507 443 468 474 500 l 557 621 l 454 621 b 394 660 413 621 394 631 l 354 663 l 342 551 b 407 500 338 508 360 500 l 221 239 l 207 454 l 221 572 b 156 621 226 621 206 621 l 124 621 b 60 660 78 621 60 631 z "},"צ":{"ha":610,"x_min":null,"x_max":null,"o":"m 485 0 l 500 108 b 379 240 458 143 417 192 b 579 507 486 482 510 500 l 596 621 l 486 621 b 426 660 444 621 426 631 l 386 663 l 374 551 b 440 500 369 508 392 500 l 443 500 l 346 283 b 242 461 286 365 242 440 l 254 572 b 189 621 260 621 239 621 l 147 621 b 83 660 101 621 83 631 l 43 663 l 31 547 b 97 500 26 508 46 500 b 160 486 131 500 147 499 b 194 425 171 475 181 457 b 369 115 219 369 261 276 l 139 115 b 49 89 61 115 54 115 l 28 -4 l 64 -11 b 108 0 75 0 79 0 z "},"ק":{"ha":632,"x_min":null,"x_max":null,"o":"m 171 621 b 107 660 125 621 107 631 l 67 663 l 54 547 b 121 500 50 508 69 500 l 333 500 b 497 376 446 500 497 474 b 469 246 497 328 490 282 b 286 126 444 222 404 196 b 265 94 272 118 268 106 l 243 -4 l 276 -11 b 321 25 286 1 294 8 b 506 160 461 113 485 125 b 556 454 539 214 556 329 b 363 621 556 569 506 621 z m 144 340 l 93 317 b 68 -222 88 139 79 -40 l 161 -207 l 158 336 z "},"ר":{"ha":572,"x_min":null,"x_max":null,"o":"m 132 621 b 68 660 86 621 68 631 l 28 663 l 15 547 b 82 500 11 508 31 500 l 258 500 b 422 333 360 500 426 478 l 413 -14 l 503 1 b 479 428 488 175 479 357 b 283 621 479 571 431 621 z "},"ﬧ":{"ha":933,"x_min":null,"x_max":null,"o":"m 132 621 b 68 660 86 621 68 631 l 28 663 l 15 547 b 82 500 11 508 31 500 l 619 500 b 783 333 721 500 788 478 l 774 -14 l 864 1 b 840 428 849 175 840 357 b 644 621 840 571 792 621 z "},"ש":{"ha":817,"x_min":null,"x_max":null,"o":"m 556 68 b 776 574 643 106 776 428 b 707 621 776 615 757 621 l 696 621 b 632 660 650 621 632 631 l 592 663 l 579 547 b 646 500 575 508 594 500 b 694 451 683 500 694 488 b 551 183 694 406 636 235 b 299 114 511 163 386 129 b 490 506 408 483 417 499 l 507 621 l 424 621 b 360 660 378 621 360 631 l 319 663 l 307 551 b 363 500 303 511 321 501 l 247 128 b 168 356 207 206 168 306 b 215 504 168 418 183 479 l 232 621 l 151 621 b 88 660 106 621 88 631 l 47 663 l 35 547 b 101 500 31 508 50 500 l 146 500 b 99 328 124 436 99 354 b 217 -17 99 299 121 183 b 556 68 328 -1 467 29 z "},"ת":{"ha":704,"x_min":null,"x_max":null,"o":"m 201 621 b 138 660 156 621 138 631 l 97 663 l 85 547 b 151 500 81 508 100 500 l 188 500 b 115 307 119 347 115 321 b 172 115 115 293 122 250 l 146 115 b 56 89 68 115 61 115 l 35 -4 l 71 -11 b 115 0 82 0 86 0 l 249 0 l 264 111 b 193 332 193 274 193 314 b 240 500 193 351 193 388 l 419 500 b 556 358 514 500 560 476 l 544 -14 l 635 1 b 613 446 621 163 613 310 b 438 621 613 564 583 621 z "},"ﬨ":{"ha":1113,"x_min":null,"x_max":null,"o":"m 201 621 b 138 660 156 621 138 631 l 97 663 l 85 547 b 151 500 81 508 100 500 l 188 500 b 115 307 119 347 115 321 b 172 115 115 293 122 250 l 146 115 b 56 89 68 115 61 115 l 35 -4 l 71 -11 b 115 0 82 0 86 0 l 249 0 l 264 111 b 193 332 193 274 193 314 b 240 500 193 351 193 388 l 828 500 b 964 358 922 500 968 476 l 953 -14 l 1043 1 b 1021 446 1029 163 1021 310 b 846 621 1021 564 992 621 z "},"אַ":{"ha":706,"x_min":null,"x_max":null,"o":"m 621 -11 l 640 115 b 458 307 581 182 521 244 b 644 504 533 468 558 503 l 661 621 l 542 621 b 478 660 496 621 478 631 l 438 663 l 425 551 b 492 500 421 508 443 500 l 494 500 l 418 344 b 226 529 354 408 292 468 b 149 660 157 594 149 628 l 107 663 l 89 513 b 185 396 86 486 99 475 b 125 247 138 301 125 265 b 171 115 125 231 125 222 l 139 115 b 49 89 61 115 54 115 l 28 -4 l 64 -11 b 108 0 75 0 79 0 l 244 0 l 260 111 b 194 276 196 247 194 260 b 221 361 194 288 201 315 b 592 -14 347 239 472 115 z m 465 -112 l 228 -112 l 224 -168 l 461 -168 z "},"אָ":{"ha":706,"x_min":null,"x_max":null,"o":"m 621 -11 l 640 115 b 458 307 581 182 521 244 b 644 504 533 468 558 503 l 661 621 l 542 621 b 478 660 496 621 478 631 l 438 663 l 425 551 b 492 500 421 508 443 500 l 494 500 l 418 344 b 226 529 354 408 292 468 b 149 660 157 594 149 628 l 107 663 l 89 513 b 185 396 86 486 99 475 b 125 247 138 301 125 265 b 171 115 125 231 125 222 l 139 115 b 49 89 61 115 54 115 l 28 -4 l 64 -11 b 108 0 75 0 79 0 l 244 0 l 260 111 b 194 276 196 247 194 260 b 221 361 194 288 201 315 b 592 -14 347 239 472 115 z m 461 -168 l 465 -112 l 228 -112 l 224 -168 l 328 -168 l 304 -347 l 385 -336 l 361 -168 z "},"אּ":{"ha":706,"x_min":null,"x_max":null,"o":"m 621 -11 l 640 115 b 458 307 581 182 521 244 b 644 504 533 468 558 503 l 661 621 l 542 621 b 478 660 496 621 478 631 l 438 663 l 425 551 b 492 500 421 508 443 500 l 494 500 l 418 344 b 226 529 354 408 292 468 b 149 660 157 594 149 628 l 107 663 l 89 513 b 185 396 86 486 99 475 b 125 247 138 301 125 265 b 171 115 125 231 125 222 l 139 115 b 49 89 61 115 54 115 l 28 -4 l 64 -11 b 108 0 75 0 79 0 l 244 0 l 260 111 b 194 276 196 247 194 260 b 221 361 194 288 201 315 b 592 -14 347 239 472 115 z m 304 97 b 353 49 304 69 325 49 b 401 97 381 49 401 69 b 353 146 401 126 381 146 b 304 97 325 146 304 126 z "},"בּ":{"ha":617,"x_min":null,"x_max":null,"o":"m 81 663 l 68 547 b 135 500 64 508 83 500 l 315 500 b 435 390 397 500 432 478 b 457 115 438 307 442 211 l 147 115 b 57 89 69 115 63 115 l 36 -4 l 72 -11 b 117 0 83 0 88 0 l 565 0 l 581 111 b 506 229 517 113 506 118 l 506 444 b 333 621 506 564 471 621 l 185 621 b 121 660 139 621 121 631 z m 215 317 b 264 268 215 289 236 268 b 313 317 292 268 313 289 b 264 365 313 346 292 365 b 215 317 236 365 215 346 z "},"בֿ":{"ha":617,"x_min":null,"x_max":null,"o":"m 81 663 l 68 547 b 135 500 64 508 83 500 l 315 500 b 435 390 397 500 432 478 b 457 115 438 307 442 211 l 147 115 b 57 89 69 115 63 115 l 36 -4 l 72 -11 b 117 0 83 0 88 0 l 565 0 l 581 111 b 506 229 517 113 506 118 l 506 444 b 333 621 506 564 471 621 l 185 621 b 121 660 139 621 121 631 z m 428 778 l 154 778 l 149 722 l 422 722 z "},"גּ":{"ha":440,"x_min":null,"x_max":null,"o":"m 158 660 l 118 663 l 106 547 b 185 500 101 508 121 500 b 288 372 258 500 288 490 b 289 274 288 340 288 307 b 189 115 258 197 204 125 l 125 115 b 51 89 61 115 57 113 l 31 -4 l 67 -11 b 111 0 78 0 82 0 l 201 0 b 293 178 228 60 257 121 b 319 -14 297 117 304 51 l 407 1 b 344 476 344 174 344 353 b 215 621 344 578 322 621 b 158 660 174 621 158 631 z m 110 317 b 158 268 110 289 131 268 b 207 317 186 268 207 289 b 158 365 207 346 186 365 b 110 317 131 365 110 346 z "},"דּ":{"ha":563,"x_min":null,"x_max":null,"o":"m 360 500 l 350 -14 l 440 1 b 417 447 428 197 417 385 b 497 504 417 483 431 503 l 514 621 l 125 621 b 61 660 79 621 61 631 l 21 663 l 8 547 b 75 500 4 508 24 500 z m 147 317 b 196 268 147 289 168 268 b 244 317 224 268 244 289 b 196 365 244 346 224 365 b 147 317 168 365 147 346 z "},"הּ":{"ha":656,"x_min":null,"x_max":null,"o":"m 68 663 l 56 547 b 122 500 51 508 71 500 l 415 500 b 494 410 483 500 496 488 l 485 -14 l 574 1 l 550 454 l 563 572 b 497 621 568 621 547 621 l 172 621 b 108 660 126 621 108 631 z m 146 340 l 94 317 b 60 -17 86 207 75 96 l 153 1 l 160 336 z m 267 317 b 315 268 267 289 288 268 b 364 317 343 268 364 289 b 315 365 364 346 343 365 b 267 317 288 365 267 346 z "},"וּ":{"ha":333,"x_min":null,"x_max":null,"o":"m 68 660 l 28 663 l 15 547 b 93 500 11 508 31 500 b 188 372 158 500 190 490 l 176 -14 l 267 1 b 244 465 253 181 244 310 b 118 621 244 578 222 621 b 68 660 86 621 68 631 z m 33 317 b 82 268 33 289 54 268 b 131 317 110 268 131 289 b 82 365 131 346 110 365 b 33 317 54 365 33 346 z "},"וֹ":{"ha":333,"x_min":null,"x_max":null,"o":"m 68 660 l 28 663 l 15 547 b 93 500 11 508 31 500 b 188 372 158 500 190 490 l 176 -14 l 267 1 b 244 465 253 181 244 310 b 118 621 244 578 222 621 b 68 660 86 621 68 631 z m 167 769 b 215 721 167 742 188 721 b 264 769 243 721 264 742 b 215 818 264 797 243 818 b 167 769 188 818 167 797 z "},"זּ":{"ha":368,"x_min":null,"x_max":null,"o":"m 151 500 l 142 -14 l 232 1 b 208 447 219 197 208 385 b 303 504 208 488 225 503 l 319 621 l 160 621 b 96 660 114 621 96 631 l 56 663 l 43 547 b 110 500 39 508 58 500 z m 7 317 b 56 268 7 289 28 268 b 104 317 83 268 104 289 b 56 365 104 346 83 365 b 7 317 28 365 7 346 z "},"טּ":{"ha":693,"x_min":null,"x_max":null,"o":"m 339 415 b 438 526 360 489 374 526 b 568 361 496 526 568 483 b 503 183 568 299 542 222 b 258 110 465 160 324 119 b 172 350 213 192 172 296 b 243 504 172 399 190 481 l 260 621 l 165 621 b 101 660 119 621 101 631 l 61 663 l 49 547 b 115 500 44 508 64 500 l 164 500 b 99 328 131 436 99 354 b 217 -17 99 299 121 183 b 504 69 307 -1 429 31 b 631 403 579 108 631 283 b 454 644 631 522 583 644 b 332 589 408 644 358 626 l 304 421 z m 314 324 b 363 275 314 296 335 275 b 411 324 390 275 411 296 b 363 372 411 353 390 372 b 314 324 335 372 314 353 z "},"יּ":{"ha":306,"x_min":null,"x_max":null,"o":"m 75 660 l 35 663 l 22 547 b 89 500 18 508 38 500 l 107 500 b 192 443 168 500 192 482 b 121 239 192 400 163 332 l 211 254 b 264 517 238 364 264 453 b 143 621 264 583 235 621 b 75 660 103 621 75 622 z m 29 396 b 78 347 29 368 50 347 b 126 396 106 347 126 368 b 78 444 126 425 106 444 b 29 396 50 444 29 425 z "},"יִ":{"ha":299,"x_min":null,"x_max":null,"o":"m 68 660 l 28 663 l 15 547 b 82 500 11 508 31 500 l 100 500 b 185 443 161 500 185 482 b 114 239 185 400 156 332 l 204 254 b 257 517 231 364 257 453 b 136 621 257 583 228 621 b 68 660 96 621 68 622 z m 97 -149 b 146 -197 97 -176 118 -197 b 194 -149 174 -197 194 -176 b 146 -100 194 -119 174 -100 b 97 -149 118 -100 97 -119 z "},"ךּ":{"ha":528,"x_min":null,"x_max":null,"o":"m 25 663 l 13 547 b 79 500 8 508 28 500 l 289 500 b 368 410 357 500 369 488 l 361 -222 l 454 -207 l 424 454 l 436 572 b 371 621 442 621 421 621 l 129 621 b 65 660 83 621 65 631 z m 149 317 b 197 268 149 289 169 268 b 246 317 225 268 246 289 b 197 365 246 346 225 365 b 149 317 169 365 149 346 z "},"כּ":{"ha":581,"x_min":null,"x_max":null,"o":"m 69 663 l 57 547 b 124 500 53 508 72 500 l 272 500 b 454 303 415 500 454 414 b 415 115 454 238 439 168 l 143 115 b 53 89 65 115 58 115 l 32 -4 l 68 -11 b 113 0 79 0 83 0 l 439 0 b 522 338 492 133 522 215 b 304 621 522 489 483 621 l 174 621 b 110 660 128 621 110 631 z m 208 317 b 257 268 208 289 229 268 b 306 317 285 268 306 289 b 257 365 306 346 285 365 b 208 317 229 365 208 346 z "},"כֿ":{"ha":581,"x_min":null,"x_max":null,"o":"m 69 663 l 57 547 b 124 500 53 508 72 500 l 272 500 b 454 303 415 500 454 414 b 415 115 454 238 439 168 l 143 115 b 53 89 65 115 58 115 l 32 -4 l 68 -11 b 113 0 79 0 83 0 l 439 0 b 522 338 492 133 522 215 b 304 621 522 489 483 621 l 174 621 b 110 660 128 621 110 631 z m 408 778 l 135 778 l 129 722 l 403 722 z "},"לּ":{"ha":550,"x_min":null,"x_max":null,"o":"m 47 840 l 24 550 b 88 500 21 511 36 500 l 307 500 b 418 401 369 500 418 478 b 381 243 418 328 399 271 b 192 133 338 208 296 189 b 171 101 178 126 174 113 l 147 -4 l 181 -11 b 224 29 190 1 197 13 b 404 143 307 82 371 110 b 482 478 454 193 482 365 b 332 621 482 575 433 621 l 131 621 b 89 660 90 621 89 631 b 96 792 89 694 92 751 b 140 846 100 824 104 844 l 157 961 l 108 961 b 44 1000 63 961 44 971 l 4 1003 l -8 888 b 47 840 -12 849 8 840 z m 178 331 b 226 282 178 303 199 282 b 275 331 254 282 275 303 b 226 379 275 360 254 379 b 178 331 199 379 178 360 z "},"מּ":{"ha":714,"x_min":null,"x_max":null,"o":"m 79 660 l 39 663 l 26 547 b 104 500 22 508 42 500 b 151 442 135 500 151 490 b 54 -14 151 365 92 113 l 144 1 b 197 322 156 125 176 233 b 421 500 225 439 322 500 b 574 269 549 500 574 390 b 560 115 574 218 568 164 l 353 115 b 263 89 275 115 268 115 l 242 -4 l 278 -11 b 322 0 289 0 293 0 l 608 0 b 642 313 622 69 642 194 b 476 621 642 471 613 621 l 344 621 b 221 461 310 567 268 514 b 226 521 224 483 226 503 b 129 621 226 585 203 621 b 79 660 97 621 79 631 z m 340 310 b 389 261 340 282 361 261 b 438 310 417 261 438 282 b 389 358 438 339 417 358 b 340 310 361 358 340 339 z "},"נּ":{"ha":389,"x_min":null,"x_max":null,"o":"m 129 660 l 89 663 l 76 547 b 153 500 72 508 92 500 b 244 372 213 500 244 490 l 244 115 l 125 115 b 35 89 47 115 40 115 l 14 -4 l 50 -11 b 94 0 61 0 65 0 l 308 0 l 322 106 b 301 476 306 226 301 353 b 183 621 301 578 275 621 b 129 660 144 621 129 631 z m 83 317 b 132 268 83 289 104 268 b 181 317 160 268 181 289 b 132 365 181 346 160 365 b 83 317 104 365 83 346 z "},"סּ":{"ha":671,"x_min":null,"x_max":null,"o":"m 111 660 l 71 663 l 58 547 b 125 500 54 508 74 500 l 161 500 b 89 307 121 417 89 333 b 203 -17 89 278 110 186 b 483 67 293 -1 408 28 b 610 389 558 104 610 275 b 433 621 610 504 563 621 l 175 621 b 111 660 129 621 111 631 z m 214 500 l 417 500 b 547 347 475 500 547 460 b 482 181 547 290 521 217 b 244 110 444 157 310 119 b 167 332 199 192 167 278 b 214 500 167 381 186 436 z m 300 324 b 349 275 300 296 321 275 b 397 324 376 275 397 296 b 349 372 397 353 376 372 b 300 324 321 372 300 353 z "},"ףּ":{"ha":550,"x_min":null,"x_max":null,"o":"m 56 672 l 43 564 b 97 508 39 526 54 517 b 58 344 72 433 58 371 b 221 258 58 283 106 271 l 236 372 b 133 428 151 383 133 389 b 147 501 133 446 136 468 b 331 475 211 492 261 485 b 407 342 397 465 407 415 l 407 301 l 401 -222 l 494 -207 l 469 350 b 390 589 464 464 468 579 b 158 624 286 601 231 610 b 96 669 113 632 97 643 z m 267 306 b 315 257 267 278 288 257 b 364 306 343 257 364 278 b 315 354 364 335 343 354 b 267 306 288 354 267 335 z "},"פּ":{"ha":618,"x_min":null,"x_max":null,"o":"m 97 672 l 85 564 b 139 508 81 526 96 517 b 100 344 114 433 100 371 b 263 258 100 283 147 271 l 278 372 b 175 428 193 383 175 389 b 189 501 175 446 178 468 b 385 474 253 492 315 483 b 489 285 463 463 489 375 b 457 115 489 217 474 149 l 147 115 b 57 89 69 115 63 115 l 36 -4 l 72 -11 b 117 0 83 0 88 0 l 503 0 b 551 306 531 65 551 189 b 447 588 551 447 522 578 b 200 624 340 600 272 610 b 138 669 154 632 139 643 z m 321 306 b 369 257 321 278 342 257 b 418 306 397 257 418 278 b 369 354 418 335 397 354 b 321 306 342 354 321 335 z "},"פֿ":{"ha":618,"x_min":null,"x_max":null,"o":"m 97 672 l 85 564 b 139 508 81 526 96 517 b 100 344 114 433 100 371 b 263 258 100 283 147 271 l 278 372 b 175 428 193 383 175 389 b 189 501 175 446 178 468 b 385 474 253 492 315 483 b 489 285 463 463 489 375 b 457 115 489 217 474 149 l 147 115 b 57 89 69 115 63 115 l 36 -4 l 72 -11 b 117 0 83 0 88 0 l 503 0 b 551 306 531 65 551 189 b 447 588 551 447 522 578 b 200 624 340 600 272 610 b 138 669 154 632 139 643 z m 446 778 l 172 778 l 167 722 l 440 722 z "},"צּ":{"ha":610,"x_min":null,"x_max":null,"o":"m 485 0 l 500 108 b 379 240 458 143 417 192 b 579 507 486 482 510 500 l 596 621 l 486 621 b 426 660 444 621 426 631 l 386 663 l 374 551 b 440 500 369 508 392 500 l 443 500 l 346 283 b 242 461 286 365 242 440 l 254 572 b 189 621 260 621 239 621 l 147 621 b 83 660 101 621 83 631 l 43 663 l 31 547 b 97 500 26 508 46 500 b 160 486 131 500 147 499 b 194 425 171 475 181 457 b 369 115 219 369 261 276 l 139 115 b 49 89 61 115 54 115 l 28 -4 l 64 -11 b 108 0 75 0 79 0 z m 119 228 b 168 179 119 200 140 179 b 217 228 196 179 217 200 b 168 276 217 257 196 276 b 119 228 140 276 119 257 z "},"קּ":{"ha":632,"x_min":null,"x_max":null,"o":"m 171 621 b 107 660 125 621 107 631 l 67 663 l 54 547 b 121 500 50 508 69 500 l 333 500 b 497 376 446 500 497 474 b 469 246 497 328 490 282 b 286 126 444 222 404 196 b 265 94 272 118 268 106 l 243 -4 l 276 -11 b 321 25 286 1 294 8 b 506 160 461 113 485 125 b 556 454 539 214 556 329 b 363 621 556 569 506 621 z m 144 340 l 93 317 b 68 -222 88 139 79 -40 l 161 -207 l 158 336 z m 257 324 b 306 275 257 296 278 275 b 354 324 333 275 354 296 b 306 372 354 353 333 372 b 257 324 278 372 257 353 z "},"רּ":{"ha":572,"x_min":null,"x_max":null,"o":"m 132 621 b 68 660 86 621 68 631 l 28 663 l 15 547 b 82 500 11 508 31 500 l 258 500 b 422 333 360 500 426 478 l 413 -14 l 503 1 b 479 428 488 175 479 357 b 283 621 479 571 431 621 z m 182 317 b 231 268 182 289 203 268 b 279 317 258 268 279 289 b 231 365 279 346 258 365 b 182 317 203 365 182 346 z "},"שׁ":{"ha":817,"x_min":null,"x_max":null,"o":"m 556 68 b 776 574 643 106 776 428 b 707 621 776 615 757 621 l 696 621 b 632 660 650 621 632 631 l 592 663 l 579 547 b 646 500 575 508 594 500 b 694 451 683 500 694 488 b 551 183 694 406 636 235 b 299 114 511 163 386 129 b 490 506 408 483 417 499 l 507 621 l 424 621 b 360 660 378 621 360 631 l 319 663 l 307 551 b 363 500 303 511 321 501 l 247 128 b 168 356 207 206 168 306 b 215 504 168 418 183 479 l 232 621 l 151 621 b 88 660 106 621 88 631 l 47 663 l 35 547 b 101 500 31 508 50 500 l 146 500 b 99 328 124 436 99 354 b 217 -17 99 299 121 183 b 556 68 328 -1 467 29 z m 643 769 b 690 721 643 742 663 721 b 739 769 719 721 739 742 b 690 818 739 797 719 818 b 643 769 663 818 643 797 z "},"שׂ":{"ha":817,"x_min":null,"x_max":null,"o":"m 556 68 b 776 574 643 106 776 428 b 707 621 776 615 757 621 l 696 621 b 632 660 650 621 632 631 l 592 663 l 579 547 b 646 500 575 508 594 500 b 694 451 683 500 694 488 b 551 183 694 406 636 235 b 299 114 511 163 386 129 b 490 506 408 483 417 499 l 507 621 l 424 621 b 360 660 378 621 360 631 l 319 663 l 307 551 b 363 500 303 511 321 501 l 247 128 b 168 356 207 206 168 306 b 215 504 168 418 183 479 l 232 621 l 151 621 b 88 660 106 621 88 631 l 47 663 l 35 547 b 101 500 31 508 50 500 l 146 500 b 99 328 124 436 99 354 b 217 -17 99 299 121 183 b 556 68 328 -1 467 29 z m 94 769 b 142 721 94 742 114 721 b 190 769 171 721 190 742 b 142 818 190 797 171 818 b 94 769 114 818 94 797 z "},"שּ":{"ha":817,"x_min":null,"x_max":null,"o":"m 556 68 b 776 574 643 106 776 428 b 707 621 776 615 757 621 l 696 621 b 632 660 650 621 632 631 l 592 663 l 579 547 b 646 500 575 508 594 500 b 694 451 683 500 694 488 b 551 183 694 406 636 235 b 299 114 511 163 386 129 b 490 506 408 483 417 499 l 507 621 l 424 621 b 360 660 378 621 360 631 l 319 663 l 307 551 b 363 500 303 511 321 501 l 247 128 b 168 356 207 206 168 306 b 215 504 168 418 183 479 l 232 621 l 151 621 b 88 660 106 621 88 631 l 47 663 l 35 547 b 101 500 31 508 50 500 l 146 500 b 99 328 124 436 99 354 b 217 -17 99 299 121 183 b 556 68 328 -1 467 29 z m 451 324 b 500 275 451 296 472 275 b 549 324 528 275 549 296 b 500 372 549 353 528 372 b 451 324 472 372 451 353 z "},"שּׁ":{"ha":817,"x_min":null,"x_max":null,"o":"m 556 68 b 776 574 643 106 776 428 b 707 621 776 615 757 621 l 696 621 b 632 660 650 621 632 631 l 592 663 l 579 547 b 646 500 575 508 594 500 b 694 451 683 500 694 488 b 551 183 694 406 636 235 b 299 114 511 163 386 129 b 490 506 408 483 417 499 l 507 621 l 424 621 b 360 660 378 621 360 631 l 319 663 l 307 551 b 363 500 303 511 321 501 l 247 128 b 168 356 207 206 168 306 b 215 504 168 418 183 479 l 232 621 l 151 621 b 88 660 106 621 88 631 l 47 663 l 35 547 b 101 500 31 508 50 500 l 146 500 b 99 328 124 436 99 354 b 217 -17 99 299 121 183 b 556 68 328 -1 467 29 z m 643 769 b 690 721 643 742 663 721 b 739 769 719 721 739 742 b 690 818 739 797 719 818 b 643 769 663 818 643 797 z m 451 324 b 500 275 451 296 472 275 b 549 324 528 275 549 296 b 500 372 549 353 528 372 b 451 324 472 372 451 353 z "},"שּׂ":{"ha":817,"x_min":null,"x_max":null,"o":"m 556 68 b 776 574 643 106 776 428 b 707 621 776 615 757 621 l 696 621 b 632 660 650 621 632 631 l 592 663 l 579 547 b 646 500 575 508 594 500 b 694 451 683 500 694 488 b 551 183 694 406 636 235 b 299 114 511 163 386 129 b 490 506 408 483 417 499 l 507 621 l 424 621 b 360 660 378 621 360 631 l 319 663 l 307 551 b 363 500 303 511 321 501 l 247 128 b 168 356 207 206 168 306 b 215 504 168 418 183 479 l 232 621 l 151 621 b 88 660 106 621 88 631 l 47 663 l 35 547 b 101 500 31 508 50 500 l 146 500 b 99 328 124 436 99 354 b 217 -17 99 299 121 183 b 556 68 328 -1 467 29 z m 94 769 b 142 721 94 742 114 721 b 190 769 171 721 190 742 b 142 818 190 797 171 818 b 94 769 114 818 94 797 z m 451 324 b 500 275 451 296 472 275 b 549 324 528 275 549 296 b 500 372 549 353 528 372 b 451 324 472 372 451 353 z "},"תּ":{"ha":704,"x_min":null,"x_max":null,"o":"m 201 621 b 138 660 156 621 138 631 l 97 663 l 85 547 b 151 500 81 508 100 500 l 188 500 b 115 307 119 347 115 321 b 172 115 115 293 122 250 l 146 115 b 56 89 68 115 61 115 l 35 -4 l 71 -11 b 115 0 82 0 86 0 l 249 0 l 264 111 b 193 332 193 274 193 314 b 240 500 193 351 193 388 l 419 500 b 556 358 514 500 560 476 l 544 -14 l 635 1 b 613 446 621 163 613 310 b 438 621 613 564 583 621 z m 328 317 b 376 268 328 289 349 268 b 425 317 404 268 425 289 b 376 365 425 346 404 365 b 328 317 349 365 328 346 z "},"װ":{"ha":649,"x_min":null,"x_max":null,"o":"m 68 660 l 28 663 l 15 547 b 93 500 11 508 31 500 b 188 372 158 500 190 490 l 176 -14 l 267 1 b 244 465 253 181 244 310 b 118 621 244 578 222 621 b 68 660 86 621 68 631 z m 383 660 l 343 663 l 331 547 b 408 500 326 508 346 500 b 503 372 474 500 506 490 l 492 -14 l 582 1 b 560 465 568 181 560 310 b 433 621 560 578 538 621 b 383 660 401 621 383 631 z "},"ױ":{"ha":632,"x_min":null,"x_max":null,"o":"m 68 660 l 28 663 l 15 547 b 82 500 11 508 31 500 l 100 500 b 185 443 161 500 185 482 b 114 239 185 400 156 332 l 204 254 b 257 517 231 364 257 453 b 136 621 257 583 228 621 b 68 660 96 621 68 622 z m 367 660 l 326 663 l 314 547 b 392 500 310 508 329 500 b 486 372 457 500 489 490 l 475 -14 l 565 1 b 543 465 551 181 543 310 b 417 621 543 578 521 621 b 367 660 385 621 367 631 z "},"ײ":{"ha":597,"x_min":null,"x_max":null,"o":"m 68 660 l 28 663 l 15 547 b 82 500 11 508 31 500 l 100 500 b 185 443 161 500 185 482 b 114 239 185 400 156 332 l 204 254 b 257 517 231 364 257 453 b 136 621 257 583 228 621 b 68 660 96 621 68 622 z m 367 660 l 326 663 l 314 547 b 381 500 310 508 329 500 l 399 500 b 483 443 460 500 483 482 b 413 239 483 400 454 332 l 503 254 b 556 517 529 364 556 453 b 435 621 556 583 526 621 b 367 660 394 621 367 622 z "},"ײַ":{"ha":597,"x_min":null,"x_max":null,"o":"m 542 172 l 40 172 l 36 117 l 538 117 z m 68 660 l 28 663 l 15 547 b 82 500 11 508 31 500 l 100 500 b 185 443 161 500 185 482 b 114 239 185 400 156 332 l 204 254 b 257 517 231 364 257 453 b 136 621 257 583 228 621 b 68 660 96 621 68 622 z m 367 660 l 326 663 l 314 547 b 381 500 310 508 329 500 l 399 500 b 483 443 460 500 483 482 b 413 239 483 400 454 332 l 503 254 b 556 517 529 364 556 453 b 435 621 556 583 526 621 b 367 660 394 621 367 622 z "},"ﭏ":{"ha":650,"x_min":null,"x_max":null,"o":"m 561 -11 l 581 115 b 399 307 521 182 461 244 b 585 504 474 468 499 503 l 601 621 l 482 621 b 418 660 436 621 418 631 l 378 663 l 365 551 b 432 500 361 508 383 500 l 435 500 l 358 344 b 160 536 294 408 232 468 b 89 674 104 588 89 611 b 96 792 89 703 92 740 b 140 846 99 824 104 844 l 157 961 l 108 961 b 44 1000 63 961 44 971 l 4 1003 l -8 888 b 47 840 -12 849 8 840 l 24 543 b 108 411 19 492 31 481 b 532 -14 192 336 401 128 z "},"ְ":{"ha":0,"x_min":null,"x_max":null,"o":"m -49 -299 b 0 -347 -49 -326 -28 -347 b 49 -299 28 -347 49 -326 b 0 -250 49 -269 28 -250 b -49 -299 -28 -250 -49 -269 z m -49 -149 b 0 -197 -49 -176 -28 -197 b 49 -149 28 -197 49 -176 b 0 -100 49 -119 28 -100 b -49 -149 -28 -100 -49 -119 z "},"ֱ":{"ha":0,"x_min":null,"x_max":null,"o":"m 115 -299 b 163 -347 115 -326 135 -347 b 211 -299 190 -347 211 -326 b 163 -250 211 -269 190 -250 b 115 -299 135 -250 115 -269 z m 115 -149 b 163 -197 115 -176 135 -197 b 211 -149 190 -197 211 -176 b 163 -100 211 -119 190 -100 b 115 -149 135 -100 115 -119 z m 51 -149 b 1 -100 51 -119 31 -100 b -47 -149 -26 -100 -47 -119 b 1 -197 -47 -176 -26 -197 b 51 -149 31 -197 51 -176 z m -32 -299 b -79 -250 -32 -269 -51 -250 b -128 -299 -107 -250 -128 -269 b -79 -347 -128 -326 -107 -347 b -32 -299 -51 -347 -32 -326 z m -114 -149 b -162 -100 -114 -119 -135 -100 b -210 -149 -190 -100 -210 -119 b -162 -197 -210 -176 -190 -197 b -114 -149 -135 -197 -114 -176 z "},"ֲ":{"ha":0,"x_min":null,"x_max":null,"o":"m 94 -299 b 143 -347 94 -326 115 -347 b 190 -299 171 -347 190 -326 b 143 -250 190 -269 171 -250 b 94 -299 115 -250 94 -269 z m 94 -149 b 143 -197 94 -176 115 -197 b 190 -149 171 -197 190 -176 b 143 -100 190 -119 171 -100 b 94 -149 115 -100 94 -119 z m 31 -112 l -190 -112 l -194 -168 l 26 -168 z "},"ֳ":{"ha":0,"x_min":null,"x_max":null,"o":"m 89 -299 b 138 -347 89 -326 110 -347 b 186 -299 165 -347 186 -326 b 138 -250 186 -269 165 -250 b 89 -299 110 -250 89 -269 z m 89 -149 b 138 -197 89 -176 110 -197 b 186 -149 165 -197 186 -176 b 138 -100 186 -119 165 -100 b 89 -149 110 -100 89 -119 z m 22 -168 l 26 -112 l -194 -112 l -199 -168 l -103 -168 l -126 -347 l -46 -336 l -69 -168 z "},"ִ":{"ha":0,"x_min":null,"x_max":null,"o":"m -49 -149 b 0 -197 -49 -176 -28 -197 b 49 -149 28 -197 49 -176 b 0 -100 49 -119 28 -100 b -49 -149 -28 -100 -49 -119 z "},"ֵ":{"ha":0,"x_min":null,"x_max":null,"o":"m 75 -197 b 124 -149 103 -197 124 -176 b 75 -100 124 -119 103 -100 b 26 -149 47 -100 26 -119 b 75 -197 26 -176 47 -197 z m -75 -197 b -26 -149 -47 -197 -26 -176 b -75 -100 -26 -119 -47 -100 b -124 -149 -103 -100 -124 -119 b -75 -197 -124 -176 -103 -197 z "},"ֶ":{"ha":0,"x_min":null,"x_max":null,"o":"m 131 -149 b 82 -100 131 -119 110 -100 b 33 -149 54 -100 33 -119 b 82 -197 33 -176 54 -197 b 131 -149 110 -197 131 -176 z m 49 -293 b 0 -244 49 -265 28 -244 b -49 -293 -28 -244 -49 -265 b 0 -340 -49 -321 -28 -340 b 49 -293 28 -340 49 -321 z m -33 -149 b -82 -100 -33 -119 -54 -100 b -131 -149 -110 -100 -131 -119 b -82 -197 -131 -176 -110 -197 b -33 -149 -54 -197 -33 -176 z "},"ַ":{"ha":0,"x_min":null,"x_max":null,"o":"m 121 -112 l -117 -112 l -121 -168 l 117 -168 z "},"ָ":{"ha":0,"x_min":null,"x_max":null,"o":"m 117 -168 l 121 -112 l -117 -112 l -121 -168 l -17 -168 l -40 -347 l 40 -336 l 17 -168 z "},"ׇ":{"ha":0,"x_min":null,"x_max":null,"o":"m 117 -168 l 121 -112 l -117 -112 l -121 -168 l -17 -168 l -47 -417 l 47 -404 l 17 -168 z "},"ֹ":{"ha":0,"x_min":null,"x_max":null,"o":"m -49 769 b 0 721 -49 742 -28 721 b 49 769 28 721 49 742 b 0 818 49 797 28 818 b -49 769 -28 818 -49 797 z "},"ֺ":{"ha":0,"x_min":null,"x_max":null,"o":"m -49 769 b 0 721 -49 742 -28 721 b 49 769 28 721 49 742 b 0 818 49 797 28 818 b -49 769 -28 818 -49 797 z "},"ֻ":{"ha":0,"x_min":null,"x_max":null,"o":"m -161 -144 b -114 -190 -161 -172 -142 -190 b -67 -144 -89 -190 -67 -172 b -114 -97 -67 -118 -89 -97 b -161 -144 -142 -97 -161 -118 z m 67 -303 b 114 -349 67 -331 86 -349 b 161 -303 139 -349 161 -331 b 114 -256 161 -276 139 -256 b 67 -303 86 -256 67 -276 z m -47 -224 b 0 -269 -47 -249 -28 -269 b 47 -224 28 -269 47 -249 b 0 -176 47 -196 28 -176 b -47 -224 -28 -176 -47 -196 z "},"ֽ":{"ha":0,"x_min":null,"x_max":null,"o":"m -28 -337 l 28 -343 l 28 -108 l -28 -103 z "},"ּ":{"ha":0,"x_min":null,"x_max":null,"o":"m -49 317 b 0 268 -49 289 -28 268 b 49 317 28 268 49 289 b 0 365 49 346 28 365 b -49 317 -28 365 -49 346 z "},"ֿ":{"ha":0,"x_min":null,"x_max":null,"o":"m 140 778 l -133 778 l -139 722 l 135 722 z "},"ׁ":{"ha":0,"x_min":null,"x_max":null,"o":"m 235 769 b 282 721 235 742 254 721 b 331 769 311 721 331 742 b 282 818 331 797 311 818 b 235 769 254 818 235 797 z "},"ׂ":{"ha":0,"x_min":null,"x_max":null,"o":"m -314 769 b -267 721 -314 742 -294 721 b -218 769 -237 721 -218 742 b -267 818 -218 797 -237 818 b -314 769 -294 818 -314 797 z "},"־":{"ha":375,"x_min":null,"x_max":null,"o":"m 317 500 l 333 621 l 17 621 l 0 500 z "},"ﬞ":{"ha":0,"x_min":null,"x_max":null,"o":"m -158 821 l -178 804 b 0 707 -139 740 -71 707 b 178 804 69 707 139 740 l 158 821 b 0 761 121 781 65 761 b -158 821 -65 761 -122 781 z "},"׃":{"ha":326,"x_min":null,"x_max":null,"o":"m 164 581 b 83 497 117 581 83 546 b 164 413 83 449 117 413 b 246 497 211 413 246 449 b 165 581 246 546 211 581 z m 165 -17 b 247 68 213 -17 247 17 b 165 151 247 114 213 151 b 83 68 118 151 83 114 b 164 -17 83 17 118 -17 z "},"׀":{"ha":303,"x_min":null,"x_max":null,"o":"m 178 739 l 111 732 l 111 -118 l 178 -111 z "},"׳":{"ha":261,"x_min":null,"x_max":null,"o":"m 219 650 l 211 664 b 99 647 196 667 110 654 l 42 424 l 79 413 z "},"״":{"ha":428,"x_min":null,"x_max":null,"o":"m 213 650 l 204 664 b 92 647 189 667 103 654 l 35 424 l 72 413 z m 393 650 l 385 664 b 272 647 369 667 283 654 l 215 424 l 253 413 z "},"̇":{"ha":0,"x_min":null,"x_max":null,"o":"m -346 775 b -278 706 -346 738 -317 706 b -207 775 -235 706 -207 738 b -278 842 -207 813 -235 842 b -346 775 -317 842 -346 813 z "},"̈":{"ha":0,"x_min":null,"x_max":null,"o":"m -458 771 b -396 706 -458 736 -435 706 b -332 771 -357 706 -332 736 b -396 836 -332 808 -357 836 b -458 771 -435 836 -458 808 z m -224 771 b -160 706 -224 736 -199 706 b -96 771 -121 706 -96 736 b -160 836 -96 808 -121 836 b -224 771 -199 836 -224 808 z "},"﬩":{"ha":818,"x_min":null,"x_max":null,"o":"m 747 322 l 747 394 l 453 394 l 453 686 l 368 686 l 368 394 l 74 394 l 74 322 z "},"₪":{"ha":697,"x_min":null,"x_max":null,"o":"m 81 621 b 63 458 75 581 64 518 l 50 -14 l 140 1 b 118 500 129 197 118 422 l 308 500 b 403 372 374 500 406 490 l 400 235 l 468 246 b 463 465 464 331 463 392 b 336 621 463 578 440 621 z m 508 0 b 635 147 607 0 632 35 l 649 635 l 558 619 b 576 211 567 476 576 317 b 483 121 576 138 549 121 l 294 121 l 300 386 l 231 375 b 236 121 235 290 236 229 l 236 0 z "},"◌":{"ha":733,"x_min":null,"x_max":null,"o":"m 50 311 b 90 269 50 283 63 269 b 133 311 118 269 133 283 b 90 353 133 339 118 353 b 50 311 63 353 50 339 z m 601 311 b 643 269 601 283 615 269 b 685 311 671 269 685 283 b 643 353 685 339 671 353 b 601 311 615 353 601 339 z m 325 588 b 367 544 325 560 339 544 b 410 588 394 544 410 560 b 367 629 410 615 394 629 b 325 588 339 629 325 615 z m 325 35 b 367 -7 325 7 339 -7 b 410 35 394 -7 410 7 b 367 78 410 63 394 78 b 325 35 339 78 325 63 z m 565 450 b 608 407 565 422 581 407 b 650 450 636 407 650 422 b 608 492 650 478 636 492 b 565 450 581 492 565 478 z m 565 172 b 608 131 565 144 581 131 b 650 172 636 131 650 144 b 608 215 650 200 636 215 b 565 172 581 215 565 200 z m 85 450 b 125 407 85 422 97 407 b 169 450 154 407 169 422 b 125 492 169 478 154 492 b 85 450 97 492 85 478 z m 85 172 b 125 131 85 144 97 131 b 169 172 154 131 169 144 b 125 215 169 200 154 215 b 85 172 97 215 85 200 z m 188 553 b 228 510 188 525 200 510 b 272 553 257 510 272 525 b 228 594 272 581 257 594 b 188 553 200 594 188 581 z m 463 553 b 506 510 463 525 478 510 b 547 553 533 510 547 525 b 506 594 547 581 533 594 b 463 553 478 594 463 581 z m 188 69 b 228 28 188 42 200 28 b 272 69 257 28 272 42 b 228 113 272 97 257 113 b 188 69 200 113 188 97 z m 463 69 b 506 28 463 42 478 28 b 547 69 533 28 547 42 b 506 113 547 97 533 113 b 463 69 478 113 463 97 z "},"‌":{"ha":0,"x_min":null,"x_max":null,"o":"m -96 1192 l -24 1119 l -96 1047 l -74 1024 l 0 1096 l 72 1025 l 94 1047 l 22 1119 l 94 1192 l 72 1214 l 0 1142 l -74 1215 z "},"‍":{"ha":0,"x_min":null,"x_max":null,"o":"m 139 1040 l 139 1136 l -137 1136 l -137 1040 l -106 1040 l -106 1104 l 107 1104 l 107 1040 z "},"‎":{"ha":0,"x_min":null,"x_max":null,"o":"m 71 1136 l -104 1136 l -104 1104 l 71 1104 l 14 1047 l 36 1024 l 132 1119 l 36 1215 l 14 1192 z "},"‏":{"ha":0,"x_min":null,"x_max":null,"o":"m -69 1104 l 106 1104 l 106 1136 l -71 1136 l -14 1193 l -36 1215 l -132 1119 l -36 1025 l -14 1047 z "},"‪":{"ha":0,"x_min":null,"x_max":null,"o":"m -39 1136 l -118 1136 l -118 1104 l -39 1104 z m 1 1104 l 71 1104 l 14 1047 l 36 1024 l 132 1119 l 36 1215 l 14 1192 l 71 1136 l 1 1136 z "},"‫":{"ha":0,"x_min":null,"x_max":null,"o":"m 39 1104 l 118 1104 l 118 1136 l 39 1136 z m -1 1136 l -71 1136 l -14 1193 l -36 1215 l -132 1119 l -36 1025 l -14 1047 l -69 1104 l -1 1104 z "},"‬":{"ha":0,"x_min":null,"x_max":null,"o":"m -17 1163 l -17 1022 l 15 1022 l 15 1164 l 72 1107 l 96 1129 l 0 1225 l -96 1129 l -72 1107 z "},"‭":{"ha":0,"x_min":null,"x_max":null,"o":"m 4 1136 l -143 1136 l -143 1104 l 6 1104 l -51 1047 l -29 1024 l 67 1119 l -29 1215 l -51 1192 z m 113 1119 l 39 1047 l 61 1024 l 157 1119 l 61 1215 l 39 1192 z "},"‮":{"ha":0,"x_min":null,"x_max":null,"o":"m -4 1103 l 144 1103 l 144 1135 l -4 1135 l 53 1192 l 29 1215 l -65 1119 l 29 1024 l 53 1047 z m -111 1119 l -39 1192 l -61 1215 l -157 1119 l -61 1024 l -39 1047 z "}," ":{"ha":694,"x_min":null,"x_max":null,"o":""}," ":{"ha":1389,"x_min":null,"x_max":null,"o":""}," ":{"ha":139,"x_min":null,"x_max":null,"o":""}," ":{"ha":28,"x_min":null,"x_max":null,"o":""},",":{"ha":326,"x_min":null,"x_max":null,"o":"m 133 188 b 64 126 99 188 64 164 b 82 90 64 103 75 92 b 172 -6 132 79 172 44 b 61 -125 172 -60 132 -97 l 76 -168 b 268 31 168 -140 268 -81 b 135 188 268 131 188 188 z "},";":{"ha":326,"x_min":null,"x_max":null,"o":"m 164 581 b 82 497 115 581 82 546 b 164 413 82 449 115 413 b 246 497 210 413 246 449 b 165 581 246 546 210 581 z m 135 188 b 65 126 100 188 65 164 b 83 90 65 103 76 92 b 174 -6 132 79 174 46 b 64 -125 174 -60 132 -97 l 78 -169 b 269 32 168 -143 269 -81 b 136 188 269 131 189 188 z "},":":{"ha":326,"x_min":null,"x_max":null,"o":"m 164 581 b 83 497 117 581 83 546 b 164 413 83 449 117 413 b 246 497 211 413 246 449 b 165 581 246 546 211 581 z m 165 -17 b 247 68 213 -17 247 17 b 165 151 247 114 213 151 b 83 68 118 151 83 114 b 164 -17 83 17 118 -17 z "},".":{"ha":326,"x_min":null,"x_max":null,"o":"m 164 -17 b 246 68 211 -17 246 17 b 164 151 246 114 211 151 b 82 68 117 151 82 114 b 163 -17 82 17 117 -17 z "},"…":{"ha":1385,"x_min":null,"x_max":null,"o":"m 229 -17 b 311 68 278 -17 311 17 b 229 151 311 115 278 151 b 149 68 182 151 149 115 b 228 -17 149 17 182 -17 z m 693 -17 b 776 68 742 -17 776 17 b 693 151 776 115 742 151 b 614 68 647 151 614 115 b 692 -17 614 17 647 -17 z m 1153 -17 b 1235 68 1200 -17 1235 17 b 1153 151 1235 115 1200 151 b 1071 68 1106 151 1071 115 b 1151 -17 1071 17 1106 -17 z "},"!":{"ha":394,"x_min":null,"x_max":null,"o":"m 194 939 b 115 896 140 939 115 926 b 126 783 115 872 119 840 b 171 282 147 622 157 460 b 219 282 176 271 213 271 b 265 783 233 460 246 622 b 275 896 272 840 275 872 b 196 939 275 926 251 939 z m 196 -17 b 279 69 246 -17 279 17 b 196 154 279 117 246 154 b 114 69 150 154 114 117 b 194 -17 114 17 150 -17 z "},"¡":{"ha":394,"x_min":null,"x_max":null,"o":"m 197 633 b 114 547 149 633 114 599 b 197 463 114 499 149 463 b 279 547 244 463 279 499 b 199 633 279 599 244 633 z m 199 -321 b 278 -278 253 -321 278 -308 b 267 -168 278 -254 274 -222 b 224 336 247 -6 239 158 b 172 336 218 347 181 347 b 128 -168 160 158 149 -6 b 118 -278 121 -222 118 -254 b 197 -321 118 -308 143 -321 z "},"?":{"ha":542,"x_min":null,"x_max":null,"o":"m 314 307 b 250 418 272 344 250 374 b 407 583 250 485 363 547 b 476 711 458 625 476 661 b 247 939 476 828 365 939 l 246 939 b 111 885 219 939 156 924 b 81 832 90 867 81 853 b 143 767 81 796 121 767 b 308 846 160 767 217 846 b 390 771 360 846 390 818 b 249 618 390 715 303 657 b 126 458 157 550 126 507 b 288 275 126 371 231 294 z m 264 -17 b 344 68 310 -17 344 17 b 264 153 344 114 310 153 b 183 68 217 153 183 114 b 263 -17 183 17 217 -17 z "},"¿":{"ha":542,"x_min":null,"x_max":null,"o":"m 274 633 b 193 551 226 633 193 599 b 274 468 193 503 226 468 b 354 551 318 468 354 503 b 275 633 354 599 318 633 z m 228 310 b 292 201 269 275 292 247 b 133 32 292 135 181 71 b 65 -94 83 -7 65 -44 b 294 -321 65 -211 176 -321 l 296 -321 b 431 -267 321 -321 385 -304 b 461 -214 451 -249 461 -233 b 399 -149 461 -178 419 -149 b 233 -226 382 -149 324 -226 b 153 -154 182 -226 153 -201 b 293 0 153 -97 238 -39 b 414 161 383 67 414 110 b 254 344 414 247 308 324 z "},"‘":{"ha":321,"x_min":null,"x_max":null,"o":"m 247 1011 b 58 822 156 986 58 925 b 194 676 58 732 132 676 l 196 676 b 260 733 221 676 260 694 b 240 764 260 751 249 763 b 150 853 192 771 150 803 b 263 972 150 910 192 943 z "},"’":{"ha":319,"x_min":null,"x_max":null,"o":"m 124 1003 b 63 946 99 1003 63 983 b 81 915 63 926 72 917 b 171 826 129 907 171 876 b 60 707 171 769 128 736 l 74 668 b 261 856 165 690 261 754 b 125 1003 261 947 186 1003 z "},"“":{"ha":572,"x_min":null,"x_max":null,"o":"m 249 1011 b 58 824 156 986 58 925 b 194 678 58 732 132 678 l 196 678 b 258 733 221 678 258 694 b 240 764 258 751 249 763 b 150 853 190 772 150 804 b 263 972 150 911 192 943 z m 500 1011 b 311 824 408 986 311 925 b 449 678 311 732 386 678 l 450 678 b 511 733 475 678 511 694 b 493 764 511 751 501 763 b 401 853 444 772 401 804 b 514 972 401 911 444 943 z "},"”":{"ha":578,"x_min":null,"x_max":null,"o":"m 122 1003 b 61 946 97 1003 61 982 b 79 915 61 926 71 917 b 171 826 128 907 171 875 b 58 704 171 768 128 735 l 72 665 b 263 854 165 689 263 753 b 124 1003 263 947 186 1003 z m 381 1003 b 318 946 356 1003 318 982 b 338 915 318 926 326 917 b 428 826 385 907 428 875 b 314 704 428 768 385 735 l 328 665 b 519 854 419 689 519 753 b 382 1003 519 947 444 1003 z "},"‚":{"ha":343,"x_min":null,"x_max":null,"o":"m 133 179 b 71 122 108 179 71 161 b 89 90 71 103 81 92 b 185 0 139 83 185 51 b 69 -122 185 -58 139 -92 l 82 -165 b 278 29 178 -140 278 -78 b 135 179 278 122 199 179 z "},"„":{"ha":618,"x_min":null,"x_max":null,"o":"m 403 181 b 339 122 376 181 339 161 b 357 92 339 103 349 93 b 454 0 408 83 454 51 b 336 -122 454 -58 408 -93 l 350 -165 b 547 29 446 -140 547 -78 b 404 181 547 124 467 181 z m 135 181 b 71 122 108 181 71 161 b 89 92 71 103 81 93 b 185 0 139 83 185 51 b 68 -122 185 -58 139 -93 l 82 -165 b 279 29 178 -140 279 -78 b 136 181 279 124 199 181 z "},"‹":{"ha":396,"x_min":null,"x_max":null,"o":"m 326 75 l 196 311 l 326 551 l 294 572 b 69 311 207 461 119 364 b 294 53 119 264 207 164 z "},"›":{"ha":396,"x_min":null,"x_max":null,"o":"m 69 551 l 201 313 l 69 75 l 103 54 b 326 313 190 165 278 264 b 103 572 278 363 190 463 z "},"«":{"ha":632,"x_min":null,"x_max":null,"o":"m 328 75 l 197 311 l 328 551 l 296 572 b 71 311 207 461 121 364 b 296 53 121 264 207 164 z m 565 75 l 435 311 l 565 551 l 533 572 b 307 311 444 461 357 364 b 533 53 357 264 443 164 z "},"»":{"ha":635,"x_min":null,"x_max":null,"o":"m 71 551 l 201 313 l 71 75 l 103 54 b 328 313 192 165 279 264 b 103 572 279 363 192 463 z m 306 551 l 438 313 l 306 75 l 339 54 b 564 313 428 165 513 264 b 339 572 513 363 428 463 z "},"(":{"ha":493,"x_min":null,"x_max":null,"o":"m 431 -206 b 207 382 289 -89 207 139 b 431 968 207 625 288 849 l 401 1001 b 101 383 194 861 101 636 l 101 382 b 401 -239 101 126 194 -100 z "},")":{"ha":493,"x_min":null,"x_max":null,"o":"m 392 382 b 90 1001 392 636 301 858 l 64 968 b 286 382 203 853 286 625 b 64 -206 286 139 207 -86 l 90 -239 b 392 381 301 -96 392 126 z "},"{":{"ha":494,"x_min":null,"x_max":null,"o":"m 418 -196 b 299 -60 311 -182 299 -125 b 317 214 299 26 317 121 b 199 379 317 292 283 360 l 199 385 b 317 547 285 403 317 471 b 299 828 317 639 299 738 b 418 958 299 888 313 946 l 418 1001 b 210 813 333 1001 210 981 b 219 525 210 724 219 619 b 90 401 219 475 215 411 l 90 361 b 219 239 215 353 219 286 b 210 -56 219 149 210 44 b 418 -237 210 -219 333 -237 z "},"}":{"ha":494,"x_min":null,"x_max":null,"o":"m 406 401 b 276 531 279 410 276 478 b 286 818 276 615 286 717 b 76 1001 286 982 167 1000 l 76 960 b 197 829 179 946 197 892 b 179 547 197 739 179 639 b 299 385 179 471 213 404 l 299 379 b 179 213 211 358 179 290 b 197 -64 179 122 197 24 b 76 -196 197 -126 179 -182 l 76 -237 b 286 -57 165 -237 286 -214 b 276 232 286 46 276 149 b 406 360 276 285 281 351 z "},"[":{"ha":492,"x_min":null,"x_max":null,"o":"m 414 -228 l 414 -189 b 260 -60 263 -176 260 -169 l 260 822 b 414 951 260 932 264 939 l 414 993 l 171 993 l 171 -228 z "},"]":{"ha":492,"x_min":null,"x_max":null,"o":"m 322 -228 l 322 993 l 79 993 l 79 951 b 233 822 229 939 233 932 l 233 -58 b 79 -189 233 -168 229 -175 l 79 -228 z "},"|":{"ha":376,"x_min":null,"x_max":null,"o":"m 236 -353 l 236 1057 l 140 1057 l 140 -353 z "},"/":{"ha":472,"x_min":null,"x_max":null,"o":"m 428 939 l 346 939 l 35 -62 l 117 -62 z "},"-":{"ha":507,"x_min":null,"x_max":null,"o":"m 429 358 l 100 358 l 79 278 l 408 278 z "},"–":{"ha":733,"x_min":null,"x_max":null,"o":"m 663 282 l 663 357 l 71 357 l 71 282 z "},"—":{"ha":1303,"x_min":null,"x_max":null,"o":"m 1232 282 l 1232 357 l 71 357 l 71 282 z "},"•":{"ha":556,"x_min":null,"x_max":null,"o":"m 279 497 b 92 307 175 497 92 413 b 279 117 92 200 175 117 b 464 307 381 117 464 200 b 281 497 464 413 381 497 z "},"·":{"ha":325,"x_min":null,"x_max":null,"o":"m 163 243 b 247 328 210 243 247 278 b 163 413 247 376 210 413 b 81 328 115 413 81 376 b 161 243 81 278 115 243 z "},"*":{"ha":572,"x_min":null,"x_max":null,"o":"m 518 693 l 518 731 l 326 733 l 367 931 l 332 939 l 249 751 l 76 865 l 56 836 l 203 690 l 58 558 l 79 526 l 253 635 l 351 450 l 385 464 l 331 658 z "},"†":{"ha":700,"x_min":null,"x_max":null,"o":"m 383 -135 b 379 21 379 -85 379 -42 b 426 397 379 196 400 342 b 376 572 392 464 378 510 b 556 528 461 569 511 556 b 632 594 581 536 617 567 b 556 661 617 622 581 653 b 376 617 511 633 461 621 b 432 817 379 711 390 746 b 350 904 413 851 382 886 b 268 817 319 886 288 851 b 324 617 308 746 319 711 b 144 661 239 621 188 633 b 68 594 118 653 83 622 b 144 528 83 565 118 536 b 324 572 188 556 239 569 b 276 397 321 510 311 464 b 318 21 300 342 317 196 b 317 -135 319 -42 319 -85 z "},"‡":{"ha":696,"x_min":null,"x_max":null,"o":"m 633 181 b 560 247 618 208 585 239 b 376 201 513 218 464 204 l 375 207 b 432 400 375 310 390 365 b 375 593 389 440 378 496 b 560 547 464 590 513 575 b 633 615 585 556 619 586 b 557 681 619 642 586 671 b 375 636 513 653 464 639 b 433 818 379 710 392 746 b 351 904 413 853 381 888 b 269 818 321 888 288 853 b 326 636 308 746 321 710 b 143 681 239 639 189 653 b 68 615 117 671 85 642 b 143 547 85 586 117 556 b 326 593 189 575 239 590 b 271 400 322 496 313 440 b 326 201 313 365 322 307 b 143 247 239 204 189 218 b 68 181 117 239 85 208 b 143 113 85 153 117 121 b 326 160 189 140 239 157 b 269 -44 321 63 310 24 b 353 -132 289 -82 321 -117 b 433 -44 381 -117 413 -81 b 375 160 392 24 379 63 b 560 113 464 157 513 140 b 633 181 585 121 618 153 z "},"§":{"ha":678,"x_min":null,"x_max":null,"o":"m 607 288 b 472 528 607 392 546 467 b 315 661 422 571 363 621 b 264 757 275 697 264 729 b 353 831 264 786 290 831 b 461 792 403 831 447 804 b 489 792 472 782 483 789 b 515 840 497 800 514 819 b 499 874 515 853 511 861 b 403 907 479 889 440 907 b 189 767 314 885 260 843 b 76 522 128 700 78 617 b 178 306 76 436 119 361 b 318 167 218 265 278 206 b 413 22 392 99 414 63 b 315 -61 411 -35 364 -61 b 204 -19 261 -61 215 -28 b 174 -25 194 -15 183 -18 b 144 -72 163 -33 144 -56 b 171 -114 144 -86 153 -100 b 269 -146 199 -135 247 -146 b 467 -14 344 -124 401 -85 b 607 286 532 57 606 167 z m 149 585 b 199 718 149 633 168 676 l 203 718 b 261 576 199 663 226 610 b 418 433 289 549 372 474 b 533 224 506 357 533 286 b 478 65 533 165 511 113 l 476 67 b 449 178 479 104 465 151 b 272 358 429 207 379 261 b 149 582 183 443 149 507 z "},"¶":{"ha":708,"x_min":null,"x_max":null,"o":"m 665 751 l 660 768 l 378 768 b 165 679 310 768 225 735 b 69 451 110 628 69 546 b 303 167 69 272 222 167 b 328 171 315 167 322 168 l 422 210 l 422 3 b 314 -219 422 -183 368 -219 b 222 -187 283 -219 254 -208 b 196 -189 213 -181 204 -182 b 168 -226 185 -196 171 -212 b 182 -271 163 -243 167 -257 b 276 -303 199 -287 233 -303 b 400 -232 289 -303 357 -276 b 497 29 468 -162 497 -86 l 497 697 l 624 713 z "},"A":{"ha":993,"x_min":null,"x_max":null,"o":"m 967 0 l 967 40 b 810 186 874 50 854 64 b 533 939 718 433 624 693 l 486 926 l 190 188 b 28 40 139 64 119 54 l 28 0 l 342 0 l 342 40 b 253 154 232 51 221 67 b 313 333 271 211 290 268 l 618 333 b 693 119 649 249 675 175 b 610 40 713 65 700 53 l 610 0 z m 596 393 l 338 393 b 469 749 379 508 422 631 l 472 749 z "},"B":{"ha":846,"x_min":null,"x_max":null,"o":"m 536 497 b 732 708 618 521 732 574 b 651 869 732 774 701 836 b 435 918 606 901 543 918 l 63 918 l 63 876 b 182 742 176 868 182 860 l 182 176 b 51 40 182 58 174 50 l 51 0 l 372 0 b 654 57 485 0 582 17 b 789 271 739 103 789 176 b 536 494 789 411 679 474 z m 308 511 l 308 786 b 326 856 308 832 314 847 b 406 871 340 864 371 871 b 593 690 538 871 593 789 b 374 511 593 572 529 511 z m 308 464 l 371 464 b 643 257 544 464 643 399 b 428 50 643 108 540 51 b 308 179 336 50 308 76 z "},"C":{"ha":960,"x_min":null,"x_max":null,"o":"m 889 253 b 590 31 815 110 738 31 b 214 475 372 31 214 211 b 581 886 214 688 342 886 b 863 674 735 886 825 826 l 906 683 b 875 900 897 761 888 821 b 619 939 836 907 738 939 b 63 447 294 939 63 743 b 581 -21 63 222 221 -21 b 849 17 685 -21 808 8 b 931 238 874 64 911 171 z "},"D":{"ha":1060,"x_min":null,"x_max":null,"o":"m 60 918 l 60 876 b 182 740 169 868 182 861 l 182 178 b 46 39 182 57 169 49 l 46 0 l 393 0 b 819 117 568 0 713 36 b 997 493 929 199 997 325 b 875 796 997 626 946 729 b 469 918 786 881 651 918 z m 310 769 b 328 851 310 825 314 842 b 442 869 343 861 379 869 b 686 808 539 869 622 850 b 850 472 794 742 850 619 b 461 53 850 249 725 53 b 310 188 357 53 310 79 z "},"E":{"ha":814,"x_min":null,"x_max":null,"o":"m 742 231 b 669 97 721 175 693 126 b 490 50 638 61 596 50 b 344 68 422 50 372 51 b 310 182 318 85 310 115 l 310 446 l 443 446 b 596 336 567 446 576 438 l 638 336 l 638 608 l 596 608 b 442 503 578 514 569 503 l 310 503 l 310 822 b 358 867 310 864 313 867 l 464 867 b 624 828 565 867 603 857 b 671 707 643 796 657 764 l 714 713 b 700 918 708 786 701 882 l 61 918 l 61 876 b 182 736 171 868 182 863 l 182 178 b 40 40 182 63 171 51 l 40 0 l 735 0 b 783 225 747 44 775 176 z "},"F":{"ha":758,"x_min":null,"x_max":null,"o":"m 708 708 b 693 918 701 776 694 867 l 61 918 l 61 876 b 182 738 171 868 182 861 l 182 181 b 57 40 182 58 171 50 l 57 0 l 451 0 l 451 40 b 310 181 321 50 310 58 l 310 433 l 454 433 b 608 318 583 433 592 415 l 651 318 l 651 593 l 608 593 b 454 489 590 501 583 489 l 310 489 l 310 822 b 357 867 310 864 314 867 l 463 867 b 625 817 569 867 600 856 b 665 701 644 786 653 758 z "},"G":{"ha":1032,"x_min":null,"x_max":null,"o":"m 999 428 l 629 428 l 629 386 b 779 264 771 376 779 367 l 779 146 b 735 54 779 89 763 71 b 610 29 703 38 658 29 b 215 469 338 29 215 265 b 592 888 215 729 375 888 b 874 665 731 888 840 838 l 917 674 b 894 899 906 769 899 849 b 614 939 846 908 735 939 b 63 453 331 939 63 778 b 593 -21 63 172 275 -21 b 918 31 710 -21 829 11 b 908 164 910 69 908 114 l 908 283 b 999 386 908 368 914 375 z "},"H":{"ha":1104,"x_min":null,"x_max":null,"o":"m 1050 918 l 671 918 l 671 876 b 794 742 782 868 794 860 l 794 515 l 310 515 l 310 742 b 432 876 310 860 322 868 l 432 918 l 54 918 l 54 876 b 183 742 171 868 183 860 l 183 176 b 58 40 183 57 171 50 l 58 0 l 439 0 l 439 40 b 310 176 322 50 310 58 l 310 456 l 794 456 l 794 176 b 661 40 794 57 782 50 l 661 0 l 1050 0 l 1050 40 b 922 176 933 50 922 57 l 922 742 b 1050 876 922 860 933 868 z "},"I":{"ha":492,"x_min":null,"x_max":null,"o":"m 438 0 l 438 40 b 310 178 321 50 310 57 l 310 739 b 438 876 310 860 321 868 l 438 918 l 54 918 l 54 876 b 182 739 171 868 182 860 l 182 178 b 54 40 182 58 171 50 l 54 0 z "},"J":{"ha":475,"x_min":null,"x_max":null,"o":"m 439 918 l 63 918 l 63 876 b 189 739 178 868 189 858 l 189 264 b 175 -7 189 147 188 64 b 38 -190 158 -89 117 -153 l 57 -232 b 190 -150 93 -219 143 -194 b 317 221 289 -61 317 40 l 317 739 b 439 876 317 858 328 868 z "},"K":{"ha":968,"x_min":null,"x_max":null,"o":"m 960 0 l 960 40 b 786 143 892 50 861 64 b 453 529 713 222 560 396 b 701 772 546 622 644 721 b 935 876 792 853 828 867 l 935 918 l 589 918 l 589 876 l 621 874 b 644 801 685 865 686 850 b 408 554 582 725 489 631 b 307 488 368 515 340 494 l 307 733 b 432 876 307 858 321 868 l 432 918 l 57 918 l 57 876 b 182 733 169 868 182 860 l 182 183 b 63 40 182 60 169 50 l 63 0 l 439 0 l 439 40 b 307 183 321 50 307 60 l 307 450 b 385 408 332 454 351 449 b 733 0 511 258 628 121 z "},"L":{"ha":769,"x_min":null,"x_max":null,"o":"m 711 232 b 636 93 688 167 661 121 b 478 50 603 58 554 50 b 343 68 418 50 371 53 b 310 185 317 82 310 110 l 310 740 b 436 876 310 863 322 869 l 436 918 l 57 918 l 57 876 b 182 740 172 868 182 861 l 182 181 b 51 40 182 60 171 50 l 51 0 l 700 0 b 753 225 715 43 744 179 z "},"M":{"ha":1275,"x_min":null,"x_max":null,"o":"m 1232 0 l 1232 40 b 1101 210 1110 53 1106 60 l 1088 719 b 1217 876 1083 861 1093 865 l 1217 918 l 969 918 l 643 218 l 319 918 l 81 918 l 81 876 b 204 674 210 864 218 857 l 185 385 b 157 125 174 238 165 175 b 36 40 147 68 118 51 l 36 0 l 369 0 l 369 40 b 239 128 275 51 242 61 b 243 361 238 183 238 246 l 264 760 l 267 760 l 585 8 l 615 8 l 961 779 l 967 779 l 971 208 b 853 40 972 60 968 53 l 853 0 z "},"N":{"ha":1067,"x_min":null,"x_max":null,"o":"m 1033 918 l 694 918 l 694 876 b 836 789 794 871 829 853 b 846 554 840 749 846 685 l 846 215 l 842 215 l 244 918 l 28 918 l 28 876 b 156 825 94 871 125 860 b 183 681 181 792 183 783 l 183 374 b 175 132 183 244 179 178 b 50 40 167 64 131 44 l 50 0 l 389 0 l 389 40 b 251 136 290 46 260 65 b 243 374 247 178 243 244 l 243 724 l 246 724 l 860 -14 l 906 -14 l 906 554 b 914 792 906 685 910 749 b 1033 876 921 856 954 872 z "},"O":{"ha":1079,"x_min":null,"x_max":null,"o":"m 550 939 b 63 450 247 939 63 703 b 533 -21 63 178 271 -21 b 1018 471 797 -21 1018 167 b 551 939 1018 753 796 939 z m 522 886 b 865 433 708 886 865 729 b 564 31 865 161 722 31 b 214 488 363 31 214 225 b 521 886 214 753 363 886 z "},"P":{"ha":810,"x_min":null,"x_max":null,"o":"m 65 918 l 65 876 b 182 739 171 869 182 864 l 182 178 b 57 39 182 61 171 50 l 57 0 l 450 0 l 450 39 b 308 176 321 50 308 57 l 308 396 l 414 368 b 479 369 431 367 457 367 b 757 660 619 386 757 475 b 664 860 757 751 721 818 b 425 918 607 901 526 918 z m 308 789 b 324 854 308 829 313 846 b 401 871 333 864 363 871 b 614 654 515 871 614 808 b 410 426 614 474 500 426 b 308 443 365 426 326 436 z "},"Q":{"ha":1076,"x_min":null,"x_max":null,"o":"m 1040 -196 b 690 3 907 -136 778 -57 b 1018 467 860 56 1018 218 b 556 939 1018 751 800 939 b 63 444 246 939 63 707 b 211 103 63 304 124 183 b 510 -19 301 15 429 -15 b 842 -207 685 -144 797 -196 b 1029 -226 885 -219 958 -229 z m 503 35 b 214 482 338 71 214 244 b 521 886 214 749 361 886 b 865 426 717 886 865 719 b 643 40 865 199 754 74 b 603 68 631 50 618 60 z "},"R":{"ha":892,"x_min":null,"x_max":null,"o":"m 906 25 b 804 92 874 35 842 51 b 689 240 769 126 742 165 b 563 444 647 303 588 397 b 744 683 667 489 744 563 b 649 869 744 769 707 833 b 418 918 594 906 526 918 l 60 918 l 60 876 b 182 742 171 868 182 861 l 182 178 b 54 40 182 60 169 50 l 54 0 l 435 0 l 435 40 b 307 178 319 50 307 60 l 307 400 l 350 400 b 472 343 422 400 447 383 b 614 118 514 275 564 188 b 849 -10 678 26 738 -4 b 900 -11 865 -11 882 -11 z m 307 447 l 307 794 b 322 856 307 833 311 849 b 399 869 333 864 358 869 b 604 663 504 869 604 814 b 528 488 604 585 582 531 b 372 447 492 458 444 447 z "},"S":{"ha":681,"x_min":null,"x_max":null,"o":"m 588 710 b 563 906 576 800 568 856 b 381 939 510 922 449 939 b 85 685 196 939 85 824 b 321 407 85 528 224 457 b 504 197 429 350 504 300 b 338 29 504 96 443 29 b 101 264 190 29 124 175 l 60 253 b 97 29 68 183 88 60 b 169 1 111 22 132 13 b 310 -21 204 -10 251 -21 b 629 249 501 -21 629 99 b 382 531 629 404 499 471 b 201 736 268 588 201 636 b 358 889 201 814 251 889 b 546 700 481 889 521 789 z "},"T":{"ha":888,"x_min":null,"x_max":null,"o":"m 851 699 b 838 953 844 782 838 888 l 808 953 b 735 918 785 926 772 918 l 165 918 b 86 953 124 918 107 919 l 57 953 b 39 694 54 875 46 782 l 82 694 b 128 824 99 758 111 800 b 296 867 149 854 176 867 l 382 867 l 382 175 b 242 40 382 64 369 50 l 242 0 l 656 0 l 656 40 b 508 175 522 50 508 65 l 508 867 l 607 867 b 763 824 715 867 739 856 b 810 694 779 801 794 764 z "},"U":{"ha":1054,"x_min":null,"x_max":null,"o":"m 1028 918 l 686 918 l 686 876 b 825 797 786 869 818 851 b 836 568 832 754 836 694 l 836 460 b 567 60 836 225 768 60 b 299 417 392 60 299 188 l 299 732 b 421 876 299 861 310 869 l 421 918 l 46 918 l 46 876 b 171 732 158 867 171 861 l 171 388 b 297 50 171 219 211 114 b 529 -19 361 0 444 -19 b 786 79 625 -19 721 10 b 896 453 869 165 896 288 l 896 567 b 904 793 896 694 900 754 b 1028 876 910 851 943 871 z "},"V":{"ha":1010,"x_min":null,"x_max":null,"o":"m 986 918 l 664 918 l 664 876 b 760 768 779 863 788 850 b 538 183 715 632 613 367 l 535 183 b 299 792 443 415 338 690 b 382 876 276 854 281 865 l 382 918 l 25 918 l 25 876 b 176 750 111 868 133 856 b 472 -15 257 549 376 243 l 519 -15 b 815 725 628 276 775 632 b 986 876 869 853 889 865 z "},"W":{"ha":1392,"x_min":null,"x_max":null,"o":"m 1371 918 l 1054 918 l 1054 876 b 1153 763 1167 864 1171 847 b 993 204 1131 667 1053 393 l 990 204 b 740 906 903 446 821 674 l 694 906 b 467 206 624 675 542 442 l 464 206 b 290 779 401 401 346 590 b 376 876 269 851 272 864 l 376 918 l 22 918 l 22 876 b 168 736 108 865 131 853 b 401 -15 246 486 325 240 l 450 -15 b 681 682 522 211 601 438 l 683 682 b 932 -15 757 481 853 210 l 979 -15 b 1217 735 1099 379 1185 643 b 1371 876 1258 851 1274 864 z "},"X":{"ha":943,"x_min":null,"x_max":null,"o":"m 946 0 l 946 40 b 747 169 846 51 813 72 b 521 519 678 275 599 396 b 694 768 615 658 663 728 b 894 876 758 850 788 865 l 894 918 l 564 918 l 564 876 b 631 789 658 865 665 851 b 490 564 593 722 550 654 b 331 818 428 660 375 740 b 394 876 308 853 308 865 l 394 918 l 36 918 l 36 876 b 219 757 138 865 160 849 b 413 456 272 676 339 574 b 178 121 290 269 214 167 b 10 40 136 69 90 50 l 10 0 l 340 0 l 340 40 b 272 126 244 53 238 67 b 444 408 315 207 375 303 b 632 111 536 267 597 165 b 561 40 658 65 649 51 l 561 0 z "},"Y":{"ha":911,"x_min":null,"x_max":null,"o":"m 892 918 l 574 918 l 574 876 b 657 785 683 865 688 853 b 489 467 618 699 540 560 b 299 800 428 574 358 689 b 371 876 272 846 268 864 l 371 918 l 22 918 l 22 876 b 182 757 107 869 124 853 b 361 447 261 624 311 532 b 389 363 383 404 389 392 l 389 179 b 251 39 389 58 378 49 l 251 0 l 660 0 l 660 39 b 518 179 529 49 518 60 l 518 368 b 542 458 518 406 522 421 b 721 764 610 585 657 664 b 892 876 775 850 793 865 z "},"Z":{"ha":868,"x_min":null,"x_max":null,"o":"m 808 253 b 729 104 782 182 758 135 b 457 53 689 63 632 53 b 226 61 358 53 274 56 b 817 899 422 347 619 621 l 807 918 l 228 918 b 153 953 186 918 171 919 l 118 953 b 101 690 115 889 108 782 l 144 689 b 193 814 161 751 176 788 b 396 865 218 851 242 865 l 642 865 b 40 21 443 578 243 301 l 54 0 l 800 0 b 851 244 815 57 840 190 z "},"À":{"ha":993,"x_min":null,"x_max":null,"o":"m 585 1003 b 358 1150 511 1051 435 1101 b 296 1065 340 1143 300 1089 l 297 1054 l 567 965 z m 967 0 l 967 40 b 810 186 874 50 854 64 b 533 939 718 433 624 693 l 486 926 l 190 188 b 28 40 139 64 119 54 l 28 0 l 342 0 l 342 40 b 253 154 232 51 221 67 b 313 333 271 211 290 268 l 618 333 b 693 119 649 249 675 175 b 610 40 713 65 700 53 l 610 0 z m 596 393 l 338 393 b 469 749 379 508 422 631 l 472 749 z "},"Á":{"ha":993,"x_min":null,"x_max":null,"o":"m 725 1067 b 663 1149 721 1089 681 1144 b 438 1001 594 1106 513 1050 l 456 965 l 722 1056 z m 967 0 l 967 40 b 810 186 874 50 854 64 b 533 939 718 433 624 693 l 486 926 l 190 188 b 28 40 139 64 119 54 l 28 0 l 342 0 l 342 40 b 253 154 232 51 221 67 b 313 333 271 211 290 268 l 618 333 b 693 119 649 249 675 175 b 610 40 713 65 700 53 l 610 0 z m 596 393 l 338 393 b 469 749 379 508 422 631 l 472 749 z "},"Â":{"ha":993,"x_min":null,"x_max":null,"o":"m 708 1001 b 531 1154 647 1049 585 1097 l 497 1154 b 318 1001 443 1099 379 1049 l 342 965 b 513 1053 397 990 457 1024 b 686 965 569 1022 629 990 z m 967 0 l 967 40 b 810 186 874 50 854 64 b 533 939 718 433 624 693 l 486 926 l 190 188 b 28 40 139 64 119 54 l 28 0 l 342 0 l 342 40 b 253 154 232 51 221 67 b 313 333 271 211 290 268 l 618 333 b 693 119 649 249 675 175 b 610 40 713 65 700 53 l 610 0 z m 596 393 l 338 393 b 469 749 379 508 422 631 l 472 749 z "},"Ã":{"ha":993,"x_min":null,"x_max":null,"o":"m 439 1114 b 322 997 401 1114 358 1088 l 358 971 b 426 1035 378 1013 399 1035 b 489 1015 450 1035 467 1025 b 588 983 528 997 557 983 b 707 1107 628 983 675 1010 l 671 1125 b 604 1064 651 1086 633 1064 b 526 1089 579 1064 557 1072 b 440 1114 483 1108 465 1114 z m 967 0 l 967 40 b 810 186 874 50 854 64 b 533 939 718 433 624 693 l 486 926 l 190 188 b 28 40 139 64 119 54 l 28 0 l 342 0 l 342 40 b 253 154 232 51 221 67 b 313 333 271 211 290 268 l 618 333 b 693 119 649 249 675 175 b 610 40 713 65 700 53 l 610 0 z m 596 393 l 338 393 b 469 749 379 508 422 631 l 472 749 z "},"Ä":{"ha":993,"x_min":null,"x_max":null,"o":"m 644 1126 b 574 1053 606 1126 574 1096 b 644 982 574 1015 606 982 b 715 1053 685 982 715 1015 b 646 1126 715 1096 685 1126 z m 371 1125 b 300 1053 333 1125 300 1094 b 371 982 300 1015 333 982 b 442 1053 411 982 442 1015 b 372 1125 442 1094 411 1125 z m 967 0 l 967 40 b 810 186 874 50 854 64 b 533 939 718 433 624 693 l 486 926 l 190 188 b 28 40 139 64 119 54 l 28 0 l 342 0 l 342 40 b 253 154 232 51 221 67 b 313 333 271 211 290 268 l 618 333 b 693 119 649 249 675 175 b 610 40 713 65 700 53 l 610 0 z m 596 393 l 338 393 b 469 749 379 508 422 631 l 472 749 z "},"Å":{"ha":993,"x_min":null,"x_max":null,"o":"m 508 1210 b 383 1092 446 1210 383 1164 b 508 969 383 1017 446 969 b 636 1092 572 969 636 1017 b 510 1210 636 1164 572 1210 z m 510 1164 b 571 1092 547 1164 571 1133 b 510 1014 571 1047 547 1014 b 447 1092 472 1014 447 1047 b 508 1164 447 1133 472 1164 z m 967 0 l 967 40 b 810 186 874 50 854 64 b 533 939 718 433 624 693 l 486 926 l 190 188 b 28 40 139 64 119 54 l 28 0 l 342 0 l 342 40 b 253 154 232 51 221 67 b 313 333 271 211 290 268 l 618 333 b 693 119 649 249 675 175 b 610 40 713 65 700 53 l 610 0 z m 596 393 l 338 393 b 469 749 379 508 422 631 l 472 749 z "},"Æ":{"ha":1243,"x_min":null,"x_max":null,"o":"m 1172 238 b 1101 99 1149 168 1124 125 b 921 51 1068 63 1018 51 b 776 68 856 51 806 53 b 742 186 750 83 742 113 l 742 417 l 865 417 b 1024 304 994 417 1006 407 l 1067 304 l 1067 583 l 1024 583 b 865 474 1006 486 996 474 l 742 474 l 742 822 b 789 867 742 863 746 867 l 904 867 b 1053 826 1001 867 1031 856 b 1100 710 1072 801 1086 767 l 1143 715 b 1129 918 1136 788 1129 882 l 390 918 l 390 878 l 450 871 b 494 792 522 861 525 850 b 154 161 393 601 271 364 b -15 39 100 65 76 53 l -15 0 l 313 0 l 313 39 b 231 147 203 54 199 74 b 365 418 269 229 304 301 l 618 418 l 618 192 b 483 40 618 65 606 50 l 483 0 l 1163 0 b 1214 226 1176 43 1206 181 z m 618 475 l 392 475 b 578 833 472 635 522 728 b 618 858 597 857 607 858 z "},"Ç":{"ha":956,"x_min":null,"x_max":null,"o":"m 886 256 b 586 33 811 108 736 33 b 219 475 361 33 219 219 b 575 885 219 708 357 885 b 857 671 735 885 814 828 l 901 679 b 871 901 892 760 883 822 b 614 939 832 910 738 939 b 65 444 292 939 65 736 b 551 -19 65 228 211 -8 l 511 -72 b 529 -161 486 -106 494 -126 b 561 -214 543 -175 561 -192 b 474 -299 560 -243 532 -274 l 492 -339 b 656 -194 593 -307 656 -251 b 601 -97 656 -162 640 -135 b 593 -36 579 -74 575 -61 l 608 -19 b 850 17 703 -17 814 8 b 929 240 874 64 908 167 z "},"È":{"ha":814,"x_min":null,"x_max":null,"o":"m 499 1003 b 272 1150 428 1051 350 1101 b 210 1065 254 1143 215 1089 l 213 1054 l 481 965 z m 742 231 b 669 97 721 175 693 126 b 490 50 638 61 596 50 b 344 68 422 50 372 51 b 310 182 318 85 310 115 l 310 446 l 443 446 b 596 336 567 446 576 438 l 638 336 l 638 608 l 596 608 b 442 503 578 514 569 503 l 310 503 l 310 822 b 358 867 310 864 313 867 l 464 867 b 624 828 565 867 603 857 b 671 707 643 796 657 764 l 714 713 b 700 918 708 786 701 882 l 61 918 l 61 876 b 182 736 171 868 182 863 l 182 178 b 40 40 182 63 171 51 l 40 0 l 735 0 b 783 225 747 44 775 176 z "},"É":{"ha":814,"x_min":null,"x_max":null,"o":"m 618 1067 b 557 1149 614 1089 574 1144 b 332 1001 489 1106 407 1050 l 349 965 l 615 1056 z m 742 231 b 669 97 721 175 693 126 b 490 50 638 61 596 50 b 344 68 422 50 372 51 b 310 182 318 85 310 115 l 310 446 l 443 446 b 596 336 567 446 576 438 l 638 336 l 638 608 l 596 608 b 442 503 578 514 569 503 l 310 503 l 310 822 b 358 867 310 864 313 867 l 464 867 b 624 828 565 867 603 857 b 671 707 643 796 657 764 l 714 713 b 700 918 708 786 701 882 l 61 918 l 61 876 b 182 736 171 868 182 863 l 182 178 b 40 40 182 63 171 51 l 40 0 l 735 0 b 783 225 747 44 775 176 z "},"Ê":{"ha":814,"x_min":null,"x_max":null,"o":"m 606 1001 b 428 1154 546 1049 483 1097 l 396 1154 b 217 1001 342 1099 278 1049 l 240 965 b 411 1053 296 990 356 1024 b 583 965 468 1022 528 990 z m 742 231 b 669 97 721 175 693 126 b 490 50 638 61 596 50 b 344 68 422 50 372 51 b 310 182 318 85 310 115 l 310 446 l 443 446 b 596 336 567 446 576 438 l 638 336 l 638 608 l 596 608 b 442 503 578 514 569 503 l 310 503 l 310 822 b 358 867 310 864 313 867 l 464 867 b 624 828 565 867 603 857 b 671 707 643 796 657 764 l 714 713 b 700 918 708 786 701 882 l 61 918 l 61 876 b 182 736 171 868 182 863 l 182 178 b 40 40 182 63 171 51 l 40 0 l 735 0 b 783 225 747 44 775 176 z "},"Ë":{"ha":814,"x_min":null,"x_max":null,"o":"m 553 1131 b 482 1057 514 1131 482 1100 b 553 986 482 1019 514 986 b 624 1057 592 986 624 1019 b 554 1131 624 1100 592 1131 z m 279 1129 b 208 1057 242 1129 208 1099 b 279 986 208 1019 242 986 b 350 1057 318 986 350 1019 b 281 1129 350 1099 318 1129 z m 742 231 b 669 97 721 175 693 126 b 490 50 638 61 596 50 b 344 68 422 50 372 51 b 310 182 318 85 310 115 l 310 446 l 443 446 b 596 336 567 446 576 438 l 638 336 l 638 608 l 596 608 b 442 503 578 514 569 503 l 310 503 l 310 822 b 358 867 310 864 313 867 l 464 867 b 624 828 565 867 603 857 b 671 707 643 796 657 764 l 714 713 b 700 918 708 786 701 882 l 61 918 l 61 876 b 182 736 171 868 182 863 l 182 178 b 40 40 182 63 171 51 l 40 0 l 735 0 b 783 225 747 44 775 176 z "},"Ì":{"ha":492,"x_min":null,"x_max":null,"o":"m 340 1003 b 111 1150 267 1051 189 1101 b 50 1065 93 1143 56 1089 l 53 1054 l 321 965 z m 438 0 l 438 40 b 310 178 321 50 310 57 l 310 739 b 438 876 310 860 321 868 l 438 918 l 54 918 l 54 876 b 182 739 171 868 182 860 l 182 178 b 54 40 182 58 171 50 l 54 0 z "},"Í":{"ha":492,"x_min":null,"x_max":null,"o":"m 450 1067 b 389 1149 446 1089 406 1144 b 164 1001 321 1106 240 1050 l 181 965 l 447 1056 z m 438 0 l 438 40 b 310 178 321 50 310 57 l 310 739 b 438 876 310 860 321 868 l 438 918 l 54 918 l 54 876 b 182 739 171 868 182 860 l 182 178 b 54 40 182 58 171 50 l 54 0 z "},"Î":{"ha":492,"x_min":null,"x_max":null,"o":"m 442 1001 b 263 1154 379 1049 317 1097 l 229 1154 b 51 1001 176 1099 111 1049 l 74 965 b 246 1053 129 990 189 1024 b 418 965 301 1022 363 990 z m 438 0 l 438 40 b 310 178 321 50 310 57 l 310 739 b 438 876 310 860 321 868 l 438 918 l 54 918 l 54 876 b 182 739 171 868 182 860 l 182 178 b 54 40 182 58 171 50 l 54 0 z "},"Ï":{"ha":492,"x_min":null,"x_max":null,"o":"m 383 1126 b 313 1054 346 1126 313 1096 b 383 983 313 1017 346 983 b 454 1054 422 983 454 1017 b 385 1126 454 1096 422 1126 z m 108 1126 b 39 1053 72 1126 39 1096 b 108 982 39 1015 72 982 b 181 1053 150 982 181 1015 b 110 1126 181 1096 150 1126 z m 438 0 l 438 40 b 310 178 321 50 310 57 l 310 739 b 438 876 310 860 321 868 l 438 918 l 54 918 l 54 876 b 182 739 171 868 182 860 l 182 178 b 54 40 182 58 171 50 l 54 0 z "},"Ł":{"ha":786,"x_min":null,"x_max":null,"o":"m 725 238 b 653 94 701 171 676 121 b 493 51 621 58 575 51 b 360 68 436 51 386 53 b 326 199 333 82 326 117 l 326 475 l 507 608 l 507 676 l 326 543 l 326 733 b 453 876 326 856 339 868 l 453 918 l 75 918 l 75 876 b 199 733 188 868 199 856 l 199 454 l 58 351 l 58 285 l 199 388 l 199 186 b 65 40 199 63 188 50 l 65 0 l 718 0 b 769 229 732 44 761 186 z "},"Ñ":{"ha":1067,"x_min":null,"x_max":null,"o":"m 467 1114 b 351 997 431 1114 386 1088 l 386 971 b 454 1033 406 1013 428 1033 b 518 1015 478 1033 494 1025 b 617 983 557 997 585 983 b 735 1106 656 983 703 1010 l 699 1125 b 633 1064 681 1086 661 1064 b 554 1088 607 1064 585 1072 b 468 1114 511 1107 493 1114 z m 1033 918 l 694 918 l 694 876 b 836 789 794 871 829 853 b 846 554 840 749 846 685 l 846 215 l 842 215 l 244 918 l 28 918 l 28 876 b 156 825 94 871 125 860 b 183 681 181 792 183 783 l 183 374 b 175 132 183 244 179 178 b 50 40 167 64 131 44 l 50 0 l 389 0 l 389 40 b 251 136 290 46 260 65 b 243 374 247 178 243 244 l 243 724 l 246 724 l 860 -14 l 906 -14 l 906 554 b 914 792 906 685 910 749 b 1033 876 921 856 954 872 z "},"Ò":{"ha":1079,"x_min":null,"x_max":null,"o":"m 642 1015 b 414 1163 568 1063 492 1114 b 353 1078 396 1156 358 1100 l 356 1067 l 624 978 z m 550 939 b 63 450 247 939 63 703 b 533 -21 63 178 271 -21 b 1018 471 797 -21 1018 167 b 551 939 1018 753 796 939 z m 522 886 b 865 433 708 886 865 729 b 564 31 865 161 722 31 b 214 488 363 31 214 225 b 521 886 214 753 363 886 z "},"Ó":{"ha":1079,"x_min":null,"x_max":null,"o":"m 728 1078 b 665 1158 724 1100 683 1156 b 440 1013 597 1115 515 1061 l 458 976 l 725 1065 z m 550 939 b 63 450 247 939 63 703 b 533 -21 63 178 271 -21 b 1018 471 797 -21 1018 167 b 551 939 1018 753 796 939 z m 522 886 b 865 433 708 886 865 729 b 564 31 865 161 722 31 b 214 488 363 31 214 225 b 521 886 214 753 363 886 z "},"Ô":{"ha":1079,"x_min":null,"x_max":null,"o":"m 735 1013 b 556 1165 674 1060 610 1107 l 524 1165 b 344 1013 469 1108 404 1058 l 367 976 b 539 1064 422 1001 482 1033 b 713 976 594 1032 656 1001 z m 550 939 b 63 450 247 939 63 703 b 533 -21 63 178 271 -21 b 1018 471 797 -21 1018 167 b 551 939 1018 753 796 939 z m 522 886 b 865 433 708 886 865 729 b 564 31 865 161 722 31 b 214 488 363 31 214 225 b 521 886 214 753 363 886 z "},"Õ":{"ha":1079,"x_min":null,"x_max":null,"o":"m 468 1126 b 353 1010 432 1126 386 1099 l 386 983 b 456 1046 407 1025 429 1046 b 519 1026 479 1046 496 1038 b 618 997 557 1010 586 997 b 736 1118 657 997 704 1022 l 700 1138 b 635 1076 681 1099 663 1076 b 556 1100 608 1076 586 1086 b 469 1126 513 1119 493 1126 z m 550 939 b 63 450 247 939 63 703 b 533 -21 63 178 271 -21 b 1018 471 797 -21 1018 167 b 551 939 1018 753 796 939 z m 522 886 b 865 433 708 886 865 729 b 564 31 865 161 722 31 b 214 488 363 31 214 225 b 521 886 214 753 363 886 z "},"Ö":{"ha":1079,"x_min":null,"x_max":null,"o":"m 676 1132 b 606 1060 639 1132 606 1101 b 676 990 606 1022 639 990 b 747 1060 717 990 747 1022 b 678 1132 747 1101 717 1132 z m 403 1132 b 333 1060 365 1132 333 1101 b 403 989 333 1022 365 989 b 474 1060 443 989 474 1022 b 404 1132 474 1101 443 1132 z m 550 939 b 63 450 247 939 63 703 b 533 -21 63 178 271 -21 b 1018 471 797 -21 1018 167 b 551 939 1018 753 796 939 z m 522 886 b 865 433 708 886 865 729 b 564 31 865 161 722 31 b 214 488 363 31 214 225 b 521 886 214 753 363 886 z "},"Ø":{"ha":1085,"x_min":null,"x_max":null,"o":"m 917 950 l 874 979 l 801 874 b 564 939 733 917 651 939 b 71 451 260 939 71 703 b 247 79 71 294 143 164 l 169 -31 l 207 -65 l 290 50 b 540 -21 363 4 450 -21 b 1028 472 811 -21 1028 171 b 846 846 1028 631 950 763 z m 314 175 b 219 485 258 250 219 363 b 532 886 219 751 369 886 b 747 796 615 886 689 858 z m 781 754 b 879 432 838 678 879 571 b 564 31 879 208 776 31 b 349 131 482 31 401 65 z "},"Œ":{"ha":1399,"x_min":null,"x_max":null,"o":"m 1325 229 b 1253 96 1304 174 1282 126 b 1075 51 1221 61 1182 51 b 929 69 1008 51 957 51 b 896 190 904 86 896 115 l 896 446 l 1033 446 b 1179 338 1154 446 1160 435 l 1222 338 l 1222 607 l 1179 607 b 1033 504 1161 519 1154 504 l 896 504 l 896 824 b 942 867 896 864 899 867 l 1049 867 b 1208 829 1151 867 1189 857 b 1253 711 1228 803 1239 772 l 1297 717 b 1285 918 1292 788 1285 882 l 885 918 b 750 925 842 918 800 921 b 614 933 701 929 665 933 b 65 447 300 933 65 740 b 583 -15 65 208 228 -15 b 732 -6 629 -15 669 -11 b 879 0 781 -1 822 0 l 1318 0 b 1369 225 1331 49 1360 178 z m 768 154 b 718 56 768 94 754 74 b 600 33 689 40 646 33 b 217 465 322 33 215 247 b 599 882 217 721 360 882 b 740 854 664 882 713 869 b 768 771 761 842 768 821 z "},"Š":{"ha":681,"x_min":null,"x_max":null,"o":"m 531 1174 b 356 1088 472 1150 413 1119 b 182 1174 299 1122 240 1150 l 160 1138 b 340 983 221 1092 283 1043 l 372 983 b 551 1138 429 1042 490 1092 z m 588 710 b 563 906 576 800 568 856 b 381 939 510 922 449 939 b 85 685 196 939 85 824 b 321 407 85 528 224 457 b 504 197 429 350 504 300 b 338 29 504 96 443 29 b 101 264 190 29 124 175 l 60 253 b 97 29 68 183 88 60 b 169 1 111 22 132 13 b 310 -21 204 -10 251 -21 b 629 249 501 -21 629 99 b 382 531 629 404 499 471 b 201 736 268 588 201 636 b 358 889 201 814 251 889 b 546 700 481 889 521 789 z "},"Ù":{"ha":1054,"x_min":null,"x_max":null,"o":"m 631 1003 b 403 1150 557 1051 479 1101 b 342 1065 385 1143 347 1089 l 344 1054 l 613 965 z m 1028 918 l 686 918 l 686 876 b 825 797 786 869 818 851 b 836 568 832 754 836 694 l 836 460 b 567 60 836 225 768 60 b 299 417 392 60 299 188 l 299 732 b 421 876 299 861 310 869 l 421 918 l 46 918 l 46 876 b 171 732 158 867 171 861 l 171 388 b 297 50 171 219 211 114 b 529 -19 361 0 444 -19 b 786 79 625 -19 721 10 b 896 453 869 165 896 288 l 896 567 b 904 793 896 694 900 754 b 1028 876 910 851 943 871 z "},"Ú":{"ha":1054,"x_min":null,"x_max":null,"o":"m 746 1067 b 685 1149 742 1089 701 1144 b 460 1001 618 1106 536 1050 l 476 965 l 743 1056 z m 1028 918 l 686 918 l 686 876 b 825 797 786 869 818 851 b 836 568 832 754 836 694 l 836 460 b 567 60 836 225 768 60 b 299 417 392 60 299 188 l 299 732 b 421 876 299 861 310 869 l 421 918 l 46 918 l 46 876 b 171 732 158 867 171 861 l 171 388 b 297 50 171 219 211 114 b 529 -19 361 0 444 -19 b 786 79 625 -19 721 10 b 896 453 869 165 896 288 l 896 567 b 904 793 896 694 900 754 b 1028 876 910 851 943 871 z "},"Û":{"ha":1054,"x_min":null,"x_max":null,"o":"m 742 1001 b 563 1154 681 1049 618 1097 l 532 1154 b 351 1001 476 1099 411 1049 l 374 965 b 546 1053 431 990 489 1024 b 719 965 603 1022 663 990 z m 1028 918 l 686 918 l 686 876 b 825 797 786 869 818 851 b 836 568 832 754 836 694 l 836 460 b 567 60 836 225 768 60 b 299 417 392 60 299 188 l 299 732 b 421 876 299 861 310 869 l 421 918 l 46 918 l 46 876 b 171 732 158 867 171 861 l 171 388 b 297 50 171 219 211 114 b 529 -19 361 0 444 -19 b 786 79 625 -19 721 10 b 896 453 869 165 896 288 l 896 567 b 904 793 896 694 900 754 b 1028 876 910 851 943 871 z "},"Ü":{"ha":1054,"x_min":null,"x_max":null,"o":"m 678 1126 b 607 1054 640 1126 607 1096 b 678 983 607 1017 640 983 b 749 1054 718 983 749 1017 b 679 1126 749 1096 718 1126 z m 404 1126 b 335 1053 367 1126 335 1096 b 404 982 335 1015 367 982 b 475 1053 444 982 475 1015 b 406 1126 475 1096 444 1126 z m 1028 918 l 686 918 l 686 876 b 825 797 786 869 818 851 b 836 568 832 754 836 694 l 836 460 b 567 60 836 225 768 60 b 299 417 392 60 299 188 l 299 732 b 421 876 299 861 310 869 l 421 918 l 46 918 l 46 876 b 171 732 158 867 171 861 l 171 388 b 297 50 171 219 211 114 b 529 -19 361 0 444 -19 b 786 79 625 -19 721 10 b 896 453 869 165 896 288 l 896 567 b 904 793 896 694 900 754 b 1028 876 910 851 943 871 z "},"Ý":{"ha":911,"x_min":null,"x_max":null,"o":"m 679 1067 b 618 1149 675 1089 636 1144 b 392 1001 550 1106 468 1050 l 410 965 l 676 1056 z m 892 918 l 574 918 l 574 876 b 657 785 683 865 688 853 b 489 467 618 699 540 560 b 299 800 428 574 358 689 b 371 876 272 846 268 864 l 371 918 l 22 918 l 22 876 b 182 757 107 869 124 853 b 361 447 261 624 311 532 b 389 363 383 404 389 392 l 389 179 b 251 39 389 58 378 49 l 251 0 l 660 0 l 660 39 b 518 179 529 49 518 60 l 518 368 b 542 458 518 406 522 421 b 721 764 610 585 657 664 b 892 876 775 850 793 865 z "},"Ÿ":{"ha":911,"x_min":null,"x_max":null,"o":"m 606 1126 b 536 1054 568 1126 536 1096 b 606 983 536 1017 568 983 b 676 1054 646 983 676 1017 b 607 1126 676 1096 646 1126 z m 333 1126 b 263 1053 294 1126 263 1096 b 333 982 263 1015 294 982 b 403 1053 372 982 403 1015 b 335 1126 403 1096 372 1126 z m 892 918 l 574 918 l 574 876 b 657 785 683 865 688 853 b 489 467 618 699 540 560 b 299 800 428 574 358 689 b 371 876 272 846 268 864 l 371 918 l 22 918 l 22 876 b 182 757 107 869 124 853 b 361 447 261 624 311 532 b 389 363 383 404 389 392 l 389 179 b 251 39 389 58 378 49 l 251 0 l 660 0 l 660 39 b 518 179 529 49 518 60 l 518 368 b 542 458 518 406 522 421 b 721 764 610 585 657 664 b 892 876 775 850 793 865 z "},"Ž":{"ha":868,"x_min":null,"x_max":null,"o":"m 632 1160 b 458 1074 574 1136 515 1107 b 285 1160 401 1108 343 1136 l 263 1124 b 443 969 324 1076 386 1029 l 475 969 b 654 1124 531 1029 592 1078 z m 808 253 b 729 104 782 182 758 135 b 457 53 689 63 632 53 b 226 61 358 53 274 56 b 817 899 422 347 619 621 l 807 918 l 228 918 b 153 953 186 918 171 919 l 118 953 b 101 690 115 889 108 782 l 144 689 b 193 814 161 751 176 788 b 396 865 218 851 242 865 l 642 865 b 40 21 443 578 243 301 l 54 0 l 800 0 b 851 244 815 57 840 190 z "},"Ð":{"ha":1061,"x_min":null,"x_max":null,"o":"m 76 918 l 76 876 b 199 724 188 868 199 858 l 199 510 l 54 510 l 54 451 l 199 451 l 199 194 b 65 39 199 63 188 49 l 65 0 l 399 0 b 819 117 568 0 708 35 b 999 494 929 200 999 324 b 875 796 999 625 946 729 b 479 918 781 885 647 918 z m 325 451 l 549 451 l 549 510 l 325 510 l 325 792 b 344 854 325 832 332 847 b 457 869 357 863 393 869 b 689 811 551 869 633 849 b 849 471 793 744 849 625 b 465 54 849 247 726 54 b 325 188 346 54 325 93 z "},"Þ":{"ha":789,"x_min":null,"x_max":null,"o":"m 415 918 l 61 918 l 61 876 b 176 732 168 868 176 860 l 176 186 b 54 40 176 61 165 49 l 54 0 l 438 0 l 438 40 b 301 178 315 50 301 60 l 301 238 l 406 213 b 735 475 581 214 735 304 b 428 718 735 646 617 718 b 301 715 388 718 346 717 b 415 876 301 863 313 868 z m 301 610 b 317 656 301 643 307 650 b 393 668 328 663 356 668 b 590 471 514 668 590 604 b 396 271 590 336 499 271 b 301 289 350 271 318 282 z "},"a":{"ha":629,"x_min":null,"x_max":null,"o":"m 621 57 l 606 93 b 556 79 592 86 572 79 b 504 164 531 79 504 99 l 504 421 b 440 596 504 496 490 554 b 321 635 407 622 365 635 b 106 535 242 618 147 564 b 61 478 78 514 61 497 b 124 415 61 444 97 415 b 168 450 147 415 161 426 b 210 544 181 493 193 525 b 272 569 225 560 247 569 b 390 413 343 569 390 514 l 390 388 b 169 296 358 363 257 324 b 54 157 90 269 54 225 b 226 -17 54 68 124 -17 b 393 72 269 -17 338 35 b 428 11 399 50 408 29 b 496 -17 443 -4 474 -17 z m 390 118 b 281 71 364 93 315 71 b 182 178 239 71 182 104 b 268 282 182 229 213 257 b 390 339 297 296 360 322 z "},"b":{"ha":728,"x_min":null,"x_max":null,"o":"m 221 571 l 221 1004 b 10 956 168 985 76 963 l 10 922 b 103 817 100 914 103 904 l 103 33 b 315 -17 183 -3 257 -17 b 676 338 508 -17 676 129 b 393 635 676 503 549 635 b 332 619 376 635 357 629 z m 221 529 b 328 554 249 543 290 554 b 543 300 444 554 543 463 b 354 38 543 135 469 38 b 229 115 282 38 240 88 b 221 165 224 128 221 144 z "},"c":{"ha":603,"x_min":null,"x_max":null,"o":"m 560 160 b 388 83 494 99 449 83 b 174 342 310 83 174 147 b 344 565 174 490 254 565 b 488 506 393 565 444 547 b 515 490 500 494 507 490 b 564 553 532 490 564 522 b 540 596 564 569 560 581 b 413 635 519 615 471 635 l 411 635 b 196 554 358 635 272 610 b 53 278 100 481 53 386 b 342 -17 53 126 160 -17 b 583 129 425 -17 521 44 z "},"d":{"ha":756,"x_min":null,"x_max":null,"o":"m 742 74 l 697 78 b 633 165 643 82 633 90 l 633 1004 b 406 956 579 986 482 965 l 406 921 b 514 817 506 913 514 908 l 514 619 b 421 635 481 631 442 635 b 54 285 226 635 54 481 b 319 -17 54 86 204 -17 b 429 24 336 -17 374 -8 l 514 75 l 514 -17 b 742 36 600 13 711 31 z m 514 119 b 383 74 481 96 432 74 b 189 322 293 74 189 154 b 371 579 189 528 307 579 b 514 507 422 579 481 557 z "},"e":{"ha":607,"x_min":null,"x_max":null,"o":"m 543 153 b 381 83 492 106 438 83 b 169 349 281 83 172 161 b 539 372 338 354 514 368 b 572 417 565 378 571 389 b 357 635 572 529 476 635 l 356 635 b 146 529 282 635 204 594 b 53 283 88 465 53 379 b 331 -17 53 124 156 -17 b 565 122 375 -17 475 8 z m 322 581 b 446 439 399 581 446 513 b 411 411 444 418 436 411 b 178 407 332 408 254 407 b 321 581 197 524 260 581 z "},"f":{"ha":428,"x_min":null,"x_max":null,"o":"m 76 618 l 36 575 l 43 560 l 143 560 l 143 147 b 42 38 143 54 132 46 l 42 0 l 383 0 l 383 36 b 261 157 272 46 261 53 l 261 560 l 414 560 b 431 618 432 569 438 604 l 261 618 l 261 674 b 290 886 260 793 274 860 b 365 928 306 911 328 928 b 481 874 410 928 453 901 b 521 869 493 860 506 860 b 549 906 535 881 544 894 b 540 957 556 922 554 940 b 428 1004 518 983 476 1003 b 269 929 371 997 319 972 b 158 763 192 863 168 793 b 143 649 149 732 143 692 l 143 618 z "},"g":{"ha":669,"x_min":null,"x_max":null,"o":"m 664 618 b 468 597 613 610 539 600 b 331 635 425 622 378 635 l 328 635 b 74 399 218 635 74 560 b 199 210 74 303 132 238 b 72 124 176 182 129 146 b 88 64 71 110 75 83 b 193 -14 107 32 143 1 b 78 -110 160 -40 107 -82 b 42 -190 56 -131 40 -158 b 290 -364 43 -271 129 -364 b 647 -82 479 -364 647 -226 b 442 86 647 60 531 86 b 293 85 393 86 344 85 b 204 138 229 85 204 111 b 244 196 204 158 225 183 b 317 188 267 192 292 188 b 568 413 440 188 568 263 b 528 539 568 464 553 507 l 607 533 b 671 606 631 546 660 583 z m 315 590 b 447 401 396 590 447 510 b 332 233 447 290 393 236 b 200 421 254 233 200 313 b 314 590 200 532 257 590 z m 346 -18 b 481 -36 404 -18 446 -21 b 547 -135 522 -53 547 -87 b 346 -290 547 -222 478 -290 b 158 -156 239 -290 158 -231 b 219 -49 158 -115 185 -79 b 344 -18 246 -26 278 -18 z "},"h":{"ha":764,"x_min":null,"x_max":null,"o":"m 735 0 l 735 38 b 642 147 651 44 642 54 l 642 390 b 444 635 642 563 560 635 b 242 532 368 635 292 582 l 242 1004 b 26 956 183 986 94 965 l 26 922 b 122 819 118 914 122 908 l 122 147 b 25 38 122 54 110 44 l 25 0 l 332 0 l 332 38 b 242 147 249 44 242 57 l 242 481 b 385 551 281 526 335 551 b 524 379 476 551 524 494 l 524 147 b 431 38 524 56 511 44 l 431 0 z "},"i":{"ha":385,"x_min":null,"x_max":null,"o":"m 194 754 b 269 829 238 754 269 789 b 196 906 269 872 238 906 b 119 829 156 906 119 872 b 194 754 119 789 156 754 z m 364 0 l 364 38 b 263 151 272 46 263 56 l 263 638 b 57 582 200 613 129 593 l 57 547 b 144 440 139 535 144 528 l 144 151 b 44 38 144 54 133 46 l 44 0 z "},"j":{"ha":369,"x_min":null,"x_max":null,"o":"m 193 754 b 268 829 236 754 268 788 b 194 906 268 872 236 906 b 119 829 154 906 119 872 b 193 754 119 788 154 754 z m 49 549 b 144 435 135 536 144 531 l 144 164 b 132 -111 144 35 140 -50 b 99 -214 125 -162 114 -193 b -6 -265 81 -240 43 -256 b -35 -299 -25 -269 -35 -281 b 15 -364 -35 -335 -3 -364 b 54 -347 28 -364 39 -358 b 229 -69 88 -318 179 -210 b 263 160 257 6 263 65 l 263 638 b 49 582 199 613 124 592 z "},"k":{"ha":710,"x_min":null,"x_max":null,"o":"m 735 0 l 735 38 b 594 114 682 40 644 63 b 374 375 547 164 401 332 b 494 507 433 444 457 471 b 679 589 549 558 582 574 l 679 626 l 385 614 l 385 575 b 428 513 451 568 456 556 b 328 389 401 476 360 419 b 240 340 307 367 282 349 l 240 1004 b 29 956 181 985 97 963 l 29 922 b 122 814 115 914 122 906 l 122 149 b 19 38 122 57 114 46 l 19 0 l 343 0 l 343 38 b 240 149 253 46 240 54 l 240 303 b 263 306 249 306 256 306 b 304 276 274 306 286 299 b 535 -3 381 183 469 69 z "},"l":{"ha":364,"x_min":null,"x_max":null,"o":"m 344 0 l 344 38 b 242 150 253 44 242 54 l 242 1004 b 25 956 190 986 100 964 l 25 921 b 122 814 114 913 122 910 l 122 150 b 21 38 122 56 110 46 l 21 0 z "},"m":{"ha":1169,"x_min":null,"x_max":null,"o":"m 1139 0 l 1139 36 b 1047 146 1057 46 1047 51 l 1047 415 b 865 635 1047 556 975 635 b 757 596 825 635 788 617 b 640 518 722 575 682 549 b 481 635 613 590 550 635 b 365 594 438 635 403 618 b 263 524 322 568 292 544 l 263 639 b 58 581 196 610 121 592 l 58 547 b 144 438 139 535 144 528 l 144 147 b 39 36 144 54 131 44 l 39 0 l 343 0 l 343 36 b 263 146 275 44 263 54 l 263 476 b 414 549 304 511 360 549 b 538 386 497 549 538 492 l 538 146 b 438 36 538 54 524 44 l 438 0 l 746 0 l 746 36 b 656 144 668 44 656 54 l 656 415 b 651 476 656 443 654 460 b 806 547 704 521 757 547 b 929 385 890 547 929 488 l 929 153 b 832 36 929 53 913 44 l 832 0 z "},"n":{"ha":782,"x_min":null,"x_max":null,"o":"m 750 0 l 750 38 b 660 149 668 46 660 53 l 660 417 b 475 635 660 554 589 635 b 358 590 435 635 399 618 b 263 525 322 568 292 546 l 263 639 b 60 581 199 610 128 593 l 60 547 b 144 438 135 533 144 529 l 144 149 b 40 38 144 56 136 49 l 40 0 l 354 0 l 354 38 b 263 149 271 46 263 53 l 263 478 b 414 547 306 513 360 547 b 542 389 504 547 542 486 l 542 156 b 450 38 542 57 532 46 l 450 0 z "},"o":{"ha":732,"x_min":null,"x_max":null,"o":"m 368 635 b 53 294 236 635 53 528 b 368 -17 53 138 168 -17 b 679 318 510 -17 679 92 b 369 635 679 492 547 635 z m 353 586 b 540 288 474 586 540 456 b 383 31 540 92 468 31 b 192 342 268 31 192 164 b 351 586 192 500 268 586 z "},"p":{"ha":751,"x_min":null,"x_max":null,"o":"m 247 536 l 247 649 b 35 586 178 622 96 596 l 35 551 b 128 447 121 542 128 538 l 128 -190 b 25 -300 128 -283 117 -292 l 25 -339 l 368 -339 l 368 -300 b 247 -178 258 -290 247 -282 l 247 8 b 346 -17 267 -3 303 -15 b 699 367 531 18 699 156 b 447 635 699 506 604 635 b 375 610 429 635 401 626 z m 247 489 b 385 547 285 515 342 547 b 574 310 485 547 574 464 b 379 54 574 157 497 54 b 247 107 333 54 278 76 z "},"q":{"ha":732,"x_min":null,"x_max":null,"o":"m 738 -339 l 738 -300 b 629 -186 639 -289 629 -285 l 629 469 b 633 619 629 563 632 589 l 628 625 b 576 607 604 614 585 608 b 538 615 564 607 557 608 b 438 635 521 622 488 629 b 54 279 239 636 54 481 b 363 -17 54 143 153 -17 l 510 40 l 510 -185 b 389 -300 510 -283 500 -290 l 389 -339 z m 510 86 b 408 64 483 74 453 64 b 189 325 306 64 189 156 b 375 576 189 493 281 576 b 510 515 418 576 478 554 z "},"r":{"ha":533,"x_min":null,"x_max":null,"o":"m 263 482 l 263 638 b 57 581 193 608 126 592 l 57 549 b 144 440 136 538 144 532 l 144 147 b 44 38 144 54 133 44 l 44 0 l 381 0 l 381 38 b 263 149 269 44 263 54 l 263 403 b 374 522 293 481 339 522 b 436 492 397 522 413 513 b 474 489 444 483 457 482 b 522 563 501 501 522 532 b 438 635 522 596 488 635 b 267 482 371 635 310 557 z "},"s":{"ha":524,"x_min":null,"x_max":null,"o":"m 457 458 b 426 608 454 492 439 578 b 297 635 396 622 358 635 b 81 450 165 635 81 550 b 260 254 81 340 175 292 b 371 126 332 219 371 188 b 272 31 371 69 322 31 b 97 207 186 31 122 113 l 58 201 b 82 29 60 149 72 50 b 247 -17 107 10 174 -17 b 482 179 361 -17 482 50 b 301 374 482 279 410 331 b 183 493 239 399 183 433 b 274 588 183 549 219 588 b 419 449 343 588 392 532 z "},"t":{"ha":439,"x_min":null,"x_max":null,"o":"m 429 53 l 415 89 b 331 67 396 79 364 67 b 246 200 293 67 246 86 l 246 560 l 396 560 b 404 618 414 571 418 601 l 246 618 l 246 813 l 225 817 l 126 719 l 126 618 l 64 618 l 24 575 l 29 560 l 126 560 l 126 153 b 271 -17 126 38 179 -17 b 331 1 283 -17 306 -11 z "},"u":{"ha":761,"x_min":null,"x_max":null,"o":"m 742 71 l 703 74 b 638 158 650 76 638 86 l 638 628 b 540 613 617 622 581 617 b 410 601 499 607 450 603 l 410 568 l 460 560 b 519 468 506 551 519 544 l 519 139 b 369 74 472 94 419 74 b 247 231 306 74 247 108 l 247 421 b 251 628 247 515 247 582 b 147 613 225 622 186 617 b 40 601 107 606 71 603 l 40 568 l 81 558 b 128 468 115 551 128 543 l 128 194 b 306 -17 128 42 208 -17 b 415 19 344 -17 375 -4 b 519 92 457 42 486 68 l 519 -8 l 529 -17 b 632 11 557 -10 593 1 b 742 33 671 21 711 29 z "},"v":{"ha":660,"x_min":null,"x_max":null,"o":"m 682 618 l 429 618 l 429 581 b 494 489 508 571 518 554 b 371 157 464 396 417 268 b 238 499 332 253 274 401 b 294 581 214 560 218 569 l 294 618 l -4 618 l -4 581 b 115 478 72 568 83 558 b 314 -15 185 314 250 156 l 354 -15 b 557 474 435 194 508 369 b 682 581 594 557 607 569 z "},"w":{"ha":975,"x_min":null,"x_max":null,"o":"m 994 618 l 735 618 l 735 581 b 818 488 826 567 836 558 b 722 168 792 385 751 261 l 719 168 b 549 610 660 317 601 465 l 508 610 b 346 172 451 450 399 307 l 343 172 b 240 494 307 279 272 388 b 311 581 219 557 226 567 l 311 618 l 13 618 l 13 581 b 117 488 79 571 92 561 b 282 -15 175 318 229 153 l 324 -15 b 492 418 381 138 439 278 b 665 -15 550 275 607 136 l 708 -15 b 879 476 772 176 838 364 b 994 581 910 553 922 569 z "},"x":{"ha":674,"x_min":null,"x_max":null,"o":"m 679 0 l 679 38 b 525 140 594 50 576 64 l 383 353 b 496 504 432 419 467 469 b 651 581 547 564 565 571 l 651 618 l 390 618 l 390 581 b 438 522 453 572 463 565 b 357 392 411 476 385 435 l 274 521 b 311 581 247 560 253 571 l 311 618 l 22 618 l 22 581 b 163 490 101 569 118 558 l 286 297 b 165 129 244 236 206 179 b 6 38 110 61 93 50 l 6 0 l 272 0 l 272 38 b 222 110 200 50 196 63 b 313 256 250 158 282 210 l 417 94 b 369 38 442 57 429 44 l 369 0 z "},"y":{"ha":656,"x_min":null,"x_max":null,"o":"m 682 618 l 425 618 l 425 581 b 497 500 504 569 514 553 b 369 154 469 413 408 247 l 242 503 b 296 581 222 556 229 569 l 296 618 l 0 618 l 0 581 b 122 475 78 569 92 550 b 286 40 163 379 228 206 b 289 -22 294 17 296 -1 b 247 -117 283 -40 272 -69 b 138 -242 213 -179 185 -212 b 101 -292 114 -257 101 -271 b 185 -364 101 -328 146 -364 b 229 -328 204 -364 222 -357 b 378 56 251 -251 282 -171 b 557 476 476 286 521 403 b 682 581 594 557 607 568 z "},"z":{"ha":601,"x_min":null,"x_max":null,"o":"m 557 199 l 538 164 b 344 50 482 78 453 50 l 207 50 b 553 596 322 238 438 415 l 543 618 l 213 618 b 132 647 160 618 140 626 l 103 647 b 54 442 92 586 69 497 l 90 428 l 110 467 b 274 568 151 547 171 568 b 396 568 304 568 349 568 b 42 22 279 379 165 201 l 54 0 l 528 0 b 592 181 549 56 571 122 z "},"à":{"ha":629,"x_min":null,"x_max":null,"o":"m 621 57 l 606 93 b 556 79 592 86 572 79 b 504 164 531 79 504 99 l 504 421 b 440 596 504 496 490 554 b 321 635 407 622 365 635 b 106 535 242 618 147 564 b 61 478 78 514 61 497 b 124 415 61 444 97 415 b 168 450 147 415 161 426 b 210 544 181 493 193 525 b 272 569 225 560 247 569 b 390 413 343 569 390 514 l 390 388 b 169 296 358 363 257 324 b 54 157 90 269 54 225 b 226 -17 54 68 124 -17 b 393 72 269 -17 338 35 b 428 11 399 50 408 29 b 496 -17 443 -4 474 -17 z m 390 118 b 281 71 364 93 315 71 b 182 178 239 71 182 104 b 268 282 182 229 213 257 b 390 339 297 296 360 322 z m 361 711 b 272 949 332 783 297 885 b 160 931 250 953 172 938 l 153 918 b 321 692 193 865 261 775 z "},"á":{"ha":629,"x_min":null,"x_max":null,"o":"m 621 57 l 606 93 b 556 79 592 86 572 79 b 504 164 531 79 504 99 l 504 421 b 440 596 504 496 490 554 b 321 635 407 622 365 635 b 106 535 242 618 147 564 b 61 478 78 514 61 497 b 124 415 61 444 97 415 b 168 450 147 415 161 426 b 210 544 181 493 193 525 b 272 569 225 560 247 569 b 390 413 343 569 390 514 l 390 388 b 169 296 358 363 257 324 b 54 157 90 269 54 225 b 226 -17 54 68 124 -17 b 393 72 269 -17 338 35 b 428 11 399 50 408 29 b 496 -17 443 -4 474 -17 z m 390 118 b 281 71 364 93 315 71 b 182 178 239 71 182 104 b 268 282 182 229 213 257 b 390 339 297 296 360 322 z m 290 694 l 471 939 l 465 951 b 346 939 449 956 360 946 b 254 715 336 915 279 772 z "},"â":{"ha":629,"x_min":null,"x_max":null,"o":"m 621 57 l 606 93 b 556 79 592 86 572 79 b 504 164 531 79 504 99 l 504 421 b 440 596 504 496 490 554 b 321 635 407 622 365 635 b 106 535 242 618 147 564 b 61 478 78 514 61 497 b 124 415 61 444 97 415 b 168 450 147 415 161 426 b 210 544 181 493 193 525 b 272 569 225 560 247 569 b 390 413 343 569 390 514 l 390 388 b 169 296 358 363 257 324 b 54 157 90 269 54 225 b 226 -17 54 68 124 -17 b 393 72 269 -17 338 35 b 428 11 399 50 408 29 b 496 -17 443 -4 474 -17 z m 390 118 b 281 71 364 93 315 71 b 182 178 239 71 182 104 b 268 282 182 229 213 257 b 390 339 297 296 360 322 z m 461 718 b 318 949 406 793 361 868 l 281 949 b 136 718 238 869 192 793 l 171 692 b 299 829 218 735 261 782 b 425 692 336 782 379 735 z "},"ã":{"ha":629,"x_min":null,"x_max":null,"o":"m 621 57 l 606 93 b 556 79 592 86 572 79 b 504 164 531 79 504 99 l 504 421 b 440 596 504 496 490 554 b 321 635 407 622 365 635 b 106 535 242 618 147 564 b 61 478 78 514 61 497 b 124 415 61 444 97 415 b 168 450 147 415 161 426 b 210 544 181 493 193 525 b 272 569 225 560 247 569 b 390 413 343 569 390 514 l 390 388 b 169 296 358 363 257 324 b 54 157 90 269 54 225 b 226 -17 54 68 124 -17 b 393 72 269 -17 338 35 b 428 11 399 50 408 29 b 496 -17 443 -4 474 -17 z m 390 118 b 281 71 364 93 315 71 b 182 178 239 71 182 104 b 268 282 182 229 213 257 b 390 339 297 296 360 322 z m 153 733 b 217 803 174 781 193 803 b 283 779 239 803 258 794 b 378 747 318 760 346 747 b 490 876 413 747 458 769 l 456 897 b 393 832 436 856 418 832 b 315 858 369 832 346 843 b 233 886 275 881 256 886 b 117 757 194 886 147 854 z "},"ä":{"ha":629,"x_min":null,"x_max":null,"o":"m 621 57 l 606 93 b 556 79 592 86 572 79 b 504 164 531 79 504 99 l 504 421 b 440 596 504 496 490 554 b 321 635 407 622 365 635 b 106 535 242 618 147 564 b 61 478 78 514 61 497 b 124 415 61 444 97 415 b 168 450 147 415 161 426 b 210 544 181 493 193 525 b 272 569 225 560 247 569 b 390 413 343 569 390 514 l 390 388 b 169 296 358 363 257 324 b 54 157 90 269 54 225 b 226 -17 54 68 124 -17 b 393 72 269 -17 338 35 b 428 11 399 50 408 29 b 496 -17 443 -4 474 -17 z m 390 118 b 281 71 364 93 315 71 b 182 178 239 71 182 104 b 268 282 182 229 213 257 b 390 339 297 296 360 322 z m 176 757 b 246 828 217 757 246 789 b 178 901 246 868 217 901 b 107 828 139 901 107 868 b 176 757 107 789 139 757 z m 419 757 b 490 828 461 757 490 789 b 421 901 490 868 461 901 b 351 828 383 901 351 868 b 419 757 351 789 383 757 z "},"å":{"ha":629,"x_min":null,"x_max":null,"o":"m 621 57 l 606 93 b 556 79 592 86 572 79 b 504 164 531 79 504 99 l 504 421 b 440 596 504 496 490 554 b 321 635 407 622 365 635 b 106 535 242 618 147 564 b 61 478 78 514 61 497 b 124 415 61 444 97 415 b 168 450 147 415 161 426 b 210 544 181 493 193 525 b 272 569 225 560 247 569 b 390 413 343 569 390 514 l 390 388 b 169 296 358 363 257 324 b 54 157 90 269 54 225 b 226 -17 54 68 124 -17 b 393 72 269 -17 338 35 b 428 11 399 50 408 29 b 496 -17 443 -4 474 -17 z m 390 118 b 281 71 364 93 315 71 b 182 178 239 71 182 104 b 268 282 182 229 213 257 b 390 339 297 296 360 322 z m 301 704 b 428 826 364 704 428 750 b 303 944 428 900 364 944 b 175 826 238 944 175 900 b 301 704 175 750 238 704 z m 303 749 b 239 826 267 749 239 781 b 301 900 239 868 267 900 b 367 826 340 900 367 868 b 303 749 367 781 340 749 z "},"æ":{"ha":956,"x_min":null,"x_max":null,"o":"m 403 388 b 168 293 358 357 247 319 b 56 154 90 267 56 225 b 229 -17 56 71 122 -17 b 400 69 271 -17 346 28 l 451 108 b 679 -17 494 32 576 -17 b 914 121 724 -17 831 8 l 889 151 b 732 82 835 101 785 82 b 511 347 621 82 510 163 b 888 369 686 353 867 365 b 921 418 915 375 922 386 b 700 635 921 529 825 636 b 492 529 628 635 549 590 b 435 603 479 560 461 585 b 328 635 407 624 369 635 b 111 535 250 617 156 565 b 67 474 82 514 67 494 b 133 413 67 443 110 413 b 176 449 157 413 169 425 b 214 540 188 490 199 521 b 281 571 228 558 249 571 b 403 419 346 571 403 510 z m 668 581 b 793 439 749 581 793 511 b 763 407 793 414 783 407 b 521 403 682 404 600 404 b 667 581 535 522 603 581 z m 285 74 b 182 182 236 74 182 110 b 267 281 182 231 208 257 b 401 339 315 300 372 324 b 431 151 401 271 407 196 b 286 74 385 93 328 74 z "},"ç":{"ha":600,"x_min":null,"x_max":null,"o":"m 560 161 b 388 82 494 99 450 82 b 174 343 313 82 174 139 b 340 565 174 501 265 565 b 486 506 393 565 440 547 b 513 490 497 494 504 490 b 565 554 533 490 564 525 b 544 596 565 568 561 582 b 415 635 515 619 456 635 b 196 553 363 635 281 617 b 53 276 104 483 53 385 b 333 -17 53 114 167 -10 l 290 -72 b 307 -157 265 -104 272 -122 b 339 -210 321 -171 339 -187 b 254 -296 339 -239 311 -271 l 269 -333 b 432 -190 369 -301 432 -247 b 378 -94 432 -160 415 -132 b 368 -36 356 -71 351 -61 l 386 -11 b 585 128 458 6 526 57 z "},"è":{"ha":607,"x_min":null,"x_max":null,"o":"m 543 153 b 381 83 492 106 438 83 b 169 349 281 83 172 161 b 539 372 338 354 514 368 b 572 417 565 378 571 389 b 357 635 572 529 476 635 l 356 635 b 146 529 282 635 204 594 b 53 283 88 465 53 379 b 331 -17 53 124 156 -17 b 565 122 375 -17 475 8 z m 322 581 b 446 439 399 581 446 513 b 411 411 444 418 436 411 b 178 407 332 408 254 407 b 321 581 197 524 260 581 z m 379 711 b 290 949 350 783 315 885 b 178 931 268 953 190 938 l 171 918 b 339 692 211 865 279 775 z "},"é":{"ha":607,"x_min":null,"x_max":null,"o":"m 543 153 b 381 83 492 106 438 83 b 169 349 281 83 172 161 b 539 372 338 354 514 368 b 572 417 565 378 571 389 b 357 635 572 529 476 635 l 356 635 b 146 529 282 635 204 594 b 53 283 88 465 53 379 b 331 -17 53 124 156 -17 b 565 122 375 -17 475 8 z m 322 581 b 446 439 399 581 446 513 b 411 411 444 418 436 411 b 178 407 332 408 254 407 b 321 581 197 524 260 581 z m 311 694 l 492 939 l 486 951 b 367 939 469 956 381 946 b 275 715 357 915 300 772 z "},"ê":{"ha":607,"x_min":null,"x_max":null,"o":"m 543 153 b 381 83 492 106 438 83 b 169 349 281 83 172 161 b 539 372 338 354 514 368 b 572 417 565 378 571 389 b 357 635 572 529 476 635 l 356 635 b 146 529 282 635 204 594 b 53 283 88 465 53 379 b 331 -17 53 124 156 -17 b 565 122 375 -17 475 8 z m 322 581 b 446 439 399 581 446 513 b 411 411 444 418 436 411 b 178 407 332 408 254 407 b 321 581 197 524 260 581 z m 486 718 b 343 949 431 793 386 868 l 306 949 b 161 718 263 869 217 793 l 196 692 b 324 829 243 735 286 782 b 450 692 361 782 404 735 z "},"ë":{"ha":607,"x_min":null,"x_max":null,"o":"m 543 153 b 381 83 492 106 438 83 b 169 349 281 83 172 161 b 539 372 338 354 514 368 b 572 417 565 378 571 389 b 357 635 572 529 476 635 l 356 635 b 146 529 282 635 204 594 b 53 283 88 465 53 379 b 331 -17 53 124 156 -17 b 565 122 375 -17 475 8 z m 322 581 b 446 439 399 581 446 513 b 411 411 444 418 436 411 b 178 407 332 408 254 407 b 321 581 197 524 260 581 z m 197 757 b 267 828 238 757 267 789 b 199 901 267 868 238 901 b 128 828 160 901 128 868 b 197 757 128 789 160 757 z m 440 757 b 511 828 482 757 511 789 b 442 901 511 868 482 901 b 372 828 404 901 372 868 b 440 757 372 789 404 757 z "},"ì":{"ha":386,"x_min":null,"x_max":null,"o":"m 364 0 l 364 38 b 264 156 274 46 264 57 l 264 638 b 57 582 200 613 129 593 l 57 547 b 146 436 138 535 146 528 l 146 156 b 46 38 146 57 135 46 l 46 0 z m 243 711 b 154 949 214 783 179 885 b 42 931 132 953 54 938 l 35 918 b 203 692 75 865 143 775 z "},"í":{"ha":386,"x_min":null,"x_max":null,"o":"m 364 0 l 364 38 b 264 156 274 46 264 57 l 264 638 b 57 582 200 613 129 593 l 57 547 b 146 436 138 535 146 528 l 146 156 b 46 38 146 57 135 46 l 46 0 z m 179 694 l 360 939 l 354 951 b 235 939 338 956 249 946 b 143 715 225 915 168 772 z "},"î":{"ha":386,"x_min":null,"x_max":null,"o":"m 364 0 l 364 38 b 264 156 274 46 264 57 l 264 638 b 57 582 200 613 129 593 l 57 547 b 146 436 138 535 146 528 l 146 156 b 46 38 146 57 135 46 l 46 0 z m 353 718 b 210 949 297 793 253 868 l 172 949 b 28 718 129 869 83 793 l 63 692 b 190 829 110 735 153 782 b 317 692 228 782 271 735 z "},"ï":{"ha":386,"x_min":null,"x_max":null,"o":"m 364 0 l 364 38 b 264 156 274 46 264 57 l 264 638 b 57 582 200 613 129 593 l 57 547 b 146 436 138 535 146 528 l 146 156 b 46 38 146 57 135 46 l 46 0 z m 67 757 b 136 828 107 757 136 789 b 68 901 136 868 107 901 b -3 828 29 901 -3 868 b 67 757 -3 789 29 757 z m 310 757 b 381 828 351 757 381 789 b 311 901 381 868 351 901 b 242 828 274 901 242 868 b 310 757 242 789 274 757 z "},"ı":{"ha":386,"x_min":null,"x_max":null,"o":"m 364 0 l 364 38 b 264 156 274 46 264 57 l 264 638 b 57 582 200 613 129 593 l 57 547 b 146 436 138 535 146 528 l 146 156 b 46 38 146 57 135 46 l 46 0 z "},"ł":{"ha":393,"x_min":null,"x_max":null,"o":"m 389 651 l 389 718 l 261 610 l 261 1010 b 42 960 208 992 113 968 l 42 926 b 143 824 132 915 143 910 l 143 518 l 36 433 l 36 368 l 143 451 l 143 156 b 36 36 143 56 129 44 l 36 0 l 367 0 l 367 36 b 261 156 274 46 261 56 l 261 546 z "},"ñ":{"ha":782,"x_min":null,"x_max":null,"o":"m 750 0 l 750 38 b 660 149 668 46 660 53 l 660 417 b 475 635 660 554 589 635 b 358 590 435 635 399 618 b 263 525 322 568 292 546 l 263 639 b 60 581 199 610 128 593 l 60 547 b 144 438 135 533 144 529 l 144 149 b 40 38 144 56 136 49 l 40 0 l 354 0 l 354 38 b 263 149 271 46 263 53 l 263 478 b 414 547 306 513 360 547 b 542 389 504 547 542 486 l 542 156 b 450 38 542 57 532 46 l 450 0 z m 236 733 b 300 803 257 781 276 803 b 367 779 322 803 342 794 b 461 747 401 760 429 747 b 574 876 496 747 542 769 l 539 897 b 476 832 519 856 501 832 b 399 858 453 832 429 843 b 317 886 358 881 339 886 b 200 757 278 886 231 854 z "},"ò":{"ha":732,"x_min":null,"x_max":null,"o":"m 368 635 b 53 294 236 635 53 528 b 368 -17 53 138 168 -17 b 679 318 510 -17 679 92 b 369 635 679 492 547 635 z m 353 586 b 540 288 474 586 540 456 b 383 31 540 92 468 31 b 192 342 268 31 192 164 b 351 586 192 500 268 586 z m 422 711 b 333 949 393 783 358 885 b 221 931 311 953 233 938 l 214 918 b 382 692 254 865 322 775 z "},"ó":{"ha":732,"x_min":null,"x_max":null,"o":"m 368 635 b 53 294 236 635 53 528 b 368 -17 53 138 168 -17 b 679 318 510 -17 679 92 b 369 635 679 492 547 635 z m 353 586 b 540 288 474 586 540 456 b 383 31 540 92 468 31 b 192 342 268 31 192 164 b 351 586 192 500 268 586 z m 351 694 l 532 939 l 526 951 b 407 939 510 956 421 946 b 315 715 397 915 340 772 z "},"ô":{"ha":732,"x_min":null,"x_max":null,"o":"m 368 635 b 53 294 236 635 53 528 b 368 -17 53 138 168 -17 b 679 318 510 -17 679 92 b 369 635 679 492 547 635 z m 353 586 b 540 288 474 586 540 456 b 383 31 540 92 468 31 b 192 342 268 31 192 164 b 351 586 192 500 268 586 z m 528 718 b 385 949 472 793 428 868 l 347 949 b 203 718 304 869 258 793 l 238 692 b 365 829 285 735 328 782 b 492 692 403 782 446 735 z "},"õ":{"ha":732,"x_min":null,"x_max":null,"o":"m 368 635 b 53 294 236 635 53 528 b 368 -17 53 138 168 -17 b 679 318 510 -17 679 92 b 369 635 679 492 547 635 z m 353 586 b 540 288 474 586 540 456 b 383 31 540 92 468 31 b 192 342 268 31 192 164 b 351 586 192 500 268 586 z m 214 733 b 278 803 235 781 254 803 b 344 779 300 803 319 794 b 439 747 379 760 407 747 b 551 876 474 747 519 769 l 517 897 b 454 832 497 856 479 832 b 376 858 431 832 407 843 b 294 886 336 881 317 886 b 178 757 256 886 208 854 z "},"ö":{"ha":732,"x_min":null,"x_max":null,"o":"m 368 635 b 53 294 236 635 53 528 b 368 -17 53 138 168 -17 b 679 318 510 -17 679 92 b 369 635 679 492 547 635 z m 353 586 b 540 288 474 586 540 456 b 383 31 540 92 468 31 b 192 342 268 31 192 164 b 351 586 192 500 268 586 z m 243 757 b 313 828 283 757 313 789 b 244 901 313 868 283 901 b 174 828 206 901 174 868 b 243 757 174 789 206 757 z m 486 757 b 557 828 528 757 557 789 b 488 901 557 868 528 901 b 418 828 450 901 418 868 b 486 757 418 789 450 757 z "},"ø":{"ha":736,"x_min":null,"x_max":null,"o":"m 619 639 l 581 665 l 529 592 b 374 635 482 619 433 635 b 53 296 239 635 53 526 b 167 54 53 206 93 114 l 114 -18 l 150 -51 l 204 26 b 372 -17 253 -1 308 -17 b 683 319 518 -17 683 97 b 568 565 683 418 642 507 z m 226 146 b 185 328 200 192 185 256 b 357 586 185 499 267 586 b 481 524 407 586 454 561 z m 510 479 b 551 300 538 429 551 367 b 385 31 551 103 469 31 b 257 101 325 31 282 61 z "},"œ":{"ha":1101,"x_min":null,"x_max":null,"o":"m 361 635 b 51 294 239 635 51 528 b 360 -17 51 143 167 -17 b 592 106 442 -17 532 22 b 824 -17 639 31 722 -17 b 1054 121 869 -17 972 8 l 1032 153 b 871 81 976 104 929 81 b 651 347 760 81 650 160 b 1033 371 826 353 1013 367 b 1064 418 1057 376 1064 385 b 844 635 1064 531 967 635 b 603 493 751 635 656 572 b 363 635 556 579 468 635 z m 810 581 b 938 440 885 581 938 519 b 908 406 938 415 929 407 b 660 403 824 404 740 403 b 808 581 674 521 744 581 z m 350 586 b 536 292 469 586 538 461 b 382 32 536 101 461 32 b 192 340 265 32 192 161 b 349 586 192 497 267 586 z "},"š":{"ha":524,"x_min":null,"x_max":null,"o":"m 457 458 b 426 608 454 492 439 578 b 297 635 396 622 358 635 b 81 450 165 635 81 550 b 260 254 81 340 175 292 b 371 126 332 219 371 188 b 272 31 371 69 322 31 b 97 207 186 31 122 113 l 58 201 b 82 29 60 149 72 50 b 247 -17 107 10 174 -17 b 482 179 361 -17 482 50 b 301 374 482 279 410 331 b 183 493 239 399 183 433 b 274 588 183 549 219 588 b 419 449 343 588 392 532 z m 399 953 b 272 818 350 910 310 863 b 146 953 235 864 193 910 l 110 929 b 253 697 165 851 210 778 l 289 697 b 435 929 333 776 378 851 z "},"ß":{"ha":781,"x_min":null,"x_max":null,"o":"m 146 618 l 79 618 l 39 569 l 44 554 l 146 554 l 146 146 b 43 38 146 61 135 46 l 43 0 l 339 0 l 339 38 b 264 147 272 46 264 61 l 264 564 b 418 944 264 761 281 944 b 588 761 519 944 588 853 b 578 715 588 744 585 726 b 519 654 571 703 553 686 b 418 488 456 586 418 543 b 536 313 418 433 460 379 b 632 160 594 263 632 219 b 535 44 632 75 574 44 b 428 89 500 44 463 61 b 397 86 417 96 407 94 b 372 50 386 78 374 61 b 400 0 368 31 375 14 b 479 -18 422 -14 450 -18 b 743 221 582 -18 743 83 b 629 408 743 306 679 365 b 532 546 579 454 532 492 b 675 735 532 594 576 660 b 690 790 686 751 692 767 b 464 1006 688 925 597 1003 b 282 929 393 999 336 972 b 163 756 199 860 175 793 b 146 633 153 724 146 683 z "},"ù":{"ha":761,"x_min":null,"x_max":null,"o":"m 742 71 l 703 74 b 638 158 650 76 638 86 l 638 628 b 540 613 617 622 581 617 b 410 601 499 607 450 603 l 410 568 l 460 560 b 519 468 506 551 519 544 l 519 139 b 369 74 472 94 419 74 b 247 231 306 74 247 108 l 247 421 b 251 628 247 515 247 582 b 147 613 225 622 186 617 b 40 601 107 606 71 603 l 40 568 l 81 558 b 128 468 115 551 128 543 l 128 194 b 306 -17 128 42 208 -17 b 415 19 344 -17 375 -4 b 519 92 457 42 486 68 l 519 -8 l 529 -17 b 632 11 557 -10 593 1 b 742 33 671 21 711 29 z m 421 711 b 332 949 392 783 357 885 b 219 931 310 953 232 938 l 213 918 b 381 692 253 865 321 775 z "},"ú":{"ha":761,"x_min":null,"x_max":null,"o":"m 742 71 l 703 74 b 638 158 650 76 638 86 l 638 628 b 540 613 617 622 581 617 b 410 601 499 607 450 603 l 410 568 l 460 560 b 519 468 506 551 519 544 l 519 139 b 369 74 472 94 419 74 b 247 231 306 74 247 108 l 247 421 b 251 628 247 515 247 582 b 147 613 225 622 186 617 b 40 601 107 606 71 603 l 40 568 l 81 558 b 128 468 115 551 128 543 l 128 194 b 306 -17 128 42 208 -17 b 415 19 344 -17 375 -4 b 519 92 457 42 486 68 l 519 -8 l 529 -17 b 632 11 557 -10 593 1 b 742 33 671 21 711 29 z m 360 694 l 540 939 l 535 951 b 415 939 518 956 429 946 b 324 715 406 915 349 772 z "},"û":{"ha":761,"x_min":null,"x_max":null,"o":"m 742 71 l 703 74 b 638 158 650 76 638 86 l 638 628 b 540 613 617 622 581 617 b 410 601 499 607 450 603 l 410 568 l 460 560 b 519 468 506 551 519 544 l 519 139 b 369 74 472 94 419 74 b 247 231 306 74 247 108 l 247 421 b 251 628 247 515 247 582 b 147 613 225 622 186 617 b 40 601 107 606 71 603 l 40 568 l 81 558 b 128 468 115 551 128 543 l 128 194 b 306 -17 128 42 208 -17 b 415 19 344 -17 375 -4 b 519 92 457 42 486 68 l 519 -8 l 529 -17 b 632 11 557 -10 593 1 b 742 33 671 21 711 29 z m 538 718 b 394 949 482 793 438 868 l 357 949 b 213 718 314 869 268 793 l 247 692 b 375 829 294 735 338 782 b 501 692 413 782 456 735 z "},"ü":{"ha":761,"x_min":null,"x_max":null,"o":"m 742 71 l 703 74 b 638 158 650 76 638 86 l 638 628 b 540 613 617 622 581 617 b 410 601 499 607 450 603 l 410 568 l 460 560 b 519 468 506 551 519 544 l 519 139 b 369 74 472 94 419 74 b 247 231 306 74 247 108 l 247 421 b 251 628 247 515 247 582 b 147 613 225 622 186 617 b 40 601 107 606 71 603 l 40 568 l 81 558 b 128 468 115 551 128 543 l 128 194 b 306 -17 128 42 208 -17 b 415 19 344 -17 375 -4 b 519 92 457 42 486 68 l 519 -8 l 529 -17 b 632 11 557 -10 593 1 b 742 33 671 21 711 29 z m 247 757 b 317 828 288 757 317 789 b 249 901 317 868 288 901 b 178 828 210 901 178 868 b 247 757 178 789 210 757 z m 490 757 b 561 828 532 757 561 789 b 492 901 561 868 532 901 b 422 828 454 901 422 868 b 490 757 422 789 454 757 z "},"ý":{"ha":656,"x_min":null,"x_max":null,"o":"m 682 618 l 425 618 l 425 581 b 497 500 504 569 514 553 b 369 154 469 413 408 247 l 242 503 b 296 581 222 556 229 569 l 296 618 l 0 618 l 0 581 b 122 475 78 569 92 550 b 286 40 163 379 228 206 b 289 -22 294 17 296 -1 b 247 -117 283 -40 272 -69 b 138 -242 213 -179 185 -212 b 101 -292 114 -257 101 -271 b 185 -364 101 -328 146 -364 b 229 -328 204 -364 222 -357 b 378 56 251 -251 282 -171 b 557 476 476 286 521 403 b 682 581 594 557 607 568 z m 350 694 l 531 939 l 525 951 b 406 939 508 956 419 946 b 314 715 396 915 339 772 z "},"ÿ":{"ha":656,"x_min":null,"x_max":null,"o":"m 682 618 l 425 618 l 425 581 b 497 500 504 569 514 553 b 369 154 469 413 408 247 l 242 503 b 296 581 222 556 229 569 l 296 618 l 0 618 l 0 581 b 122 475 78 569 92 550 b 286 40 163 379 228 206 b 289 -22 294 17 296 -1 b 247 -117 283 -40 272 -69 b 138 -242 213 -179 185 -212 b 101 -292 114 -257 101 -271 b 185 -364 101 -328 146 -364 b 229 -328 204 -364 222 -357 b 378 56 251 -251 282 -171 b 557 476 476 286 521 403 b 682 581 594 557 607 568 z m 222 757 b 292 828 263 757 292 789 b 224 901 292 868 263 901 b 153 828 185 901 153 868 b 222 757 153 789 185 757 z m 465 757 b 536 828 507 757 536 789 b 467 901 536 868 507 901 b 397 828 429 901 397 868 b 465 757 397 789 429 757 z "},"ž":{"ha":601,"x_min":null,"x_max":null,"o":"m 557 199 l 538 164 b 344 50 482 78 453 50 l 207 50 b 553 596 322 238 438 415 l 543 618 l 213 618 b 132 647 160 618 140 626 l 103 647 b 54 442 92 586 69 497 l 90 428 l 110 467 b 274 568 151 547 171 568 b 396 568 304 568 349 568 b 42 22 279 379 165 201 l 54 0 l 528 0 b 592 181 549 56 571 122 z m 436 953 b 310 818 388 910 347 863 b 183 953 272 864 231 910 l 147 929 b 290 697 203 851 247 778 l 326 697 b 472 929 371 776 415 851 z "},"ð":{"ha":725,"x_min":null,"x_max":null,"o":"m 647 933 l 624 978 l 440 882 b 125 1004 346 957 226 999 b 115 961 113 999 108 972 b 365 839 194 951 285 913 l 171 738 l 193 692 l 401 803 b 501 601 449 750 486 679 b 372 635 461 625 419 635 l 371 635 b 53 294 233 635 53 524 b 354 -17 53 144 167 -17 b 671 378 515 -17 671 103 b 482 847 671 567 607 718 z m 365 586 b 496 532 418 586 463 565 b 539 331 526 500 540 458 b 379 32 536 96 458 32 b 192 335 264 32 192 157 b 364 586 192 486 263 586 z "},"þ":{"ha":736,"x_min":null,"x_max":null,"o":"m 228 1004 b 10 958 167 983 82 964 l 10 924 b 110 814 104 915 110 910 l 110 -187 b 7 -300 110 -285 94 -293 l 7 -339 l 356 -339 l 356 -300 b 228 -185 242 -293 228 -283 l 228 10 b 326 -17 247 0 282 -15 b 683 367 519 17 685 156 b 435 635 683 494 594 635 b 383 624 414 635 399 631 b 228 543 333 597 282 572 z m 228 494 b 365 549 271 524 318 549 b 560 307 469 549 560 471 b 365 56 560 126 461 56 b 228 113 314 56 257 82 z "},"&":{"ha":1018,"x_min":null,"x_max":null,"o":"m 1026 603 l 699 603 l 699 564 b 785 468 800 550 813 533 b 700 308 758 406 735 360 b 463 526 608 400 508 486 b 576 610 515 561 551 588 b 638 735 607 638 638 676 b 422 931 638 847 542 931 b 186 704 296 931 186 832 b 289 508 186 628 224 568 b 76 239 167 422 76 368 b 361 -19 76 115 178 -19 b 657 167 461 -19 556 31 b 781 31 703 117 763 51 b 961 -25 797 13 876 -19 l 971 -11 b 736 272 926 72 800 211 b 860 458 785 347 822 404 b 1026 564 908 528 928 553 z m 408 881 b 528 733 479 881 528 814 b 425 554 528 657 489 600 b 293 742 338 619 293 668 b 407 881 293 824 343 881 z m 399 81 b 203 281 306 81 203 147 b 325 478 203 349 238 414 b 624 204 456 374 546 289 b 400 81 578 143 492 81 z "},"ﬁ":{"ha":768,"x_min":null,"x_max":null,"o":"m 743 0 l 743 36 b 644 143 653 44 644 54 l 644 636 b 376 618 569 621 485 618 l 263 618 l 263 665 b 306 882 263 774 281 846 b 393 936 322 913 353 936 b 543 849 463 936 510 886 b 585 847 553 836 567 836 b 618 882 597 854 610 869 b 610 936 625 899 624 918 b 457 1004 592 960 544 1003 b 278 928 403 1000 338 974 b 161 763 203 868 174 800 b 144 651 151 733 144 696 l 144 618 l 75 618 l 35 575 l 40 560 l 144 560 l 144 140 b 43 36 144 56 131 46 l 43 0 l 361 0 l 361 36 b 263 140 272 44 263 56 l 263 560 l 451 560 b 526 482 522 560 526 549 l 526 143 b 438 36 526 54 515 44 l 438 0 z "},"ﬂ":{"ha":765,"x_min":null,"x_max":null,"o":"m 746 0 l 746 38 b 644 143 656 46 644 54 l 644 994 l 632 1003 b 567 971 608 990 589 978 b 447 1004 536 992 492 1006 b 278 932 388 997 333 975 b 163 769 201 869 175 808 b 144 642 151 738 144 699 l 144 618 l 76 618 l 38 576 l 43 560 l 144 560 l 144 140 b 43 38 144 56 133 49 l 43 0 l 357 0 l 357 38 b 263 140 271 46 263 56 l 263 560 l 411 560 b 426 618 428 569 435 604 l 263 618 l 263 694 b 304 890 263 800 281 860 b 399 940 325 921 357 940 b 526 875 449 940 500 914 l 526 143 b 436 38 526 54 515 44 l 436 0 z "},"`":{"ha":564,"x_min":null,"x_max":null,"o":"m 349 711 b 260 949 319 783 285 885 b 147 931 238 953 160 938 l 140 918 b 308 692 181 865 249 775 z "},"´":{"ha":564,"x_min":null,"x_max":null,"o":"m 272 694 l 453 939 l 447 951 b 328 939 431 956 342 946 b 236 715 318 915 261 772 z "},"ˆ":{"ha":564,"x_min":null,"x_max":null,"o":"m 444 718 b 301 949 389 793 344 868 l 264 949 b 119 718 221 869 175 793 l 154 692 b 282 829 201 735 244 782 b 408 692 319 782 363 735 z "},"ˇ":{"ha":564,"x_min":null,"x_max":null,"o":"m 408 953 b 282 818 360 910 319 863 b 156 953 244 864 203 910 l 119 929 b 263 697 175 851 219 778 l 299 697 b 444 929 343 776 388 851 z "},"˜":{"ha":564,"x_min":null,"x_max":null,"o":"m 131 733 b 194 803 151 781 171 803 b 261 779 217 803 236 794 b 356 747 296 760 324 747 b 468 876 390 747 436 769 l 433 897 b 371 832 414 856 396 832 b 293 858 347 832 324 843 b 211 886 253 881 233 886 b 94 757 172 886 125 854 z "},"¨":{"ha":564,"x_min":null,"x_max":null,"o":"m 160 757 b 229 828 200 757 229 789 b 161 901 229 868 200 901 b 90 828 122 901 90 868 b 160 757 90 789 122 757 z m 403 757 b 474 828 444 757 474 789 b 404 901 474 868 444 901 b 335 828 367 901 335 868 b 403 757 335 789 367 757 z "},"¯":{"ha":564,"x_min":null,"x_max":null,"o":"m 440 772 l 440 853 l 125 853 l 125 772 z "},"˘":{"ha":564,"x_min":null,"x_max":null,"o":"m 399 917 b 282 806 388 843 346 806 b 167 917 218 806 176 843 l 124 917 b 281 721 124 767 197 721 b 440 917 367 721 440 767 z "},"˚":{"ha":564,"x_min":null,"x_max":null,"o":"m 282 704 b 408 826 344 704 408 750 b 283 944 408 900 344 944 b 156 826 218 944 156 900 b 282 704 156 750 218 704 z m 283 749 b 219 826 247 749 219 781 b 282 900 219 868 247 900 b 347 826 321 900 347 868 b 283 749 347 781 321 749 z "},"˙":{"ha":564,"x_min":null,"x_max":null,"o":"m 282 756 b 357 831 324 756 357 790 b 283 907 357 874 324 907 b 208 831 243 907 208 874 b 282 756 208 790 243 756 z "},"˝":{"ha":564,"x_min":null,"x_max":null,"o":"m 189 696 l 331 939 l 325 953 b 214 938 306 957 226 943 b 150 710 208 915 169 778 z m 386 696 l 528 939 l 524 953 b 411 938 504 957 425 943 b 349 710 406 915 368 781 z "},"¸":{"ha":564,"x_min":null,"x_max":null,"o":"m 349 0 l 292 0 l 238 -71 b 253 -161 208 -107 215 -128 b 285 -214 269 -176 286 -193 b 199 -300 285 -244 258 -275 l 215 -337 b 382 -194 317 -307 382 -254 b 325 -96 382 -162 365 -135 b 317 -37 301 -74 299 -62 z "},"˛":{"ha":564,"x_min":null,"x_max":null,"o":"m 418 -251 l 407 -215 b 349 -228 388 -222 368 -228 b 276 -156 307 -228 276 -204 b 319 3 276 -110 293 -53 l 268 3 b 183 -199 229 -60 183 -129 b 300 -304 183 -247 219 -304 b 346 -292 313 -304 332 -300 z "},"^":{"ha":796,"x_min":null,"x_max":null,"o":"m 701 297 l 431 878 l 367 878 l 96 297 l 176 297 l 396 783 l 615 297 z "},"~":{"ha":818,"x_min":null,"x_max":null,"o":"m 688 438 b 569 322 660 360 626 322 b 426 378 525 322 479 346 b 263 432 361 414 317 432 b 76 278 210 432 131 411 l 128 240 b 257 360 160 321 197 360 b 382 313 299 360 335 343 b 561 251 433 283 493 251 b 742 406 650 251 711 307 z "},"¦":{"ha":376,"x_min":null,"x_max":null,"o":"m 236 458 l 236 951 l 140 951 l 140 458 z m 236 -247 l 236 247 l 140 247 l 140 -247 z "},"\\":{"ha":476,"x_min":null,"x_max":null,"o":"m 429 -62 l 132 939 l 51 939 l 347 -62 z "},"_":{"ha":704,"x_min":null,"x_max":null,"o":"m 704 -176 l 704 -106 l 0 -106 l 0 -176 z "},"'":{"ha":246,"x_min":null,"x_max":null,"o":"m 174 1003 l 58 964 b 103 661 64 944 88 796 l 144 679 b 182 996 157 768 179 961 z "},"\"":{"ha":461,"x_min":null,"x_max":null,"o":"m 174 1003 l 60 963 b 103 661 65 944 88 796 l 144 679 b 182 996 157 768 179 961 z m 390 1003 l 276 963 b 319 661 283 944 303 796 l 361 679 b 399 996 374 765 396 960 z "},"©":{"ha":993,"x_min":null,"x_max":null,"o":"m 496 883 b 71 454 253 883 71 692 b 496 26 71 218 251 26 b 922 454 740 26 922 218 b 497 883 922 693 740 883 z m 497 835 b 856 456 704 835 856 671 b 497 76 856 242 704 76 b 138 456 290 76 138 242 b 496 835 138 671 289 835 z m 679 371 b 528 251 649 297 604 251 b 364 461 436 251 364 338 b 525 661 364 575 422 661 b 665 543 597 661 642 621 l 696 549 b 681 675 689 606 685 639 b 533 700 656 686 603 700 b 258 451 388 700 258 608 b 526 210 258 333 344 210 b 674 238 586 210 647 226 b 713 364 685 263 700 324 z "},"™":{"ha":656,"x_min":null,"x_max":null,"o":"m 268 829 b 265 908 267 860 265 890 l 249 908 b 229 900 243 901 239 900 l 78 900 b 67 901 74 900 71 900 b 60 908 64 901 61 904 l 42 908 b 36 829 42 890 38 861 l 58 829 b 75 863 63 846 69 858 b 108 875 79 869 90 875 l 126 875 l 126 739 b 90 696 126 700 125 697 l 90 672 l 214 672 l 214 696 b 175 739 178 697 175 700 l 175 875 l 196 875 b 229 864 213 875 225 871 b 247 829 238 860 242 846 z m 619 672 l 619 696 b 585 740 589 697 586 700 l 583 836 b 617 874 583 868 586 871 l 617 900 l 525 900 l 456 758 l 386 900 l 293 900 l 293 874 b 328 829 328 871 333 868 l 324 774 b 315 715 321 738 318 726 b 285 696 313 701 306 696 l 285 672 l 385 672 l 385 696 b 351 715 358 697 353 701 b 353 769 351 726 350 743 l 357 851 l 360 851 l 435 676 l 453 676 l 536 861 l 538 861 l 538 735 b 504 696 538 700 536 697 l 504 672 z "},"®":{"ha":453,"x_min":null,"x_max":null,"o":"m 226 931 b 44 747 124 931 44 846 b 226 565 44 644 122 565 b 410 747 333 565 410 651 b 228 931 410 846 333 931 z m 226 897 b 371 747 308 897 371 832 b 226 597 371 663 308 597 b 85 747 147 597 85 663 b 225 897 85 832 144 897 z m 332 667 b 313 682 326 669 319 675 b 267 747 293 704 282 721 b 304 794 289 757 304 771 b 238 846 304 836 268 846 l 139 846 l 139 825 b 167 797 164 824 167 822 l 167 700 b 138 674 167 675 164 675 l 138 653 l 233 653 l 233 674 b 207 700 210 675 207 675 l 207 735 l 213 735 b 232 725 219 735 226 733 b 258 679 239 715 247 696 b 326 651 275 657 296 651 z m 207 756 l 207 808 b 225 825 207 821 213 825 b 260 790 239 825 260 819 b 246 761 260 778 256 768 b 219 756 239 758 228 756 z "},"@":{"ha":1075,"x_min":null,"x_max":null,"o":"m 775 -21 b 550 -74 738 -42 635 -74 b 167 307 268 -74 167 119 b 610 763 167 569 347 763 b 949 454 806 763 949 650 b 742 164 949 264 838 167 b 715 257 707 164 700 183 b 782 576 736 374 761 488 b 735 582 768 576 754 578 b 663 593 717 586 683 593 b 433 489 574 592 494 547 b 317 224 350 410 318 301 b 386 103 317 140 351 103 b 629 286 453 103 581 215 l 632 285 l 615 204 b 681 103 603 146 604 103 b 1019 454 872 103 1019 263 b 618 818 1019 649 874 818 b 74 294 344 818 75 625 b 504 -137 74 6 279 -137 b 792 -61 599 -137 692 -118 z m 603 536 b 679 521 629 536 661 529 b 643 364 671 478 657 410 b 458 194 560 246 483 194 b 429 260 442 194 429 208 b 510 493 431 350 469 449 b 601 536 533 519 564 536 z "},"ª":{"ha":436,"x_min":null,"x_max":null,"o":"m 421 426 l 411 454 b 378 446 399 449 388 446 b 347 492 363 446 347 456 l 347 644 b 219 769 347 728 300 769 b 81 710 165 760 104 726 b 51 669 63 697 51 685 b 97 629 51 647 76 629 b 126 651 111 629 121 635 b 193 725 139 694 163 725 b 263 649 238 725 263 693 l 263 635 b 115 574 231 614 160 590 b 44 488 69 557 44 528 b 157 379 44 435 92 379 b 265 435 183 379 228 410 b 331 379 274 407 293 382 z m 263 469 b 199 442 250 457 225 442 b 138 503 169 442 138 464 b 179 560 138 532 151 544 b 263 596 201 569 246 586 z "},"º":{"ha":479,"x_min":null,"x_max":null,"o":"m 240 769 b 38 569 156 769 38 703 b 240 379 36 475 111 379 b 440 579 335 379 439 450 b 242 769 440 682 357 769 z m 229 731 b 338 558 297 731 338 657 b 247 419 336 458 296 419 b 140 590 188 419 140 489 b 228 731 143 683 186 731 z "},"¤":{"ha":686,"x_min":null,"x_max":null,"o":"m 642 190 l 543 285 b 604 458 582 332 604 394 b 544 631 604 522 582 586 l 642 726 l 581 783 l 490 678 b 342 732 446 715 388 732 l 340 732 b 189 678 292 732 233 715 l 97 783 l 39 726 l 138 631 b 76 458 97 583 76 522 b 136 283 76 394 97 333 l 39 190 l 97 131 l 189 238 b 340 183 232 200 292 183 b 490 239 388 183 446 201 l 581 131 z m 342 660 b 515 458 440 660 515 578 b 342 256 515 338 440 256 b 167 458 243 256 167 336 b 340 660 167 578 243 660 z "},"€":{"ha":697,"x_min":null,"x_max":null,"o":"m 628 182 b 454 32 579 92 540 32 b 251 290 343 32 272 136 l 557 290 l 576 342 l 247 342 b 249 421 244 372 246 396 l 601 421 l 621 474 l 253 474 b 451 714 276 615 344 714 b 615 560 554 714 588 650 l 653 568 b 633 731 646 631 642 676 b 469 763 607 738 544 763 b 119 474 294 763 157 650 l 67 474 l 49 421 l 111 421 b 107 342 107 394 106 371 l 42 342 l 24 290 l 111 290 b 446 -17 133 122 228 -17 b 610 13 504 -17 583 4 b 665 167 628 43 651 114 z "},"$":{"ha":697,"x_min":null,"x_max":null,"o":"m 376 376 l 376 594 b 531 450 469 583 506 514 l 571 461 b 542 614 561 535 550 576 b 376 643 472 635 422 643 l 376 732 l 328 732 l 328 640 b 113 451 192 628 113 549 b 289 282 113 357 188 313 l 328 269 l 328 33 b 128 211 214 43 156 146 l 88 203 b 125 33 101 119 118 57 b 328 -15 153 19 224 -14 l 328 -118 l 376 -118 l 376 -14 b 607 178 511 -3 607 74 b 404 368 607 290 521 333 z m 328 389 b 213 494 257 407 213 439 b 328 594 213 547 251 590 z m 376 257 b 497 136 475 224 497 189 b 376 32 497 72 450 38 z "},"¢":{"ha":697,"x_min":null,"x_max":null,"o":"m 599 194 b 425 117 546 140 485 117 l 425 574 b 535 511 463 569 501 547 b 556 500 542 503 550 500 b 601 556 576 500 601 528 b 582 593 601 569 596 583 b 443 629 551 614 506 628 b 425 628 438 629 432 629 l 425 735 l 376 735 l 376 622 b 226 558 331 614 278 593 b 92 303 144 500 92 407 b 376 29 92 167 196 38 l 376 -99 l 425 -99 l 425 32 b 626 165 496 44 575 94 z m 376 122 b 208 360 297 138 208 211 b 376 574 208 515 314 571 z "},"£":{"ha":697,"x_min":null,"x_max":null,"o":"m 506 349 l 506 401 l 288 401 b 264 574 279 463 264 526 b 357 692 264 631 283 692 b 482 633 403 692 447 665 b 521 631 494 622 507 622 b 547 663 532 640 542 653 b 542 710 551 675 553 692 b 413 760 524 733 471 760 b 268 701 372 760 313 739 b 149 483 186 643 149 557 b 154 401 149 456 151 425 l 50 401 l 50 349 l 160 349 b 164 288 161 335 164 313 b 108 128 164 242 154 178 b 53 53 88 104 63 72 b 72 -8 29 15 54 -8 b 93 8 81 -8 88 -4 b 146 64 107 44 124 64 b 229 32 172 64 193 51 b 406 -36 292 -3 354 -36 b 533 4 447 -36 493 -21 b 638 161 590 42 638 110 b 606 211 638 185 625 211 b 551 175 590 211 567 197 b 549 146 546 167 544 156 b 556 107 553 135 556 119 b 493 51 556 78 533 51 b 354 96 453 51 401 72 b 179 128 288 126 233 132 b 292 333 243 182 290 253 b 292 349 292 339 292 344 z "},"ƒ":{"ha":686,"x_min":null,"x_max":null,"o":"m 265 522 l 131 522 l 131 468 l 257 468 l 218 190 b 175 -69 199 33 186 -35 b 118 -117 164 -101 149 -117 b 19 -71 76 -117 33 -71 b -31 -140 4 -71 -32 -115 b 46 -194 -32 -165 8 -194 b 172 -143 78 -194 118 -181 b 343 188 246 -87 311 -8 l 383 468 l 551 468 l 551 522 l 393 522 b 447 803 417 726 433 772 b 500 846 460 831 478 846 b 603 796 540 846 579 810 b 658 856 628 785 658 833 b 575 919 660 889 610 919 b 413 842 543 919 489 908 b 276 585 340 778 297 703 z "},"¥":{"ha":697,"x_min":null,"x_max":null,"o":"m 660 750 l 414 750 l 414 713 l 451 704 b 482 650 493 697 496 683 b 371 431 461 601 404 493 b 246 668 331 503 269 621 b 272 707 232 690 240 700 l 308 713 l 308 750 l 22 750 l 22 714 b 139 632 82 704 103 693 b 263 406 190 544 231 467 l 88 406 l 88 356 l 279 356 b 279 311 279 340 279 325 l 279 256 l 88 256 l 88 204 l 279 204 l 279 139 b 164 38 279 64 274 44 l 164 0 l 515 0 l 515 38 b 397 136 408 44 397 63 l 397 204 l 588 204 l 588 256 l 397 256 l 397 321 b 397 356 397 335 397 346 l 586 356 l 586 406 l 408 406 b 539 629 471 521 510 583 b 660 713 575 686 592 704 z "},"#":{"ha":686,"x_min":null,"x_max":null,"o":"m 642 643 l 518 643 l 564 857 l 507 857 l 460 643 l 307 643 l 356 857 l 300 857 l 253 643 l 113 643 l 100 557 l 232 557 l 192 367 l 49 367 l 33 282 l 171 282 l 115 36 l 172 36 l 225 282 l 379 282 l 325 36 l 381 36 l 436 282 l 564 282 l 578 367 l 454 367 l 497 557 l 628 557 z m 442 557 l 399 367 l 249 367 l 289 557 z "},"¹":{"ha":488,"x_min":null,"x_max":null,"o":"m 392 568 l 392 601 b 300 685 315 610 300 618 l 300 1072 b 107 1031 232 1051 171 1039 l 107 999 l 150 996 b 203 932 199 993 203 985 l 203 685 b 108 601 203 618 186 607 l 108 568 z "},"²":{"ha":488,"x_min":null,"x_max":null,"o":"m 406 704 b 307 643 379 650 363 643 l 179 643 l 179 647 l 251 710 b 401 922 358 803 401 856 b 244 1074 401 1019 325 1074 b 106 1010 190 1074 138 1050 l 60 947 l 85 922 b 206 1000 113 960 153 1000 b 299 897 257 1000 299 967 b 57 600 299 785 139 664 l 57 568 l 404 568 b 439 694 413 607 425 649 z "},"³":{"ha":488,"x_min":null,"x_max":null,"o":"m 293 865 b 356 908 321 881 342 896 b 382 964 372 921 382 942 b 247 1072 382 1024 331 1072 l 246 1072 b 121 1022 194 1072 146 1047 l 81 963 l 103 940 b 208 1010 124 969 165 1010 b 282 946 257 1010 282 981 b 144 838 282 896 226 863 l 153 801 b 211 811 169 807 189 811 b 318 717 265 811 318 782 b 229 613 318 643 278 613 b 121 661 188 613 149 640 b 92 663 110 669 101 669 b 67 629 81 654 71 643 b 82 588 63 614 67 600 b 179 557 97 574 136 557 b 418 746 240 557 418 617 b 293 864 418 808 371 850 z "},"⁄":{"ha":229,"x_min":null,"x_max":null,"o":"m 426 889 l 379 922 l -197 -4 l -154 -39 z "},"¼":{"ha":1088,"x_min":null,"x_max":null,"o":"m 396 390 l 396 425 b 304 507 319 433 304 440 l 304 897 b 111 854 238 874 175 861 l 111 821 l 154 818 b 206 756 203 815 206 808 l 206 507 b 113 425 206 440 190 431 l 113 390 z m 981 139 l 981 193 l 899 193 l 899 506 l 840 506 b 578 174 751 401 663 285 l 578 139 l 808 139 l 808 100 b 717 32 808 44 792 38 l 717 0 l 975 0 l 975 32 b 899 100 913 38 899 44 l 899 139 z m 808 193 l 651 193 b 804 399 707 274 751 335 l 808 399 z m 863 889 l 815 922 l 239 -4 l 282 -39 z "},"½":{"ha":1089,"x_min":null,"x_max":null,"o":"m 385 390 l 385 425 b 293 507 308 433 293 440 l 293 897 b 100 854 225 874 164 861 l 100 821 l 143 818 b 196 756 192 815 196 808 l 196 507 b 101 425 196 440 179 431 l 101 390 z m 972 138 b 872 76 944 83 928 76 l 744 76 l 744 79 l 817 143 b 967 354 924 233 967 288 b 810 506 967 453 890 506 b 671 442 756 506 703 482 l 625 381 l 650 354 b 771 432 678 393 718 432 b 864 331 824 432 864 399 b 624 32 864 217 704 96 l 624 0 l 969 0 b 1004 126 978 39 990 82 z m 839 889 l 792 922 l 215 -4 l 258 -39 z "},"¾":{"ha":1089,"x_min":null,"x_max":null,"o":"m 972 139 l 972 193 l 888 193 l 888 506 l 831 506 b 569 174 743 401 653 285 l 569 139 l 797 139 l 797 100 b 708 32 797 44 783 38 l 708 0 l 967 0 l 967 32 b 888 100 904 38 888 44 l 888 139 z m 797 193 l 643 193 b 794 399 697 274 743 335 l 797 399 z m 332 689 b 393 731 360 703 379 718 b 421 786 410 743 421 764 b 285 897 421 846 368 897 l 283 897 b 161 844 233 897 183 869 l 118 785 l 140 763 b 247 832 163 792 203 832 b 319 768 294 832 319 804 b 182 660 319 718 265 686 l 190 625 b 250 633 208 629 226 633 b 357 539 303 633 357 604 b 268 435 357 465 315 435 b 161 483 226 436 186 463 b 129 485 150 492 139 492 b 104 451 118 476 108 465 b 119 410 100 436 104 422 b 218 379 136 396 175 379 b 457 569 278 379 457 439 b 332 686 457 631 408 672 z m 865 889 l 818 922 l 242 -4 l 285 -39 z "},"+":{"ha":818,"x_min":null,"x_max":null,"o":"m 747 322 l 747 394 l 453 394 l 453 686 l 368 686 l 368 394 l 74 394 l 74 322 l 368 322 l 368 0 l 453 0 l 453 322 z "},"−":{"ha":818,"x_min":null,"x_max":null,"o":"m 747 321 l 747 394 l 74 394 l 74 321 z "},"±":{"ha":818,"x_min":null,"x_max":null,"o":"m 747 438 l 747 508 l 453 508 l 453 776 l 368 776 l 368 508 l 74 508 l 74 438 l 368 438 l 368 153 l 453 153 l 453 438 z m 747 0 l 747 72 l 74 72 l 74 0 z "},"×":{"ha":818,"x_min":null,"x_max":null,"o":"m 736 69 l 463 349 l 736 628 l 682 682 l 408 401 l 136 679 l 85 625 l 354 349 l 85 69 l 136 14 l 408 293 l 682 14 z "},"÷":{"ha":818,"x_min":null,"x_max":null,"o":"m 411 499 b 483 571 451 499 483 531 b 411 642 483 607 451 642 b 342 571 376 642 342 607 b 410 499 342 531 376 499 z m 747 322 l 747 394 l 74 394 l 74 322 z m 410 217 b 339 147 371 217 339 186 b 410 76 339 108 371 76 b 481 147 446 76 481 108 b 411 217 481 186 446 217 z "},"=":{"ha":818,"x_min":null,"x_max":null,"o":"m 747 451 l 747 524 l 74 524 l 74 451 z m 747 193 l 747 267 l 74 267 l 74 193 z "},"≠":{"ha":826,"x_min":null,"x_max":null,"o":"m 750 196 l 750 268 l 390 268 l 499 450 l 750 450 l 750 522 l 539 522 l 640 689 l 588 725 l 465 522 l 75 522 l 75 450 l 426 450 l 317 268 l 75 268 l 75 196 l 279 196 l 182 33 l 231 -3 l 350 196 z "},"≈":{"ha":832,"x_min":null,"x_max":null,"o":"m 722 539 b 590 460 694 500 653 460 b 431 500 529 460 479 479 b 257 540 390 519 326 542 b 71 431 182 539 114 497 l 113 385 b 253 471 140 428 183 471 b 396 436 304 471 351 456 b 583 386 471 403 522 386 b 761 489 657 386 726 432 z m 721 315 b 590 238 694 275 653 238 b 431 279 529 238 479 257 b 256 318 389 297 326 319 b 71 213 178 317 114 276 l 113 169 b 246 250 139 206 182 249 b 401 211 301 250 350 233 b 583 165 475 179 522 165 b 761 267 657 165 726 208 z "},"¬":{"ha":818,"x_min":null,"x_max":null,"o":"m 747 138 l 747 521 l 74 521 l 74 449 l 663 449 l 663 138 z "},"<":{"ha":779,"x_min":null,"x_max":null,"o":"m 696 0 l 696 81 l 169 356 l 169 358 l 696 633 l 696 715 l 85 392 l 85 322 z "},"≤":{"ha":818,"x_min":null,"x_max":null,"o":"m 740 157 l 740 236 l 163 488 l 740 742 l 740 821 l 78 524 l 78 453 z m 740 0 l 740 74 l 78 74 l 78 0 z "},"≥":{"ha":818,"x_min":null,"x_max":null,"o":"m 740 453 l 740 524 l 78 821 l 78 742 l 656 488 l 78 236 l 78 157 z m 740 0 l 740 74 l 78 74 l 78 0 z "},">":{"ha":779,"x_min":null,"x_max":null,"o":"m 696 322 l 696 392 l 85 715 l 85 635 l 613 358 l 613 356 l 85 81 l 85 0 z "},"%":{"ha":1015,"x_min":null,"x_max":null,"o":"m 771 749 l 725 781 l 239 -8 l 283 -42 z m 269 761 b 76 540 133 761 76 638 b 268 319 76 446 133 319 b 458 542 400 319 458 444 b 271 761 458 638 400 761 z m 269 721 b 353 540 342 721 353 600 b 269 361 353 483 342 361 b 183 542 197 361 183 482 b 268 721 183 600 197 721 z m 754 426 b 561 204 619 426 561 301 b 753 -15 561 110 619 -15 b 943 204 885 -15 943 108 b 756 426 943 301 885 426 z m 754 385 b 838 204 826 385 838 265 b 754 25 838 149 826 25 b 668 206 682 25 668 147 b 753 385 668 265 682 385 z "},"‰":{"ha":1442,"x_min":null,"x_max":null,"o":"m 771 749 l 725 781 l 239 -8 l 283 -42 z m 269 761 b 76 540 133 761 76 638 b 268 319 76 446 133 319 b 458 542 400 319 458 444 b 271 761 458 638 400 761 z m 269 719 b 353 540 342 719 353 600 b 269 360 353 483 342 360 b 183 542 197 360 183 482 b 268 719 183 600 197 719 z m 754 426 b 561 204 619 426 561 301 b 753 -15 561 110 619 -15 b 943 204 885 -15 943 108 b 756 426 943 301 885 426 z m 754 383 b 838 204 826 383 838 265 b 754 25 838 149 826 25 b 668 206 682 25 668 147 b 753 383 668 265 682 383 z m 1183 426 b 990 204 1047 426 990 301 b 1182 -15 990 108 1047 -15 b 1372 204 1314 -15 1372 108 b 1185 426 1372 304 1314 426 z m 1183 383 b 1265 204 1254 383 1265 265 b 1183 25 1265 149 1254 25 b 1097 206 1111 25 1097 147 b 1182 383 1097 265 1111 383 z "},"°":{"ha":485,"x_min":null,"x_max":null,"o":"m 243 938 b 44 744 138 938 44 861 b 243 551 44 624 138 551 b 442 744 347 551 442 624 b 244 938 442 861 347 938 z m 244 875 b 357 743 311 875 357 824 b 244 614 357 667 311 614 b 131 744 178 614 131 667 b 243 875 131 824 178 875 z "},"∆":{"ha":919,"x_min":null,"x_max":null,"o":"m 861 0 l 861 35 l 486 940 l 446 928 l 61 33 l 61 0 z m 708 72 l 154 72 l 432 756 z "},"Ω":{"ha":1089,"x_min":null,"x_max":null,"o":"m 1035 210 l 994 211 b 879 107 958 114 944 107 l 758 107 b 990 514 826 183 990 318 b 551 940 990 771 803 940 b 108 508 303 940 108 765 b 342 107 108 313 267 179 l 214 107 b 104 211 157 107 138 118 l 65 210 l 90 0 l 443 0 l 451 25 b 260 506 407 100 260 286 b 550 890 260 747 369 890 b 840 513 729 890 840 740 b 649 25 840 278 693 94 l 657 0 l 1008 0 z "},"µ":{"ha":733,"x_min":null,"x_max":null,"o":"m 715 78 b 665 64 701 71 682 64 b 606 163 636 65 606 86 l 606 635 l 486 607 l 486 146 b 350 74 460 114 408 74 b 221 246 292 74 221 111 l 221 486 b 217 635 221 539 221 600 l 96 607 b 101 472 100 575 101 524 l 101 58 b 103 -307 101 -90 96 -283 b 213 -364 125 -331 181 -360 l 231 -346 b 179 19 211 -292 178 -92 l 179 42 l 185 42 b 300 -17 207 10 249 -17 b 488 93 372 -17 433 31 l 490 93 b 604 -17 500 26 544 -17 b 729 40 654 -17 704 11 z "},"π":{"ha":760,"x_min":null,"x_max":null,"o":"m 694 657 b 624 619 676 624 663 619 b 275 622 511 619 375 621 b 24 510 121 624 58 551 l 46 476 b 229 528 92 511 146 528 b 115 8 229 382 201 135 l 126 -17 b 221 8 153 -15 182 -8 b 296 499 236 28 296 163 l 296 526 b 492 524 354 526 413 525 b 481 161 486 406 481 292 b 588 -17 481 21 532 -17 b 719 64 636 -17 689 18 l 703 93 b 644 79 685 85 663 79 b 586 207 613 79 588 111 b 592 522 585 310 586 419 b 700 528 621 521 679 521 b 735 649 714 550 728 593 z "},"∏":{"ha":1033,"x_min":null,"x_max":null,"o":"m 982 918 l 51 918 l 51 876 b 179 735 168 868 179 851 l 179 71 b 56 -74 179 -46 168 -64 l 56 -112 l 422 -112 l 422 -74 b 300 71 313 -64 300 -46 l 300 818 b 349 864 300 858 304 864 l 685 864 b 733 822 725 864 733 860 l 733 71 b 600 -74 733 -46 722 -64 l 600 -112 l 979 -112 l 979 -74 b 853 71 864 -64 853 -46 l 853 735 b 982 876 853 851 864 868 z "},"∑":{"ha":767,"x_min":null,"x_max":null,"o":"m 738 129 l 694 139 b 518 -6 651 17 614 -6 l 161 -6 l 490 454 l 207 865 l 435 865 b 599 828 540 865 576 857 b 656 701 622 803 639 767 l 696 710 b 679 918 689 790 681 896 l 53 918 l 53 881 l 376 399 l 33 -78 l 33 -112 l 681 -112 z "},"∂":{"ha":699,"x_min":null,"x_max":null,"o":"m 343 565 b 133 472 251 565 176 519 b 53 257 88 422 53 347 b 307 -17 53 104 153 -17 b 582 185 438 -17 524 68 b 653 529 636 293 653 436 b 583 814 653 601 640 715 b 282 1001 519 925 414 1001 b 107 961 207 1001 149 983 b 160 882 96 938 139 881 b 321 929 201 910 250 929 b 507 808 415 929 479 876 b 543 600 539 738 543 669 b 532 478 542 554 539 513 b 344 565 483 538 418 565 z m 379 501 b 524 418 450 503 499 450 b 457 163 511 317 492 242 b 301 29 428 96 376 29 b 175 211 215 29 175 125 b 240 422 175 285 190 354 b 378 501 276 475 317 500 z "},"√":{"ha":796,"x_min":null,"x_max":null,"o":"m 749 1286 l 688 1293 l 506 194 l 503 194 l 251 751 l 39 640 l 65 590 l 194 657 l 524 -54 z "},"∫":{"ha":538,"x_min":null,"x_max":null,"o":"m 203 42 b 156 -171 204 -133 189 -171 b 61 -117 126 -171 106 -117 b -1 -179 28 -117 -1 -143 b 85 -250 0 -215 32 -250 b 331 376 247 -250 338 -64 l 324 824 b 371 1044 321 1014 340 1044 b 456 994 404 1044 407 994 b 518 1053 490 994 518 1019 b 442 1117 518 1090 485 1117 b 196 592 283 1117 193 932 z "},"∞":{"ha":1075,"x_min":null,"x_max":null,"o":"m 1001 353 b 804 551 1001 465 921 551 b 540 401 690 551 618 478 b 282 551 465 479 386 551 b 75 353 163 551 75 464 b 274 156 75 243 163 156 b 538 301 389 156 467 233 b 788 156 638 203 710 156 b 1001 351 906 156 1001 232 z m 288 219 b 153 350 211 219 154 276 b 276 486 151 421 199 486 b 494 349 368 486 438 411 b 289 219 444 297 369 219 z m 792 486 b 924 350 867 486 926 439 b 789 219 921 279 867 219 b 582 356 713 228 664 275 b 790 486 626 396 708 486 z "},"℮":{"ha":1114,"x_min":null,"x_max":null,"o":"m 1067 426 b 1067 439 1067 431 1067 435 b 560 896 1067 690 840 896 b 53 439 279 896 53 690 b 560 -18 53 186 279 -18 b 961 160 724 -18 869 53 l 888 160 b 561 8 808 68 692 8 b 250 144 439 8 328 61 b 239 172 243 151 239 161 l 239 419 b 246 426 239 425 242 426 z m 881 458 b 875 451 881 456 879 451 l 246 451 b 239 458 242 451 239 456 l 239 703 b 251 735 239 717 243 726 b 561 868 331 817 440 868 b 868 739 681 868 789 818 b 881 710 876 731 881 721 z "},"ℓ":{"ha":593,"x_min":null,"x_max":null,"o":"m 522 165 b 374 76 485 114 436 76 b 257 271 299 76 257 135 l 257 388 b 510 751 351 458 510 589 b 369 924 510 856 454 924 b 226 854 319 924 269 901 b 135 496 168 790 135 715 l 135 371 l 39 293 l 60 254 l 136 308 l 136 236 b 185 39 136 136 156 74 b 318 -17 213 4 261 -17 b 551 135 419 -17 497 40 z m 257 590 b 342 869 257 785 278 869 b 419 751 390 869 419 824 b 257 451 419 638 356 539 z "},"◊":{"ha":794,"x_min":null,"x_max":null,"o":"m 711 475 l 433 1028 l 364 1028 l 85 475 l 363 -75 l 433 -75 z m 628 475 l 400 11 l 396 11 l 168 476 l 396 940 l 400 940 z "}," ":{"ha":328,"x_min":null,"x_max":null,"o":""},"­":{"ha":507,"x_min":null,"x_max":null,"o":"m 429 358 l 100 358 l 79 278 l 408 278 z "},"Ω":{"ha":1089,"x_min":null,"x_max":null,"o":"m 1035 210 l 994 211 b 879 107 958 114 944 107 l 758 107 b 990 514 826 183 990 318 b 551 940 990 771 803 940 b 108 508 303 940 108 765 b 342 107 108 313 267 179 l 214 107 b 104 211 157 107 138 118 l 65 210 l 90 0 l 443 0 l 451 25 b 260 506 407 100 260 286 b 550 890 260 747 369 890 b 840 513 729 890 840 740 b 649 25 840 278 693 94 l 657 0 l 1008 0 z "},"‐":{"ha":507,"x_min":null,"x_max":null,"o":"m 429 358 l 100 358 l 79 278 l 408 278 z "},"ˉ":{"ha":564,"x_min":null,"x_max":null,"o":"m 440 772 l 440 853 l 125 853 l 125 772 z "},"∕":{"ha":229,"x_min":null,"x_max":null,"o":"m 426 889 l 379 922 l -197 -4 l -154 -39 z "},"∙":{"ha":325,"x_min":null,"x_max":null,"o":"m 163 243 b 247 328 210 243 247 278 b 163 413 247 376 210 413 b 81 328 115 413 81 376 b 161 243 81 278 115 243 z "}}}
